<svg width="82" height="82" viewBox="0 0 82 82" fill="none" xmlns="http://www.w3.org/2000/svg">
<path d="M41 79C61.9866 79 79 61.9866 79 41C79 20.0132 61.9866 3 41 3C20.0132 3 3 20.0132 3 41C3 61.9866 20.0132 79 41 79Z" stroke="#FFD5A4" stroke-width="5" stroke-linecap="round" stroke-linejoin="round"/>
<path d="M28.384 40.6584L34.654 42.216L31.044 56.8084C30.208 60.2284 31.8799 61.368 34.768 59.354L54.452 45.7124C56.846 44.0404 56.504 42.1024 53.654 41.3804L47.384 39.8224L50.994 25.2302C51.83 21.8102 50.158 20.6703 47.27 22.6843L27.586 36.3264C25.192 37.9984 25.534 39.9364 28.384 40.6584Z" stroke="#FFD5A4" stroke-width="5" stroke-miterlimit="10" stroke-linecap="round" stroke-linejoin="round"/>
</svg>
