<svg width="75" height="75" viewBox="0 0 75 75" fill="none" xmlns="http://www.w3.org/2000/svg">
<path fill-rule="evenodd" clip-rule="evenodd" d="M37.5 5.23251C19.6856 5.23251 5.23256 19.7134 5.23256 37.5907C5.23256 54.2036 17.7161 67.8873 33.7765 69.7362C35.3895 69.9217 37.1163 69.245 38.497 67.8608C39.758 66.5967 39.758 64.5441 38.497 63.2799C37.409 62.1888 36.3178 60.7352 35.7206 59.0828C35.1091 57.3902 34.958 55.2669 36.1988 53.2935C37.3252 51.5019 39.0143 50.5426 40.7864 50.0762C42.4929 49.6273 44.384 49.6018 46.2 49.712C47.8884 49.8146 49.7062 50.05 51.4692 50.2785C51.6178 50.2981 51.766 50.3173 51.914 50.3361C53.8566 50.5869 55.754 50.821 57.5864 50.9085C61.334 51.0882 64.2206 50.6159 66.1933 49.0028C68.0815 47.4596 69.7674 44.3257 69.7674 37.5907C69.7674 19.7134 55.3144 5.23251 37.5 5.23251ZM0 37.5907C0 16.8364 16.7829 0 37.5 0C58.2171 0 75 16.8364 75 37.5907C75 45.0739 73.1274 50.093 69.5051 53.0542C65.9679 55.9457 61.3936 56.3298 57.3359 56.1351C55.2659 56.036 53.1747 55.7751 51.2438 55.5257C51.1081 55.5083 50.9738 55.4908 50.8399 55.4734C49.0277 55.239 47.3843 55.0262 45.8833 54.9351C44.257 54.8364 43.0214 54.8988 42.1183 55.1364C41.2803 55.3569 40.8767 55.6834 40.6284 56.0786C40.493 56.2938 40.3978 56.6287 40.642 57.3048C40.9008 58.0213 41.4656 58.8466 42.2016 59.5847C45.4999 62.8913 45.4999 68.2494 42.2016 71.556C39.9335 73.8301 36.6914 75.3388 33.1779 74.9345C14.4965 72.7836 0 56.8816 0 37.5907ZM29.0756 17.4409C27.6307 17.4409 26.4593 18.6123 26.4593 20.0572C26.4593 21.5021 27.6307 22.6734 29.0756 22.6734C30.5205 22.6734 31.6919 21.5021 31.6919 20.0572C31.6919 18.6123 30.5205 17.4409 29.0756 17.4409ZM21.2267 20.0572C21.2267 15.7224 24.7408 12.2084 29.0756 12.2084C33.4102 12.2084 36.9244 15.7224 36.9244 20.0572C36.9244 24.3919 33.4102 27.9059 29.0756 27.9059C24.7408 27.9059 21.2267 24.3919 21.2267 20.0572ZM46.2209 17.4417C44.776 17.4417 43.6047 18.6131 43.6047 20.058C43.6047 21.5029 44.776 22.6742 46.2209 22.6742C47.6658 22.6742 48.8372 21.5029 48.8372 20.058C48.8372 18.6131 47.6658 17.4417 46.2209 17.4417ZM38.3721 20.058C38.3721 15.7232 41.8863 12.2092 46.2209 12.2092C50.5556 12.2092 54.0698 15.7232 54.0698 20.058C54.0698 24.3927 50.5556 27.9067 46.2209 27.9067C41.8863 27.9067 38.3721 24.3927 38.3721 20.058ZM18.314 33.1393C16.869 33.1393 15.6977 34.3106 15.6977 35.7555C15.6977 37.2004 16.869 38.3718 18.314 38.3718C19.7589 38.3718 20.9302 37.2004 20.9302 35.7555C20.9302 34.3106 19.7589 33.1393 18.314 33.1393ZM10.4651 35.7555C10.4651 31.4209 13.9792 27.9067 18.314 27.9067C22.6487 27.9067 26.1628 31.4209 26.1628 35.7555C26.1628 40.0901 22.6487 43.6043 18.314 43.6043C13.9792 43.6043 10.4651 40.0901 10.4651 35.7555ZM56.686 33.1393C55.2412 33.1393 54.0698 34.3106 54.0698 35.7555C54.0698 37.2004 55.2412 38.3718 56.686 38.3718C58.1309 38.3718 59.3023 37.2004 59.3023 35.7555C59.3023 34.3106 58.1309 33.1393 56.686 33.1393ZM48.8372 35.7555C48.8372 31.4209 52.3514 27.9067 56.686 27.9067C61.0207 27.9067 64.5349 31.4209 64.5349 35.7555C64.5349 40.0901 61.0207 43.6043 56.686 43.6043C52.3514 43.6043 48.8372 40.0901 48.8372 35.7555Z" fill="#FFD5A4"/>
</svg>
