<svg width="332" height="372" viewBox="0 0 332 372" fill="none" xmlns="http://www.w3.org/2000/svg">
<path fill-rule="evenodd" clip-rule="evenodd" d="M234.86 355.502C287.051 355.502 329.36 313.193 329.36 261.002C329.36 208.811 287.051 166.502 234.86 166.502C182.669 166.502 140.36 208.811 140.36 261.002C140.36 313.193 182.669 355.502 234.86 355.502ZM234.86 357.502C288.156 357.502 331.36 314.297 331.36 261.002C331.36 207.706 288.156 164.502 234.86 164.502C181.565 164.502 138.36 207.706 138.36 261.002C138.36 314.297 181.565 357.502 234.86 357.502Z" fill="#333333"/>
<path fill-rule="evenodd" clip-rule="evenodd" d="M53.0363 123.582L2.72117 57.6354C81.6213 -11.4838 159.909 -8.14231 209.545 24.1323C259.274 56.4669 280.232 117.689 245.035 164.955C186.929 159.747 145.896 201.075 138.498 249.503H91.2651L82.456 161.412C117.475 158.32 139.902 149.417 152.159 138.91C158.354 133.6 161.985 127.848 163.274 122.203C164.565 116.542 163.482 111.064 160.381 106.387C154.198 97.0632 140.153 91.0982 121.287 92.6378C102.571 94.165 78.9627 103.068 53.0363 123.582ZM246.299 166.604C282.873 118.067 261.165 55.3104 210.636 22.4556C160.005 -10.4653 80.4206 -13.5192 0.698923 56.7499L0 57.366L0.56513 58.1067L52.0651 125.607L52.6854 126.42L53.4844 125.781C79.4936 105 103.029 96.1344 121.449 94.6312C139.911 93.1246 153.085 99.0038 158.714 107.493C161.519 111.722 162.491 116.642 161.324 121.758C160.153 126.888 156.812 132.288 150.858 137.392C138.936 147.612 116.676 156.515 81.2759 159.506L80.2641 159.592L80.3651 160.602L89.3651 250.602L89.4552 251.503H90.3602H139.36H140.226L140.35 250.645C147.285 202.595 187.871 161.555 245.406 166.998L245.963 167.051L246.299 166.604ZM164.36 369.503H83.3602V288.503H141.492C147.977 305.049 153.301 313.923 164.36 327.706V369.503ZM83.3602 286.503H142.86C149.583 303.9 154.836 312.699 166.36 327.002V369.503V371.503H164.36H83.3602H81.3602V369.503V288.503V286.503H83.3602Z" fill="#333333"/>
<path d="M227.382 313.502C242.968 313.502 253.683 306.403 259.528 292.205C268.113 316.851 305.511 315.96 319.615 302.442C326.793 295.562 325.747 288.547 326.36 285.237C322.681 305.095 291.654 313.405 282.232 298.258C279.538 293.928 278.186 287.49 278.186 278.979V214.64C276.088 212.548 273.24 211.502 269.643 211.502C266.047 211.502 262.975 212.66 260.427 214.977C257.879 217.293 256.605 220.693 256.605 225.176V259.476C256.605 274.122 253.867 285.484 248.4 293.55C242.934 301.617 236.823 305.656 230.079 305.656C221.088 305.656 216.592 296.756 216.592 278.979V214.64C214.494 212.548 211.721 211.502 208.274 211.502C204.828 211.502 201.976 212.664 199.732 214.977C197.488 217.289 196.36 220.693 196.36 225.176V280.996C196.36 291.458 199.211 299.495 204.902 305.095C210.593 310.696 218.091 313.502 227.382 313.502Z" fill="#333333"/>
</svg>
