<svg width="85" height="77" viewBox="0 0 85 77" fill="none" xmlns="http://www.w3.org/2000/svg">
<path fill-rule="evenodd" clip-rule="evenodd" d="M25.0984 8.83194C26.1533 3.65959 30.7616 0 36.0412 0H48.9588C54.2383 0 58.8465 3.65959 59.9017 8.83194C60.1452 10.026 61.2281 10.9019 62.3544 10.9019H62.4193L62.4841 10.9047C68.0324 11.147 72.2943 11.8271 75.8524 14.1584C78.094 15.6273 80.0222 17.5172 81.5249 19.7224C83.3945 22.4661 84.2188 25.6151 84.6141 29.4237C85 33.1447 85 37.809 85 43.7167V44.0527C85 49.9604 85 54.6246 84.6141 58.3455C84.2188 62.154 83.3945 65.3031 81.5249 68.0467C80.0222 70.252 78.094 72.1419 75.8524 73.6108C73.0711 75.4332 69.8827 76.2367 66.0154 76.6225C62.2291 77 57.4798 77 51.4483 77H33.5516C27.5202 77 22.7708 77 18.9845 76.6225C15.1173 76.2367 11.9289 75.4332 9.14778 73.6108C6.90603 72.1419 4.97764 70.252 3.47508 68.0467C1.60559 65.3031 0.781052 62.154 0.38594 58.3455C-7.82346e-05 54.6246 -3.87347e-05 49.9604 8.00143e-07 44.0527V43.7167C-3.87347e-05 37.809 -7.82346e-05 33.1447 0.38594 29.4237C0.781052 25.6151 1.60559 22.4661 3.47508 19.7224C4.97764 17.5172 6.90603 15.6273 9.14778 14.1584C12.7058 11.8271 16.9676 11.147 22.516 10.9047L22.5808 10.9019H22.6456C23.7719 10.9019 24.8549 10.026 25.0984 8.83194ZM36.0412 5.92308C33.5067 5.92308 31.3869 7.67232 30.9093 10.0142C30.1358 13.807 26.7691 16.7894 22.718 16.8246C17.3863 17.0612 14.5305 17.7154 12.4007 19.1109C10.8052 20.1563 9.43903 21.4972 8.37768 23.0549C7.28592 24.6572 6.62984 26.7062 6.28458 30.0341C5.93395 33.4144 5.93023 37.7719 5.93023 43.8845C5.93023 49.9975 5.93395 54.3549 6.28458 57.735C6.62984 61.063 7.28592 63.112 8.37768 64.7144C9.43903 66.2721 10.8052 67.6131 12.4007 68.6583C14.0514 69.7399 16.1636 70.3883 19.5739 70.7286C23.031 71.0734 27.4844 71.0769 33.7145 71.0769H51.2854C57.5157 71.0769 61.969 71.0734 65.4263 70.7286C68.8366 70.3883 70.9485 69.7399 72.5995 68.6583C74.1947 67.6131 75.561 66.2721 76.6222 64.7144C77.7141 63.112 78.37 61.063 78.7155 57.735C79.0662 54.3549 79.0698 49.9975 79.0698 43.8845C79.0698 37.7719 79.0662 33.4144 78.7155 30.0341C78.37 26.7062 77.7141 24.6572 76.6222 23.0549C75.561 21.4972 74.1947 20.1563 72.5995 19.1109C70.4693 17.7154 67.6137 17.0612 62.2821 16.8246C58.2309 16.7894 54.8641 13.807 54.0908 10.0142C53.6129 7.67232 51.4934 5.92308 48.9588 5.92308H36.0412ZM42.5 33.5641C37.5874 33.5641 33.6047 37.542 33.6047 42.4487C33.6047 47.3554 37.5874 51.3333 42.5 51.3333C47.4126 51.3333 51.3953 47.3554 51.3953 42.4487C51.3953 37.542 47.4126 33.5641 42.5 33.5641ZM27.6744 42.4487C27.6744 34.2705 34.312 27.641 42.5 27.641C50.6881 27.641 57.3256 34.2705 57.3256 42.4487C57.3256 50.6269 50.6881 57.2564 42.5 57.2564C34.312 57.2564 27.6744 50.6269 27.6744 42.4487ZM63.2558 30.6026C63.2558 28.967 64.5834 27.641 66.2209 27.641H70.1744C71.812 27.641 73.1395 28.967 73.1395 30.6026C73.1395 32.2381 71.812 33.5641 70.1744 33.5641H66.2209C64.5834 33.5641 63.2558 32.2381 63.2558 30.6026Z" fill="#3E3E3E"/>
</svg>
