<svg width="80" height="81" viewBox="0 0 80 81" fill="none" xmlns="http://www.w3.org/2000/svg">
<path fill-rule="evenodd" clip-rule="evenodd" d="M36.3747 22.1752C32.7714 20.8474 29.7743 19.7432 27.4367 19.2471C25.1048 18.7522 22.3732 18.6247 20.3323 20.6656C18.2913 22.7066 18.4189 25.4381 18.9138 27.77C19.4098 30.1076 20.5141 33.1047 21.8418 36.708L26.6592 49.7837C27.3003 51.5248 27.8858 53.1147 28.5284 54.2902C29.2166 55.5493 30.307 56.9715 32.2499 57.3979C34.1927 57.8247 35.7786 56.9904 36.9314 56.1357C38.0074 55.3376 39.2052 54.1395 40.5168 52.8275L41.4791 51.8652L48.7174 59.1036C49.1461 59.5318 49.5606 59.9463 49.9367 60.2745C50.3472 60.6329 50.8603 61.0232 51.5215 61.297C52.9105 61.8727 54.4715 61.8727 55.8605 61.297C56.5217 61.0232 57.0348 60.6329 57.4452 60.2745C57.8214 59.9463 58.2359 59.5318 58.6646 59.1036L58.7702 58.9979C59.1985 58.5696 59.613 58.1547 59.9412 57.7789C60.2995 57.3681 60.6899 56.855 60.9637 56.1938C61.5394 54.8048 61.5394 53.2438 60.9637 51.8548C60.6899 51.1936 60.2992 50.6805 59.9412 50.2701C59.613 49.8939 59.1985 49.4794 58.7702 49.0507L51.5319 41.8124L52.4941 40.8502C53.8061 39.5385 55.0043 38.3408 55.8024 37.2647C56.6571 36.1123 57.4914 34.5261 57.0646 32.5833C56.6381 30.6403 55.216 29.55 53.9568 28.8618C52.7814 28.2192 51.1914 27.6336 49.4504 26.9925L36.3747 22.1752ZM24.2042 24.849C24.2332 24.6319 24.2789 24.6122 24.2789 24.6122C24.2789 24.6122 24.2986 24.5666 24.5157 24.5375C24.8138 24.4976 25.3529 24.5105 26.278 24.7069C28.1714 25.1087 30.7854 26.0641 34.6642 27.4931L47.3366 32.162C49.3235 32.8941 50.5124 33.3398 51.28 33.7592C51.3239 33.7834 51.3641 33.8061 51.4006 33.8273C51.3764 33.8619 51.3492 33.8995 51.3194 33.9396C50.7985 34.6422 49.9059 35.5452 48.4086 37.0425L45.6119 39.8392C44.522 40.929 44.522 42.6961 45.6119 43.786L54.7706 52.9447C55.2718 53.4459 55.5479 53.7238 55.7351 53.9389C55.7656 53.9739 55.7894 54.0022 55.8073 54.0245C55.7894 54.0464 55.7656 54.0751 55.7351 54.1097C55.5479 54.3248 55.2718 54.6027 54.7706 55.1039C54.2694 55.6051 53.9914 55.8812 53.7764 56.0684C53.7585 56.0844 53.7421 56.0982 53.7273 56.1104C53.7139 56.122 53.7016 56.132 53.6912 56.1406C53.6688 56.1227 53.6406 56.0989 53.6056 56.0684C53.3905 55.8812 53.1126 55.6051 52.6114 55.1039L43.4527 45.9452C42.3628 44.8554 40.5957 44.8554 39.5059 45.9452L36.7092 48.7419C35.2119 50.2392 34.3088 51.1318 33.6063 51.6528C33.5661 51.6825 33.5286 51.7097 33.494 51.7339C33.4727 51.6974 33.4501 51.6572 33.4259 51.6133C33.0065 50.8457 32.5607 49.6569 31.8286 47.6703L27.1598 34.9975C25.7308 31.1187 24.7754 28.5047 24.3735 26.6113C24.1772 25.6862 24.1642 25.1471 24.2042 24.849Z" fill="#FFD5A4"/>
<path fill-rule="evenodd" clip-rule="evenodd" d="M40.2136 0.333252H39.7864C31.1972 0.333215 24.4658 0.333178 19.2138 1.0393C13.838 1.76205 9.59609 3.27029 6.26657 6.59982C2.93704 9.92935 1.4288 14.1713 0.706047 19.5471C-7.40207e-05 24.7991 -3.66691e-05 31.5304 5.40227e-07 40.1197V40.5468C-3.66691e-05 49.1362 -7.40207e-05 55.8674 0.706047 61.1195C1.4288 66.4951 2.93704 70.7374 6.26657 74.0668C9.59609 77.3963 13.838 78.9044 19.2138 79.6274C24.4658 80.3333 31.1971 80.3333 39.7864 80.3333H40.2136C48.803 80.3333 55.5341 80.3333 60.7862 79.6274C66.1619 78.9044 70.4041 77.3963 73.7336 74.0668C77.0631 70.7374 78.5712 66.4951 79.2941 61.1195C80 55.8674 80 49.1362 80 40.5468V40.1197C80 31.5304 80 24.7991 79.2941 19.5471C78.5712 14.1713 77.0631 9.92935 73.7336 6.59982C70.4041 3.27029 66.1619 1.76205 60.7862 1.0393C55.5341 0.333178 48.803 0.333215 40.2136 0.333252ZM10.2132 10.5465C12.3328 8.4268 15.2006 7.21046 19.9575 6.57091C24.7946 5.92056 31.1508 5.91465 40 5.91465C48.8491 5.91465 55.2052 5.92056 60.0424 6.57091C64.7993 7.21046 67.667 8.4268 69.7868 10.5465C71.9066 12.6661 73.123 15.5339 73.7622 20.2908C74.4127 25.1279 74.4186 31.484 74.4186 40.3333C74.4186 49.1824 74.4127 55.5385 73.7622 60.3757C73.123 65.1325 71.9066 68.0002 69.7868 70.12C67.667 72.2399 64.7993 73.4562 60.0424 74.0955C55.2052 74.7459 48.8491 74.7519 40 74.7519C31.1508 74.7519 24.7946 74.7459 19.9575 74.0955C15.2006 73.4562 12.3328 72.2399 10.2132 70.12C8.09355 68.0002 6.87721 65.1325 6.23766 60.3757C5.58731 55.5385 5.5814 49.1824 5.5814 40.3333C5.5814 31.484 5.58731 25.1279 6.23766 20.2908C6.87721 15.5339 8.09355 12.6661 10.2132 10.5465Z" fill="#FFD5A4"/>
</svg>
