<svg width="76" height="84" viewBox="0 0 76 84" fill="none" xmlns="http://www.w3.org/2000/svg">
<path d="M28.9347 48.9804L35.2135 53.8554C36.0325 54.6743 37.8654 55.0639 39.0744 55.0639H46.7963C49.2143 55.0639 51.8662 53.2314 52.4902 50.8134L57.3651 36.0322C58.3791 33.1854 56.5461 30.7676 53.5042 30.7676H45.3923C44.1833 30.7676 43.1694 29.7536 43.3644 28.3496L44.3783 21.8756C44.7683 20.0426 43.5594 18.0146 41.7264 17.4296C40.0884 16.8056 38.0604 17.6245 37.2805 18.8335L28.9737 31.1965" stroke="#FFD5A4" stroke-width="5" stroke-miterlimit="10"/>
<path d="M18.5998 48.9803V29.1295C18.5998 26.2825 19.8087 25.2686 22.6557 25.2686H24.6837C27.5306 25.2686 28.7396 26.2825 28.7396 29.1295V48.9803C28.7396 51.8272 27.5306 52.8412 24.6837 52.8412H22.6557C19.8087 52.8412 18.5998 51.8272 18.5998 48.9803Z" stroke="#FFD5A4" stroke-width="5" stroke-linecap="round" stroke-linejoin="round"/>
<path d="M61.4991 68.7139H58.5351C55.4152 68.7139 52.4512 69.9229 50.2672 72.1068L43.5984 78.6977C40.5564 81.7007 35.6035 81.7007 32.5615 78.6977L25.8926 72.1068C23.7087 69.9229 20.7057 68.7139 17.6248 68.7139H14.6998C8.22592 68.7139 3 63.527 3 57.1311V14.5827C3 8.1868 8.22592 3 14.6998 3H61.4991C67.973 3 73.1989 8.1868 73.1989 14.5827V57.1311C73.1989 63.488 67.973 68.7139 61.4991 68.7139Z" stroke="#FFD5A4" stroke-width="5" stroke-miterlimit="10" stroke-linecap="round" stroke-linejoin="round"/>
</svg>
