<svg width="78" height="78" viewBox="0 0 78 78" fill="none" xmlns="http://www.w3.org/2000/svg">
<path fill-rule="evenodd" clip-rule="evenodd" d="M31.5142 1.64286e-06H51.781C55.9069 -3.46071e-05 59.1763 -3.44492e-05 61.8081 0.223809C64.5 0.452764 66.7729 0.930684 68.8355 2.03316C71.8392 3.63852 74.2991 6.09848 75.9042 9.10191C77.007 11.1645 77.4847 13.4376 77.7138 16.1295C77.9375 18.7611 77.9375 22.0306 77.9375 26.1563V26.2813C77.9375 27.7828 76.7202 29 75.2188 29C73.7173 29 72.5 27.7828 72.5 26.2813C72.5 22.003 72.4978 18.9646 72.2959 16.5904C72.0965 14.2499 71.7184 12.8057 71.1087 11.6651C70.0103 9.61013 68.3273 7.92704 66.2722 6.82863C65.1318 6.21894 63.6876 5.84082 61.3473 5.64173C58.973 5.43979 55.9345 5.4375 51.6563 5.4375H31.7188C24.8065 5.4375 19.8958 5.44327 16.1706 5.94413C12.5235 6.43445 10.4223 7.354 8.88814 8.88814C7.354 10.4223 6.43449 12.5235 5.94413 16.1706C5.44327 19.8958 5.4375 24.8065 5.4375 31.7188V35.3438C5.4375 37.0076 5.43808 38.5106 5.45095 39.875H35.3438C36.8452 39.875 38.0625 41.0923 38.0625 42.5938C38.0625 44.0952 36.8452 45.3125 35.3438 45.3125H5.64315C5.6885 45.8791 5.74385 46.412 5.81142 46.9144C6.16903 49.5744 6.82316 50.9827 7.82641 51.9861C8.82967 52.9895 10.2383 53.6435 12.8982 54.0013C15.6363 54.3692 19.2654 54.375 24.4688 54.375H35.3438C36.8452 54.375 38.0625 55.5923 38.0625 57.0938V75.2188C38.0625 76.7202 36.8452 77.9375 35.3438 77.9375H24.4688C22.9672 77.9375 21.75 76.7202 21.75 75.2188C21.75 73.7173 22.9672 72.5 24.4688 72.5H32.625V59.8125H24.2698C19.3123 59.8125 15.3164 59.8125 12.1737 59.3902C8.91076 58.9516 6.16348 58.013 3.98152 55.8312C1.79956 53.6489 0.861085 50.9019 0.422387 47.639C0.246683 46.3318 0.14406 44.8771 0.0841021 43.2673C0.0291834 43.0519 1.99125e-06 42.8261 1.99125e-06 42.5938C1.99125e-06 42.419 0.0164594 42.2483 0.0479606 42.0826C-7.06302e-05 40.1201 -3.42588e-05 37.9443 1.99125e-06 35.5428V31.5142C-7.05088e-05 24.8523 -0.000106953 19.5757 0.555134 15.4461C1.12651 11.196 2.33044 7.75609 5.04325 5.04325C7.75609 2.33044 11.196 1.12651 15.4461 0.555134C19.5757 -0.000107331 24.8524 -7.08571e-05 31.5142 1.64286e-06ZM60.5303 32.625H60.9072C64.1643 32.625 66.8802 32.6246 69.0363 32.9146C71.3121 33.2206 73.3667 33.8937 75.0176 35.5449C76.6687 37.1958 77.3419 39.2504 77.6479 41.5262C77.9379 43.6823 77.9375 46.3982 77.9375 49.6553V60.9072C77.9375 64.1643 77.9379 66.8802 77.6479 69.0363C77.3419 71.3121 76.6687 73.3667 75.0176 75.0176C73.3667 76.6687 71.3121 77.3419 69.0363 77.6479C66.8802 77.9379 64.1643 77.9375 60.9072 77.9375H60.5303C57.2732 77.9375 54.5573 77.9379 52.4012 77.6479C50.1254 77.3419 48.0708 76.6687 46.4199 75.0176C44.7688 73.3667 44.0956 71.3121 43.7896 69.0363C43.4996 66.8802 43.5 64.1643 43.5 60.9072V49.6553C43.5 46.3982 43.4996 43.6823 43.7896 41.5262C44.0956 39.2504 44.7688 37.1958 46.4199 35.5449C48.0708 33.8937 50.1254 33.2206 52.4012 32.9146C54.5573 32.6246 57.2732 32.625 60.5303 32.625ZM53.1258 38.3036C51.4529 38.5287 50.737 38.9173 50.2646 39.3896C49.7923 39.8619 49.4037 40.5779 49.1786 42.2508C48.9433 44.0017 48.9375 46.3493 48.9375 49.8438V60.7188C48.9375 64.2132 48.9433 66.5608 49.1786 68.3117C49.4037 69.9846 49.7923 70.7005 50.2646 71.1729C50.737 71.6452 51.4529 72.0338 53.1258 72.2589C54.8767 72.4942 57.2243 72.5 60.7188 72.5C64.2132 72.5 66.5608 72.4942 68.3117 72.2589C69.9846 72.0338 70.7005 71.6452 71.1729 71.1729C71.6452 70.7005 72.0338 69.9846 72.2589 68.3117C72.4942 66.5608 72.5 64.2132 72.5 60.7188V49.8438C72.5 46.3493 72.4942 44.0017 72.2589 42.2508C72.0338 40.5779 71.6452 39.8619 71.1729 39.3896C70.7005 38.9173 69.9846 38.5287 68.3117 38.3036C66.5608 38.0683 64.2132 38.0625 60.7188 38.0625C57.2243 38.0625 54.8767 38.0683 53.1258 38.3036ZM54.375 67.9688C54.375 66.4673 55.5923 65.25 57.0938 65.25H64.3438C65.8452 65.25 67.0625 66.4673 67.0625 67.9688C67.0625 69.4702 65.8452 70.6875 64.3438 70.6875H57.0938C55.5923 70.6875 54.375 69.4702 54.375 67.9688Z" fill="#FFD5A4"/>
</svg>
