<svg width="188" height="91" viewBox="0 0 188 91" fill="none" xmlns="http://www.w3.org/2000/svg">
<path d="M75.481 28.8118C76.3358 28.8118 76.7632 30.0704 76.7632 32.5875C76.7632 36.6245 75.8965 39.854 74.1633 42.2762C72.43 44.6983 69.9012 45.9094 66.5772 45.9094C63.2531 45.9094 60.7007 44.7696 58.9199 42.49C57.1392 40.2102 56.2488 36.9806 56.2488 32.8013V24.4662C56.2488 18.8144 54.8241 15.9887 51.975 15.9887C49.4581 15.9887 47.3924 17.2709 45.7778 19.8356C44.1633 22.4002 43.3561 26.6984 43.3561 32.7301V44.9122C42.8812 45.577 42.0501 45.9094 40.8629 45.9094C39.6757 45.9094 38.726 45.5414 38.0137 44.8052C37.4623 44.2353 37.1244 43.459 36.9998 42.4763C35.278 44.7638 32.8923 45.9094 29.8458 45.9094C24.8596 45.9094 21.583 43.6535 20.0159 39.1417C18.1639 43.6535 14.7686 45.9094 9.82992 45.9094C6.88578 45.9094 4.51012 45.0177 2.7069 43.2379C0.903515 41.4581 0.00012207 38.9042 0.00012207 35.5796V17.8408C0.00012207 16.416 0.357532 15.3344 1.06855 14.5994C1.77964 13.8645 2.6832 13.4952 3.77532 13.4952C4.86753 13.4952 5.74609 13.8276 6.41091 14.4925V34.9384C6.41091 40.5877 7.83545 43.416 10.6847 43.416C12.8216 43.416 14.7579 42.1325 16.49 39.5691C18.2221 37.0057 19.0899 33.395 19.0899 28.7406V17.8408C19.0899 16.416 19.4935 15.3356 20.3008 14.5994C21.1081 13.8633 22.0816 13.4952 23.2213 13.4952C24.361 13.4952 25.2632 13.8276 25.9281 14.4925V34.9384C25.9281 37.6431 26.3566 39.689 27.2102 41.0651C28.0638 42.4412 29.2284 43.131 30.7005 43.131C32.1726 43.131 33.6068 42.2817 34.9743 40.5664C35.9088 39.3943 36.5561 37.6411 36.9453 35.3119V14.4925C37.4201 13.8276 38.3224 13.4952 39.652 13.4952C42.1214 13.4952 43.3561 15.2762 43.3561 18.8382C45.3504 15.2762 48.5083 13.4952 52.8297 13.4952C55.9163 13.4952 58.3738 14.4688 60.2021 16.416C62.0303 18.3633 62.9445 21.1653 62.9445 24.8224V34.9384C62.9445 37.6455 63.3718 39.6878 64.2265 41.0651C65.0814 42.4424 66.3517 43.131 68.0374 43.131C69.7233 43.131 71.2072 42.0744 72.4893 39.9609C73.7715 37.8474 74.4126 34.2736 74.4126 29.2392C74.46 28.9543 74.8162 28.8118 75.481 28.8118ZM74.4908 7.90415C73.6835 7.09684 73.2799 6.09931 73.2799 4.91205C73.2799 3.7247 73.6835 2.71536 74.4908 1.88427C75.298 1.05325 76.2954 0.637695 77.4825 0.637695C78.6696 0.637695 79.6788 1.05325 80.5098 1.88427C81.3408 2.71536 81.7563 3.7247 81.7563 4.91205C81.7563 6.09931 81.3408 7.09684 80.5098 7.90415C79.6788 8.71146 78.6696 9.1152 77.4825 9.1152C76.2954 9.1152 75.298 8.71146 74.4908 7.90415ZM74.2058 17.8408C74.2058 16.416 74.562 15.3356 75.2743 14.5994C75.9866 13.8633 76.8889 13.4952 77.9811 13.4952C79.0733 13.4952 79.9518 13.8276 80.6166 14.4925V34.9384C80.6166 37.6455 81.139 39.6878 82.1837 41.0651C83.2284 42.4424 84.653 43.131 86.4576 43.131C88.262 43.131 89.9479 42.0387 91.5149 39.854C93.082 37.6693 93.8656 34.1311 93.8656 29.2392C93.9606 28.9543 94.3167 28.8118 94.934 28.8118C95.7887 28.8118 96.2162 30.0704 96.2162 32.5875C96.2162 36.2445 95.2189 39.3791 93.2245 41.9913C91.23 44.6033 88.6895 45.9094 85.6028 45.9094C81.7563 45.9094 78.8952 44.7696 77.0195 42.49C75.1438 40.2102 74.2058 36.9806 74.2058 32.8013V17.8408ZM120.442 53.3524C120.442 54.7756 120.085 55.8581 119.373 56.5938C118.661 57.3296 117.758 57.698 116.666 57.698C115.574 57.698 114.696 57.3656 114.031 56.7006V40.9938C112.036 44.271 109.282 45.9094 105.768 45.9094C97.4578 45.9094 93.3027 40.4715 93.3027 29.5955C93.3027 24.0862 94.5967 20.0255 97.1848 17.4134C99.7729 14.8012 103.204 13.4952 107.478 13.4952C110.754 13.4952 113.081 14.1838 114.458 15.5611C115.076 14.1838 116.061 13.4952 117.414 13.4952C118.768 13.4952 119.777 13.8276 120.442 14.4925V53.3524ZM101.067 38.3579C101.732 40.4478 102.491 41.7656 103.346 42.3118C104.201 42.858 105.412 43.131 106.979 43.131C108.546 43.131 110.113 42.0862 111.68 39.9965C113.247 37.9068 114.031 34.5823 114.031 30.0228V25.7485C114.031 22.3764 113.461 19.9543 112.321 18.482C111.182 17.0097 109.864 16.2736 108.368 16.2736C106.872 16.2736 105.697 16.416 104.842 16.701C103.987 16.986 103.18 17.5797 102.42 18.482C100.853 20.1918 100.07 23.8962 100.07 29.5955C100.07 33.3474 100.402 36.2683 101.067 38.3579ZM145.582 17.8408C145.582 16.416 145.986 15.3356 146.793 14.5994C147.6 13.8633 148.574 13.4952 149.713 13.4952C150.853 13.4952 151.755 13.8276 152.42 14.4925V34.9384C152.42 37.6431 152.849 39.689 153.702 41.0651C154.556 42.4412 155.72 43.131 157.193 43.131C158.665 43.131 160.099 42.2817 161.466 40.5664C163.088 38.5321 163.845 34.748 163.888 29.2392C163.89 28.9526 164.292 28.8118 164.957 28.8118C165.811 28.8118 166.239 30.0704 166.239 32.5875C166.239 36.6245 165.371 39.8553 163.639 42.2762C161.907 44.6971 159.472 45.9094 156.338 45.9094C151.352 45.9094 148.075 43.6535 146.508 39.1417C144.656 43.6535 141.261 45.9094 136.322 45.9094C133.378 45.9094 131.002 45.0177 129.199 43.2379C127.396 41.4581 126.492 38.9042 126.492 35.5796V17.8408C126.492 16.416 126.85 15.3344 127.561 14.5994C128.272 13.8645 129.175 13.4952 130.267 13.4952C131.36 13.4952 132.238 13.8276 132.903 14.4925V34.9384C132.903 40.5877 134.327 43.416 137.177 43.416C139.314 43.416 141.25 42.1325 142.982 39.5691C144.714 37.0057 145.582 33.395 145.582 28.7406V17.8408ZM187.554 35.7107C186.945 46.1395 174.353 48.8828 168.025 42.8047C165.116 40.0102 163.468 35.259 163.468 30.0585C163.468 24.8579 164.799 20.7961 167.457 17.8764C170.115 14.9568 173.511 13.4952 177.643 13.4952C180.634 13.4952 182.82 14.2919 184.196 15.8817C185.572 17.4716 186.262 19.3606 186.262 21.5453C186.262 25.1074 184.776 28.065 181.81 30.4147C178.843 32.7644 175.055 33.9411 170.449 33.9411C170.876 36.9806 171.609 39.6709 173.545 41.0135C179.103 44.8685 185.46 40.6064 185.767 33.4434C185.847 31.5875 187.731 32.6837 187.554 35.7107ZM170.235 30.664V31.3052C173.179 30.9252 175.731 29.9991 177.892 28.5268C180.053 27.0546 181.133 24.8698 181.133 21.9728C181.133 20.1205 180.728 18.7063 179.922 17.734C179.116 16.7615 177.975 16.2736 176.503 16.2736C174.271 16.2736 172.668 17.366 171.695 19.5506C170.722 21.7352 170.235 25.4422 170.235 30.664Z" fill="white"/>
<path fill-rule="evenodd" clip-rule="evenodd" d="M8.08984 66.7881H179.476C183.926 66.7881 187.566 70.429 187.566 74.879V82.1446C187.566 86.5946 183.926 90.2356 179.476 90.2356H8.08984C3.64043 90.2356 0 86.5946 0 82.1446V74.879C0 70.429 3.64043 66.7881 8.08984 66.7881ZM14.3303 83.0499V73.9736H17.1695C18.0727 73.9736 18.87 74.166 19.5615 74.5528C20.2529 74.9418 20.7931 75.4756 21.1863 76.1584C21.5753 76.8413 21.7718 77.6279 21.7718 78.5183C21.7718 79.1796 21.6595 79.789 21.4391 80.3422C21.2144 80.8997 20.899 81.3773 20.4884 81.7793C20.0778 82.1812 19.5917 82.4924 19.0299 82.715C18.4681 82.9376 17.848 83.0499 17.1695 83.0499H14.3303ZM15.7823 81.695H16.9945C17.4828 81.695 17.9279 81.6215 18.3277 81.4767C18.7274 81.3341 19.071 81.1223 19.3583 80.8456C19.6457 80.5691 19.8661 80.2341 20.0217 79.8429C20.1773 79.454 20.255 79.011 20.255 78.5183C20.255 77.857 20.1189 77.2865 19.851 76.8089C19.5809 76.3334 19.2006 75.9661 18.7123 75.7068C18.224 75.4518 17.6514 75.3221 16.9945 75.3221H15.7823V81.695ZM28.1098 83.0499L28.1034 73.9736H29.5554V83.0499H28.1098ZM40.9625 83.2444C40.2408 83.2444 39.5731 83.1342 38.9595 82.9138C38.3458 82.6934 37.81 82.3757 37.3497 81.9629C36.8895 81.5523 36.5308 81.0553 36.2759 80.4761C36.0209 79.897 35.8934 79.2466 35.8934 78.5248C35.8934 77.8073 36.0166 77.1568 36.2629 76.5755C36.5092 75.9964 36.8549 75.4971 37.2979 75.0779C37.7409 74.663 38.2616 74.341 38.8601 74.1163C39.4565 73.8915 40.1112 73.7791 40.8199 73.7791C41.1483 73.7791 41.481 73.805 41.8181 73.8569C42.1552 73.9088 42.4858 73.9931 42.8142 74.1119C43.1384 74.2329 43.4495 74.3928 43.7434 74.596L43.1081 75.7371C42.7797 75.5296 42.4232 75.3739 42.0429 75.2702C41.6604 75.1665 41.265 75.1146 40.8588 75.1146C40.3316 75.1146 39.854 75.1946 39.4262 75.3502C38.9983 75.5101 38.6333 75.737 38.3307 76.0309C38.0282 76.327 37.797 76.6857 37.635 77.105C37.4707 77.5242 37.3908 77.9953 37.3908 78.5183C37.3908 79.253 37.5464 79.8776 37.8575 80.3919C38.1687 80.9062 38.5986 81.2974 39.1453 81.561C39.6898 81.8268 40.3208 81.9607 41.0338 81.9607C41.3839 81.9607 41.6993 81.9262 41.9802 81.8592C42.2611 81.7922 42.488 81.7166 42.6609 81.6301V79.4389H40.5995V78.233H43.9638V82.473C43.726 82.6329 43.4279 82.7711 43.0735 82.8879C42.7149 83.0046 42.3475 83.0931 41.9716 83.1537C41.5934 83.2142 41.2564 83.2444 40.9625 83.2444ZM50.736 83.0499L50.7296 73.9736H52.1816V83.0499H50.736ZM60.8078 83.0499V75.3026H58.2539V73.9736H64.8138V75.3026H62.2599V83.0499H60.8078ZM69.2526 83.0499L72.7789 73.9736H74.3541L77.9712 83.0499H76.3312L75.495 80.8846H71.651L70.8472 83.0499H69.2526ZM72.027 79.6334H75.106L73.5373 75.6786L72.027 79.6334ZM83.8296 83.0499L83.8231 73.9736H85.2751V81.7145L89.2293 81.7209V83.0499H83.8296ZM97.5444 83.0499L101.071 73.9736H102.646L106.263 83.0499H104.623L103.787 80.8846H99.9428L99.139 83.0499H97.5444ZM100.319 79.6334H103.398L101.829 75.6786L100.319 79.6334ZM116.361 83.2444C115.639 83.2444 114.971 83.1342 114.358 82.9138C113.744 82.6934 113.208 82.3757 112.748 81.9629C112.288 81.5523 111.929 81.0553 111.674 80.4761C111.419 79.897 111.292 79.2466 111.292 78.5248C111.292 77.8073 111.415 77.1568 111.661 76.5755C111.907 75.9964 112.253 75.4971 112.696 75.0779C113.139 74.663 113.66 74.341 114.258 74.1163C114.855 73.8915 115.509 73.7791 116.218 73.7791C116.546 73.7791 116.879 73.805 117.216 73.8569C117.553 73.9088 117.884 73.9931 118.212 74.1119C118.537 74.2329 118.848 74.3928 119.142 74.596L118.506 75.7371C118.178 75.5296 117.821 75.3739 117.441 75.2702C117.059 75.1665 116.663 75.1146 116.257 75.1146C115.73 75.1146 115.252 75.1946 114.824 75.3502C114.397 75.5101 114.031 75.737 113.729 76.0309C113.426 76.327 113.195 76.6857 113.033 77.105C112.869 77.5242 112.789 77.9953 112.789 78.5183C112.789 79.253 112.945 79.8776 113.256 80.3919C113.567 80.9062 113.997 81.2974 114.544 81.561C115.088 81.8268 115.719 81.9607 116.432 81.9607C116.782 81.9607 117.097 81.9262 117.378 81.8592C117.659 81.7922 117.886 81.7166 118.059 81.6301V79.4389H115.998V78.233H119.362V82.473C119.124 82.6329 118.826 82.7711 118.472 82.8879C118.113 83.0046 117.746 83.0931 117.37 83.1537C116.992 83.2142 116.655 83.2444 116.361 83.2444ZM126.134 83.0499L126.128 73.9736H131.988L131.994 75.2573H127.58V77.7079L131.385 77.7144L131.391 78.9202H127.58V81.7533L132.033 81.7598V83.0499H126.134ZM138.604 83.0499L138.611 73.9736H139.992L144.575 80.5669V73.9736H145.988V83.0499H144.601L140.024 76.3788V83.0499H138.604ZM157.025 83.2444C156.083 83.2444 155.26 83.0499 154.556 82.6609C153.851 82.272 153.302 81.7209 152.914 81.0099C152.522 80.2989 152.326 79.4691 152.326 78.5183C152.326 77.8268 152.442 77.1914 152.674 76.6144C152.905 76.0396 153.231 75.5382 153.653 75.1146C154.074 74.6911 154.571 74.3626 155.146 74.1292C155.72 73.8958 156.351 73.7791 157.038 73.7791C157.73 73.7791 158.328 73.8655 158.832 74.0384C159.333 74.2113 159.774 74.4577 160.15 74.7775L159.398 75.9639C159.113 75.7003 158.78 75.5036 158.4 75.3739C158.019 75.2443 157.6 75.1795 157.142 75.1795C156.636 75.1795 156.181 75.2573 155.774 75.4128C155.368 75.5684 155.02 75.791 154.735 76.0763C154.448 76.3637 154.227 76.7117 154.074 77.1201C153.918 77.5285 153.843 77.9909 153.843 78.5053C153.843 79.2055 153.981 79.8041 154.255 80.3011C154.53 80.7982 154.919 81.1785 155.422 81.4378C155.923 81.6993 156.52 81.8311 157.207 81.8311C157.665 81.8311 158.108 81.762 158.534 81.6259C158.957 81.4897 159.357 81.2693 159.728 80.9624L160.403 82.1877C159.966 82.5291 159.467 82.7906 158.91 82.9721C158.35 83.1537 157.721 83.2444 157.025 83.2444ZM168.575 83.0499V79.1277L165.373 73.9736H167.032L169.334 77.7273L171.622 73.9736H173.236L170.034 79.1407V83.0499H168.575Z" fill="white"/>
</svg>
