<svg width="154" height="46" viewBox="0 0 154 46" fill="none" xmlns="http://www.w3.org/2000/svg">
<path d="M61.7048 22.713C62.4037 22.713 62.7531 23.7276 62.7531 25.7568C62.7531 29.0113 62.0446 31.6148 60.6277 33.5675C59.2107 35.5201 57.1435 36.4965 54.4261 36.4965C51.7087 36.4965 49.6221 35.5776 48.1664 33.7398C46.7106 31.902 45.9828 29.2984 45.9828 25.9291V19.2097C45.9828 14.6534 44.8181 12.3754 42.4889 12.3754C40.4314 12.3754 38.7427 13.4091 37.4228 15.4767C36.103 17.5442 35.4431 21.0092 35.4431 25.8717V35.6925C35.0548 36.2285 34.3755 36.4965 33.4049 36.4965C32.4344 36.4965 31.658 36.1998 31.0757 35.6063C30.625 35.1468 30.3487 34.521 30.2469 33.7288C28.8393 35.5729 26.889 36.4965 24.3985 36.4965C20.3224 36.4965 17.6438 34.6778 16.3627 31.0406C14.8487 34.6778 12.0731 36.4965 8.03576 36.4965C5.62896 36.4965 3.68688 35.7776 2.21277 34.3428C0.738515 32.908 0 30.8491 0 28.1689V13.8685C0 12.7199 0.292179 11.8479 0.873427 11.2554C1.45474 10.663 2.19339 10.3653 3.08619 10.3653C3.97906 10.3653 4.69727 10.6332 5.24076 11.1693V27.652C5.24076 32.2063 6.4053 34.4863 8.73453 34.4863C10.4815 34.4863 12.0644 33.4517 13.4803 31.3851C14.8963 29.3186 15.6057 26.4078 15.6057 22.6556V13.8685C15.6057 12.7199 15.9357 11.8489 16.5956 11.2554C17.2556 10.662 18.0514 10.3653 18.9831 10.3653C19.9147 10.3653 20.6523 10.6332 21.1959 11.1693V27.652C21.1959 29.8325 21.5462 31.4818 22.244 32.5911C22.9418 33.7005 23.8938 34.2566 25.0972 34.2566C26.3007 34.2566 27.4732 33.5719 28.5911 32.1892C29.355 31.2442 29.8842 29.8308 30.2023 27.9531V11.1693C30.5905 10.6332 31.3281 10.3653 32.4151 10.3653C34.4337 10.3653 35.4431 11.801 35.4431 14.6726C37.0734 11.801 39.655 10.3653 43.1877 10.3653C45.711 10.3653 47.7199 11.1501 49.2145 12.7199C50.7091 14.2897 51.4564 16.5486 51.4564 19.4969V27.652C51.4564 29.8344 51.8058 31.4808 52.5045 32.5911C53.2033 33.7015 54.2417 34.2566 55.6198 34.2566C56.998 34.2566 58.2111 33.4048 59.2592 31.701C60.3074 29.9972 60.8315 27.1161 60.8315 23.0576C60.8702 22.8278 61.1614 22.713 61.7048 22.713ZM60.8954 5.85795C60.2355 5.20713 59.9055 4.40296 59.9055 3.44583C59.9055 2.48864 60.2355 1.67494 60.8954 1.00494C61.5553 0.335 62.3706 0 63.3411 0C64.3116 0 65.1366 0.335 65.8159 1.00494C66.4952 1.67494 66.8349 2.48864 66.8349 3.44583C66.8349 4.40296 66.4952 5.20713 65.8159 5.85795C65.1366 6.50878 64.3116 6.83426 63.3411 6.83426C62.3706 6.83426 61.5553 6.50878 60.8954 5.85795ZM60.6624 13.8685C60.6624 12.7199 60.9536 11.8489 61.5359 11.2554C62.1182 10.662 62.8558 10.3653 63.7487 10.3653C64.6416 10.3653 65.3597 10.6332 65.9032 11.1693V27.652C65.9032 29.8344 66.3302 31.4808 67.1843 32.5911C68.0383 33.7015 69.2029 34.2566 70.6781 34.2566C72.1532 34.2566 73.5314 33.3761 74.8125 31.6148C76.0935 29.8536 76.7341 27.0012 76.7341 23.0576C76.8117 22.8278 77.1029 22.713 77.6075 22.713C78.3062 22.713 78.6557 23.7276 78.6557 25.7568C78.6557 28.705 77.8404 31.232 76.21 33.3378C74.5795 35.4435 72.5027 36.4965 69.9793 36.4965C66.8349 36.4965 64.4959 35.5776 62.9626 33.7398C61.4292 31.902 60.6624 29.2984 60.6624 25.9291V13.8685ZM98.4597 42.4967C98.4597 43.6441 98.1683 44.5168 97.5863 45.1099C97.0043 45.703 96.2663 46 95.3735 46C94.4807 46 93.7625 45.732 93.219 45.196V32.5337C91.5886 35.1756 89.3369 36.4965 86.4643 36.4965C79.6707 36.4965 76.2739 32.1126 76.2739 23.3448C76.2739 18.9034 77.3318 15.6298 79.4476 13.524C81.5632 11.4182 84.368 10.3653 87.8618 10.3653C90.5404 10.3653 92.4426 10.9204 93.5684 12.0308C94.0731 10.9204 94.8786 10.3653 95.9849 10.3653C97.0913 10.3653 97.9162 10.6332 98.4597 11.1693V42.4967ZM82.6211 30.4087C83.1645 32.0935 83.7857 33.1559 84.4844 33.5962C85.1832 34.0366 86.1732 34.2566 87.4542 34.2566C88.7352 34.2566 90.0163 33.4144 91.2974 31.7297C92.5785 30.045 93.219 27.365 93.219 23.6893V20.2434C93.219 17.525 92.7531 15.5723 91.8214 14.3854C90.8898 13.1986 89.8125 12.6051 88.5897 12.6051C87.3669 12.6051 86.4061 12.7199 85.7073 12.9497C85.0085 13.1794 84.3486 13.658 83.7275 14.3854C82.4464 15.7638 81.8058 18.7502 81.8058 23.3448C81.8058 26.3694 82.0776 28.7241 82.6211 30.4087ZM119.012 13.8685C119.012 12.7199 119.342 11.8489 120.002 11.2554C120.662 10.662 121.457 10.3653 122.389 10.3653C123.321 10.3653 124.058 10.6332 124.602 11.1693V27.652C124.602 29.8325 124.952 31.4818 125.65 32.5911C126.348 33.7005 127.3 34.2566 128.503 34.2566C129.707 34.2566 130.879 33.5719 131.997 32.1892C133.323 30.5492 133.942 27.4985 133.977 23.0576C133.979 22.8265 134.307 22.713 134.85 22.713C135.549 22.713 135.898 23.7276 135.898 25.7568C135.898 29.0113 135.189 31.6158 133.773 33.5675C132.357 35.5191 130.367 36.4965 127.805 36.4965C123.728 36.4965 121.05 34.6778 119.769 31.0406C118.255 34.6778 115.479 36.4965 111.442 36.4965C109.035 36.4965 107.093 35.7776 105.619 34.3428C104.145 32.908 103.406 30.8491 103.406 28.1689V13.8685C103.406 12.7199 103.698 11.8479 104.279 11.2554C104.861 10.663 105.599 10.3653 106.492 10.3653C107.385 10.3653 108.103 10.6332 108.647 11.1693V27.652C108.647 32.2063 109.811 34.4863 112.141 34.4863C113.887 34.4863 115.47 33.4517 116.886 31.3851C118.302 29.3186 119.012 26.4078 119.012 22.6556V13.8685ZM153.324 28.2746C152.826 36.6819 142.532 38.8935 137.359 33.9936C134.98 31.7407 133.633 27.9105 133.633 23.718C133.633 19.5255 134.721 16.251 136.894 13.8973C139.067 11.5436 141.844 10.3653 145.221 10.3653C147.667 10.3653 149.454 11.0076 150.578 12.2892C151.703 13.5709 152.267 15.0938 152.267 16.8549C152.267 19.7266 151.053 22.1109 148.628 24.0052C146.202 25.8994 143.105 26.848 139.34 26.848C139.689 29.2984 140.288 31.4672 141.871 32.5496C146.415 35.6574 151.611 32.2214 151.863 26.4468C151.928 24.9507 153.468 25.8344 153.324 28.2746ZM139.165 24.2062V24.723C141.572 24.4167 143.659 23.6701 145.425 22.4832C147.191 21.2964 148.074 19.5351 148.074 17.1996C148.074 15.7064 147.743 14.5663 147.085 13.7824C146.426 12.9985 145.493 12.6051 144.289 12.6051C142.465 12.6051 141.155 13.4858 140.359 15.2469C139.563 17.0081 139.165 19.9965 139.165 24.2062Z" fill="#FFD5A4"/>
</svg>
