<svg width="206" height="48" viewBox="0 0 206 48" fill="none" xmlns="http://www.w3.org/2000/svg">
<path d="M111.049 3.06179L110.64 3.11087L110.611 2.95955C111.646 1.16007 112.345 0.243962 112.689 0.207155L112.909 0.182617L113.171 0.481172L113.298 1.13961C113.105 1.49057 112.827 1.78708 112.488 2.00158C112.15 2.21608 111.763 2.34162 111.364 2.36653C111.445 2.80005 111.343 3.03316 111.061 3.06588L111.049 3.06179ZM100.554 46.9365L99.9286 47.006C95.2908 43.7224 91.2642 39.6516 88.0316 34.9781C87.7673 34.7776 87.5647 34.507 87.4468 34.197L87.2259 34.2256C82.55 39.4686 80.1956 42.6913 80.1629 43.8937C80.4329 44.8957 80.7805 45.5296 81.1935 45.7995L81.2835 46.2821C80.1547 46.4089 79.6476 46.7484 79.7458 47.2964L79.3368 47.3455C76.5558 47.2991 74.4073 46.7047 72.8914 45.5623C70.5643 44.7935 69.3374 44.0982 69.2106 43.4643C68.7962 41.3213 70.6243 38.3821 74.695 34.6468C74.6622 34.475 76.1018 32.9128 79.0301 29.9682L81.668 26.6637L81.6352 26.4919C77.052 19.5393 72.7823 13.95 68.8262 9.72398L64.9246 7.49097L64.7978 6.83661C64.7487 6.58578 65.3295 6.23815 66.54 5.79374C69.209 5.67983 71.8821 5.8844 74.5027 6.4031C77.0629 7.83451 79.2973 10.0307 81.2058 12.9917C81.672 12.9385 82.1833 13.7769 82.7681 15.5069C83.7864 16.3003 85.0992 18.2184 86.7024 21.2325L86.9233 21.208C90.7049 17.6881 93.7954 14.9397 96.1947 12.963L96.6241 12.914L96.6528 13.0653L95.9575 13.9937L95.9861 14.145C96.1988 14.1204 96.6241 13.6869 97.2703 12.8404L96.8613 12.8894L96.8286 12.7177L103.638 6.41946C104.685 5.60152 105.289 4.97579 105.45 4.54228L106.992 3.52394L107.871 3.59755L108.104 3.56892L108.071 3.40124L107.642 3.45031L107.515 2.79596C107.96 2.69954 108.37 2.48315 108.701 2.17024L109.11 2.12115L108.967 2.46878L109.486 2.90229C109.522 3.08224 107.32 5.23072 102.881 9.34772C102.738 9.34772 102.558 9.61355 102.358 10.0798L103.27 10.3047L104.648 9.48677L104.714 9.81803C104.741 10.0471 103.698 11.0559 101.585 12.8444C99.4256 14.9984 98.2859 16.2417 98.1659 16.5743L98.6117 16.5252C98.5626 16.2716 99.3233 15.6868 100.882 14.7707C101.866 13.6614 102.994 12.6878 104.235 11.8752C104.161 11.5071 105.292 10.2066 107.626 7.97356C107.515 7.39691 108.239 6.64849 109.801 5.72012L110.022 5.69559C110.312 5.69559 110.48 5.8101 110.525 6.03912C110.57 6.26815 110.501 6.30904 110.345 6.3254L110.64 6.62805C110.738 7.14335 110.394 7.62594 109.617 8.08399C109.77 8.86922 109.042 10.0116 107.433 11.5112C106.817 12.7981 104.227 15.5478 99.6628 19.7602C98.347 20.96 97.1399 22.2738 96.0556 23.6863C94.2667 25.2488 92.7129 27.0615 91.4424 29.0684L91.5038 29.3997C92.9924 31.1378 93.7858 32.2134 93.8635 32.6224C95.3931 33.7648 96.2111 34.6223 96.3174 35.1949L96.2765 36.0455C96.4892 36.021 97.2866 36.7653 98.6731 38.2867L98.7671 38.7693L98.6076 39.1169L98.1496 39.0147L97.7406 39.0596L97.7692 39.2151C97.9247 40.033 99.8509 41.7671 103.548 44.4172L103.928 45.2352C104.097 46.1049 102.974 46.6775 100.558 46.9528L100.554 46.9365Z" fill="#FEFEFE"/>
<path d="M35.8384 28.4876L36.1369 27.8169C38.4817 22.5003 40.1803 19.0431 41.2327 17.4453C41.3658 17.2656 41.5106 17.0948 41.6662 16.9341C41.7872 16.8037 41.9247 16.6896 42.0752 16.5947C42.27 16.4791 42.4738 16.3792 42.6846 16.2961C43.5668 15.9565 44.5087 15.7993 45.4533 15.834C45.8305 15.7996 46.2105 15.85 46.5657 15.9812C46.7212 16.0835 46.7948 16.3084 46.7948 16.6519C46.7948 16.9219 46.7948 17.2122 46.7661 17.519C46.6843 19.3144 46.6435 20.5863 46.6435 21.347C46.6421 23.1651 46.7788 24.9807 47.0524 26.7781C47.2316 27.7655 47.4817 28.7386 47.8008 29.69C48.0603 30.3979 48.3963 31.0754 48.8028 31.7103C49.0865 32.1177 49.4068 32.4983 49.7598 32.8473C50.0788 33.1622 50.2383 33.4076 50.2383 33.5753C50.2383 33.8861 49.9725 34.3032 49.449 34.8308C48.5615 35.6856 47.6782 36.115 46.7907 36.115C46.1457 36.1008 45.5109 35.951 44.9275 35.6756C44.3441 35.4001 43.8252 35.005 43.4044 34.5159C42.9018 34.0133 42.487 33.4299 42.1775 32.79C41.8294 32.0462 41.5924 31.2552 41.474 30.4425C41.3007 29.2679 41.1997 28.0837 41.1714 26.8967C41.1019 25.3385 41.0651 24.4633 41.0528 24.2629H40.9955C40.3657 25.4694 39.8463 26.4796 39.4292 27.2812C39.012 28.0828 38.6726 28.7576 38.4067 29.2892L37.4743 31.1869C36.8187 32.6479 36.0786 34.0694 35.2576 35.4443L35.139 35.5792C35.0887 35.6378 35.034 35.6925 34.9754 35.7428C34.8096 35.9007 34.6153 36.0256 34.4029 36.1109C34.2298 36.1872 34.0439 36.2302 33.8548 36.2377C33.4377 36.2377 32.9796 35.9759 32.4807 35.4524C31.9299 34.8574 31.4846 34.1728 31.1638 33.428C30.7793 32.5622 30.4621 31.668 30.215 30.7533C29.9408 29.6895 29.7278 28.6107 29.577 27.5225C29.3848 26.2955 29.2294 24.7578 29.0862 22.9583H29.0249C28.7304 23.6168 28.5055 24.1034 28.3541 24.4306C28.2028 24.7578 27.9697 25.2486 27.6671 25.9479L27.1272 27.138C26.7128 28.0405 26.2834 28.9525 25.839 29.8741C25.3945 30.7956 25.0333 31.5045 24.7552 32.0007C24.4812 32.4997 24.1785 32.9945 23.8514 33.4812C23.6107 33.8243 23.3455 34.1496 23.0579 34.4546C22.4983 34.9975 21.8495 35.4401 21.1399 35.7633C20.5214 36.0606 19.8465 36.2223 19.1604 36.2377C18.9384 36.2427 18.7201 36.1799 18.5347 36.0577C18.4534 36.0108 18.3858 35.9435 18.3384 35.8625C18.2911 35.7814 18.2657 35.6894 18.2648 35.5956C18.3174 35.3307 18.4623 35.093 18.6737 34.9249C18.8251 34.7449 19.1482 34.2869 19.6471 33.5507L20.51 32.2052C21.0499 31.3872 21.8596 29.9804 22.9639 27.9192L23.6837 26.5736C25.355 23.3673 26.4851 21.1738 27.0741 19.9932C27.663 18.8127 27.9561 18.1311 27.9534 17.9484C27.9302 17.8062 27.8779 17.6704 27.7997 17.5493C27.7216 17.4283 27.6194 17.3247 27.4994 17.2449C27.2663 17.0568 27.1518 16.8891 27.1518 16.7542C27.1518 16.5333 27.4421 16.3248 28.0147 16.1325C28.623 15.9331 29.2599 15.835 29.9001 15.8422C31.262 15.8422 32.2353 16.1448 32.812 16.7542C33.1719 17.1304 33.5031 17.8789 33.8139 18.9872C34.2169 20.5801 34.5242 22.1957 34.7341 23.8253C34.7546 23.9439 34.7709 24.038 34.7791 24.1034C34.7873 24.1689 34.7996 24.2261 34.8118 24.2752C34.8173 24.3405 34.8173 24.4062 34.8118 24.4715C34.853 24.6534 34.8816 24.8378 34.8977 25.0236C35.0145 25.8615 35.1742 26.6928 35.3762 27.5143C35.4722 27.868 35.6331 28.2008 35.8506 28.4958L35.8384 28.4876ZM62.8593 21.9931L60.1396 27.7474H64.168L62.9165 21.9931H62.8593ZM61.571 18.0506L60.659 16.4147C60.8531 16.2592 61.0696 16.1337 61.3011 16.0426C62.1974 15.7666 63.1322 15.6368 64.0698 15.6581C64.5344 15.6285 65.0001 15.6965 65.4368 15.8578C65.8736 16.0191 66.2716 16.2701 66.6055 16.5947C67.1884 17.2592 67.6209 18.0418 67.8733 18.889C68.2865 20.2631 68.5915 21.6675 68.7853 23.0892C68.9325 24.0135 69.0634 24.7046 69.1697 25.1709C69.5214 26.4755 69.7505 27.3057 69.8691 27.6656C69.9877 28.0255 70.1881 28.6103 70.4907 29.4037C70.5929 29.6328 70.7197 29.9518 70.8997 30.3648C71.0796 30.7779 71.2187 31.1582 71.3659 31.514C71.6931 32.2952 72.1839 33.3176 72.8587 34.5895C72.1926 35.0758 71.4835 35.5002 70.7402 35.8573C70.2477 36.1047 69.7081 36.2441 69.1575 36.2663C68.6449 36.2848 68.1366 36.1662 67.6851 35.9228C67.2496 35.648 66.8841 35.2756 66.6177 34.8349C66.157 33.9506 65.7765 33.0267 65.4808 32.0743C65.4481 31.9639 65.4031 31.8249 65.3499 31.6654L65.1659 31.1173C64.3102 31.5249 63.387 31.7717 62.4421 31.8453C62.0699 31.8453 61.755 31.8453 61.4851 31.8167C61.2152 31.788 60.1927 31.7676 58.2951 31.7267L58.1479 32.0457C57.7309 32.9752 57.2168 33.8581 56.6142 34.6795C56.1927 35.2462 55.6281 35.6908 54.9783 35.9678C54.2318 36.2379 53.4408 36.3642 52.6472 36.3399C52.2542 36.365 51.8605 36.3036 51.4939 36.16C51.3859 36.1069 51.296 36.023 51.2356 35.919C51.1752 35.8149 51.1469 35.6953 51.1544 35.5751C51.1544 35.248 51.6984 34.3482 52.7903 32.8636C53.1748 32.3443 53.4651 31.9353 53.6533 31.6367C52.6145 31.435 52.0951 31.0683 52.0951 30.5366C52.0951 30.099 52.504 29.4446 53.3506 28.5858C53.6492 28.2342 54.0299 27.9617 54.4589 27.7924C55.0441 27.6449 55.6472 27.5816 56.2502 27.6042C57.0437 26.1401 57.5549 25.2158 57.7716 24.8151C57.9884 24.4143 58.2706 23.903 58.6223 23.2978L59.8083 21.2079C60.2541 20.4309 60.843 19.3921 61.5914 18.0915L61.571 18.0506Z" fill="#FEFEFE"/>
<path d="M114.701 36.2378V28.684H124.721C125.896 28.706 127.045 28.341 127.992 27.6453C129.669 26.2711 129.853 23.5187 129.853 21.7806C129.853 19.977 129.702 17.5641 128.217 16.1572C126.905 14.8771 125.105 14.8771 123.972 14.8771H113.813C112.933 14.8204 112.065 15.1144 111.4 15.695C110.668 16.4312 110.668 17.286 110.668 18.0794V36.2542L114.701 36.2378ZM114.701 25.4532V19.3472C114.675 19.169 114.686 18.9875 114.733 18.8137C114.78 18.64 114.862 18.4777 114.975 18.337C115.101 18.2257 115.249 18.1426 115.41 18.0932C115.571 18.0438 115.74 18.0294 115.907 18.0507H122.41C123.085 18.0507 124.213 18.0794 124.917 18.7828C125.62 19.4862 125.678 20.7704 125.678 21.7151C125.678 22.5331 125.62 23.9154 124.978 24.6475C124.275 25.4409 123.236 25.4409 122.349 25.4409L114.701 25.4532ZM132.904 36.2378H136.937V19.5885C136.903 19.3718 136.922 19.1501 136.993 18.9427C137.065 18.7352 137.186 18.5484 137.346 18.3984C137.491 18.2702 137.661 18.1741 137.846 18.1163C138.03 18.0585 138.225 18.0403 138.417 18.063H144.961C145.603 18.063 146.597 18.063 147.222 18.7051C147.631 19.1141 147.987 19.9852 147.987 21.6661C147.987 22.4022 147.926 23.9277 147.496 24.5984C146.948 25.4532 145.999 25.5472 145.296 25.5472H141.264C140.106 25.5472 139.464 26.1566 139.464 27.0113V27.5021C139.464 28.1115 140.045 28.8763 140.47 29.3016L147.496 36.2542H152.568L144.449 28.684V28.5327H147.198C149.652 28.5327 150.682 27.3712 151.23 26.3325C152.085 24.7456 152.146 23.0607 152.146 21.5066C152.146 19.9525 152.085 18.2675 151.079 16.8034C149.827 14.9385 147.995 14.8485 146.498 14.8485H136.356C135.422 14.7872 134.502 15.094 133.792 15.7032C132.937 16.5212 132.904 17.5968 132.904 18.4842V36.2296V36.2378ZM159.357 36.2378V14.8567H155.324V36.2378H159.357ZM183.486 14.8567H179.576V30.6185C179.576 30.7698 179.576 31.1379 179.241 31.1379C178.906 31.1379 178.906 30.8312 178.754 30.6185L169.679 16.3044C169.098 15.3883 168.182 14.6235 166.289 14.6235C164.272 14.6235 163.017 15.691 163.017 17.5273V36.2501H166.927V20.5373C166.927 20.1079 167.201 19.9279 167.356 19.9279C167.417 19.9279 167.54 19.9852 167.843 20.4473L176.84 34.6796C177.785 36.1764 179.008 36.4832 180.288 36.4832C182.03 36.4832 183.466 35.6243 183.466 33.4568V14.8567H183.486ZM197.391 36.2378V18.0507H205.763V14.8444H185.024V18.0507H193.363V36.2255L197.391 36.2378Z" fill="#FEFEFE"/>
<path d="M206 10.8077H107.932V8.41113H206V10.8077Z" fill="#FEFEFE"/>
<path d="M66.2251 10.8158H0V8.40283H66.2251V10.8158Z" fill="#FEFEFE"/>
<path d="M22.7962 17.7479H0V15.564H22.7962V17.7479Z" fill="#FEFEFE"/>
<path d="M21.0212 22.2304H0V20.0669H21.0212V22.2304Z" fill="#FEFEFE"/>
<path d="M18.9968 26.7211H0V24.5576H18.9968V26.7211Z" fill="#FEFEFE"/>
<path d="M16.9683 31.2156H0V29.0439H16.9683V31.2156Z" fill="#FEFEFE"/>
<path d="M15.1034 35.6976H0V33.5464H15.1034V35.6976Z" fill="#FEFEFE"/>
<path d="M206 40.961H107.932V38.5645H206V40.961Z" fill="#FEFEFE"/>
<path d="M66.2251 40.9696H0V38.5566H66.2251V40.9696Z" fill="#FEFEFE"/>
</svg>
