<svg width="155" height="66" viewBox="0 0 155 66" fill="none" xmlns="http://www.w3.org/2000/svg">
<path d="M52.164 42.0119C52.8987 43.6133 53.958 45.0446 55.2747 46.2153C56.6997 47.507 58.3601 48.5123 60.1653 49.1761C62.1202 49.9083 64.1935 50.2727 66.2809 50.2512C67.8401 50.252 69.3917 50.0325 70.8895 49.5991C72.3248 49.1853 73.6802 48.5329 74.899 47.6692C76.0774 46.826 77.0453 45.7224 77.7276 44.4441C78.4493 43.058 78.81 41.5123 78.7763 39.9499C78.7891 38.8386 78.6133 37.7332 78.2563 36.6807C77.9047 35.7105 77.3758 34.814 76.6966 34.0371C75.9801 33.2237 75.1454 32.5226 74.2205 31.9575C73.1821 31.3246 72.0805 30.8019 70.9336 30.3977C69.7263 29.9659 68.6337 29.5694 67.6379 29.2346C66.8008 28.9677 65.999 28.6008 65.2498 28.1419C64.9835 27.9881 64.762 27.7673 64.6074 27.5014C64.4528 27.2355 64.3705 26.9338 64.3686 26.6262C64.3579 26.4023 64.412 26.18 64.5246 25.9862C64.6371 25.7923 64.8033 25.6352 65.0031 25.5335C65.5135 25.2778 66.0806 25.1565 66.651 25.181C67.2345 25.1829 67.8131 25.2873 68.3605 25.4895C68.9924 25.7126 69.5866 26.0305 70.1229 26.4323C70.7426 26.9207 71.2682 27.5179 71.6738 28.1947L78.8203 24.247C77.3776 21.6276 75.0785 19.5837 72.3083 18.4575C70.4103 17.696 68.3784 17.3244 66.3337 17.3648C64.3262 17.344 62.3326 17.6997 60.4561 18.4134C58.7692 19.0493 57.284 20.1266 56.1559 21.5329C55.0494 22.9922 54.4771 24.7869 54.5345 26.6174C54.5122 28.0127 54.8138 29.3942 55.4157 30.6533C55.935 31.7375 56.6488 32.7171 57.5217 33.5436C58.3399 34.3046 59.2556 34.9536 60.2446 35.4734C61.0778 35.9124 61.9338 36.3065 62.8089 36.6543C64.4715 37.3005 65.7139 37.8116 66.5364 38.1875C67.1373 38.4293 67.6941 38.7687 68.1842 39.1921C68.4565 39.476 68.6054 39.8562 68.5984 40.2495C68.6178 40.5434 68.5536 40.8367 68.4132 41.0955C68.2729 41.3544 68.0621 41.5682 67.8053 41.7123C67.2161 42.0396 66.5492 42.201 65.8755 42.1794C64.9471 42.1735 64.0296 41.9786 63.179 41.6066C62.2535 41.2052 61.4131 40.631 60.7029 39.9147C59.9104 39.1318 59.2311 38.242 58.6849 37.2711L52.1993 42.0119H52.164ZM113.98 49.5814H129.463V41.9414H113.98V49.5814ZM113.98 26.5557H129.463V18.8805H113.98V26.5557ZM114.861 37.8879H125.03V30.433H114.8L114.861 37.8879ZM107.345 18.8805V49.5814H116.562V18.8805H107.345ZM88.5576 49.5814H104.04V41.9414H88.5311L88.5576 49.5814ZM88.5576 26.5557H104.04V18.8805H88.5311L88.5576 26.5557ZM89.4388 37.8879H99.599V30.433H89.3859L89.4388 37.8879ZM81.9221 18.8805V49.5814H91.1307V18.8805H81.9221ZM132.855 18.8805V49.5814H155V41.4656H142.452V18.8805H132.855Z" fill="#FEFEFE"/>
<path d="M34.6722 15.8406L26.6092 0.525391L0.419983 50.2515H16.9865C22.8906 38.743 28.7682 27.3315 34.6722 15.8406ZM33.8791 45.6692H27.2437C31.0564 38.2613 34.8749 30.8504 38.6993 23.4366L52.7985 50.2515H36.2231L33.8791 45.6692Z" fill="#FEFEFE"/>
<path d="M14.0786 61.4076C14.0829 61.4777 14.0609 61.5468 14.0169 61.6015C13.9724 61.6501 13.9184 61.6891 13.8583 61.7161C13.707 61.6103 13.5445 61.5216 13.3736 61.4517C13.1486 61.3549 12.9047 61.3097 12.6599 61.3195C12.4299 61.3174 12.202 61.3624 11.9902 61.4517C11.7843 61.531 11.6002 61.6579 11.4526 61.8218C11.2931 62.0019 11.1703 62.2114 11.0913 62.4387C11.0038 62.724 10.9622 63.0214 10.968 63.3199C10.9572 63.6185 10.999 63.9168 11.0913 64.2011C11.1693 64.4242 11.2889 64.6305 11.4438 64.8091C11.5897 64.9749 11.7744 65.102 11.9813 65.1792C12.2071 65.2622 12.4458 65.3039 12.6863 65.3025C12.9293 65.309 13.1713 65.2702 13.4001 65.188C13.5802 65.1225 13.7495 65.0304 13.9024 64.9148C13.9633 64.9359 14.0159 64.9761 14.0522 65.0294C14.0767 65.055 14.0957 65.0855 14.1078 65.1189C14.12 65.1523 14.125 65.1878 14.1227 65.2232C14.1184 65.2844 14.0993 65.3437 14.067 65.3959C14.0348 65.448 13.9904 65.4916 13.9376 65.5228C13.7898 65.6154 13.6295 65.6866 13.4618 65.7343C13.1973 65.804 12.9245 65.8367 12.6511 65.8313C12.3504 65.8289 12.0524 65.7752 11.7699 65.6727C11.4916 65.5694 11.2391 65.4071 11.0296 65.1968C10.8147 64.9742 10.6468 64.7104 10.5362 64.4214C10.4094 64.0684 10.3496 63.6948 10.3599 63.3199C10.3521 62.9472 10.4149 62.5765 10.545 62.2272C10.6555 61.9328 10.8232 61.6632 11.0385 61.4341C11.2479 61.2238 11.5004 61.0615 11.7787 60.9582C12.0606 60.8534 12.359 60.7997 12.6599 60.7996C12.8579 60.7981 13.0556 60.8159 13.2503 60.8525C13.4106 60.8866 13.5671 60.9368 13.7173 61.0023C13.8282 61.0518 13.9297 61.1204 14.0169 61.205C14.0786 61.2662 14.1161 61.3475 14.1227 61.4341L14.0786 61.4076ZM23.2871 63.2934C23.2952 63.6617 23.2385 64.0286 23.1197 64.3773C23.0245 64.6647 22.8669 64.9276 22.6582 65.1469C22.4495 65.3663 22.1948 65.5368 21.9125 65.6462C21.3263 65.8605 20.6833 65.8605 20.0972 65.6462C19.8266 65.5382 19.5807 65.3763 19.3746 65.1704C19.1562 64.9452 18.9907 64.6743 18.8899 64.3773C18.7679 64.0292 18.7083 63.6623 18.7137 63.2934C18.7067 62.9208 18.7695 62.5502 18.8988 62.2007C19.0017 61.9073 19.1671 61.6398 19.3834 61.4165C19.5848 61.2047 19.8319 61.0419 20.106 60.9406C20.6739 60.7261 21.3005 60.7261 21.8684 60.9406C22.1425 61.0419 22.3896 61.2047 22.591 61.4165C22.834 61.637 23.0264 61.9076 23.155 62.2095C23.265 62.5597 23.3098 62.9271 23.2871 63.2934ZM22.635 63.2934C22.6697 62.7686 22.5132 62.249 22.1944 61.8306C22.047 61.6619 21.8636 61.5284 21.6577 61.4399C21.4518 61.3515 21.2287 61.3103 21.0048 61.3195C20.7748 61.3164 20.5467 61.3614 20.3351 61.4517C20.1373 61.536 19.9622 61.6659 19.824 61.8306C19.6726 62.0106 19.5614 62.2209 19.498 62.4475C19.4126 62.7331 19.3739 63.0307 19.3834 63.3287C19.3451 63.8512 19.5021 64.3693 19.824 64.7826C19.9764 64.944 20.1601 65.0725 20.3639 65.1604C20.5677 65.2482 20.7873 65.2935 21.0092 65.2935C21.2312 65.2935 21.4507 65.2482 21.6545 65.1604C21.8583 65.0725 22.0421 64.944 22.1944 64.7826C22.521 64.3581 22.678 63.8273 22.635 63.2934ZM28.6272 65.7431C28.3981 65.7431 28.2835 65.6462 28.2835 65.4524V60.9759C28.3403 60.9237 28.4071 60.8836 28.4797 60.8578C28.5524 60.8321 28.6296 60.8213 28.7065 60.8261C28.8204 60.8219 28.9333 60.8493 29.0326 60.9054C29.136 60.9748 29.2207 61.0686 29.2793 61.1785L30.7861 63.7164L30.98 64.0689C31.0505 64.1922 31.1122 64.3156 31.1739 64.4478L31.3501 64.7915C31.4118 64.8972 31.4558 64.9941 31.4911 65.0646C31.4911 64.6417 31.4206 64.1834 31.4118 63.7781C31.403 63.3727 31.4118 62.8969 31.4118 62.5003V60.9054C31.4526 60.8979 31.4944 60.8979 31.5352 60.9054C31.5935 60.8961 31.653 60.8961 31.7114 60.9054C31.9405 60.9054 32.0551 61.0023 32.0551 61.1962V65.6815C32.0044 65.7287 31.9443 65.7647 31.8788 65.7872C31.7968 65.7964 31.7141 65.7964 31.6321 65.7872C31.5183 65.7905 31.4056 65.7631 31.306 65.7079C31.2026 65.6385 31.1179 65.5447 31.0593 65.4347L29.5613 62.8969L29.3674 62.5444L29.1559 62.1743L28.9797 61.8218L28.8387 61.5486C28.8387 61.8042 28.8387 62.0862 28.9004 62.4298C28.9621 62.7735 28.9004 63.0643 28.9004 63.3551V65.7255L28.7858 65.7696H28.6096L28.6272 65.7431ZM40.8406 61.4076C40.8449 61.4777 40.8229 61.5468 40.7789 61.6015C40.7362 61.6521 40.6818 61.6914 40.6203 61.7161C40.4722 61.6102 40.3126 61.5215 40.1445 61.4517C39.9163 61.355 39.6695 61.3099 39.4219 61.3195C39.192 61.3181 38.9643 61.3631 38.7522 61.4517C38.5476 61.5333 38.3639 61.6598 38.2147 61.8218C38.0579 62.0023 37.9381 62.2119 37.8622 62.4387C37.767 62.7224 37.7223 63.0207 37.73 63.3199C37.7238 63.6183 37.7654 63.9158 37.8534 64.2011C37.9313 64.4242 38.0509 64.6305 38.2058 64.8091C38.3534 64.973 38.5376 65.0998 38.7434 65.1792C38.9691 65.2622 39.2079 65.3039 39.4483 65.3025C39.6913 65.309 39.9334 65.2702 40.1621 65.188C40.3441 65.1205 40.516 65.0286 40.6732 64.9148C40.7328 64.9383 40.7847 64.978 40.823 65.0294C40.8694 65.0832 40.8945 65.1522 40.8935 65.2232C40.8891 65.2855 40.869 65.3456 40.8351 65.398C40.8012 65.4503 40.7546 65.4933 40.6996 65.5228C40.548 65.6243 40.3815 65.7016 40.2062 65.752C39.9447 65.8217 39.6748 65.8543 39.4043 65.8489C39.1037 65.8465 38.8056 65.7929 38.5231 65.6903C38.2448 65.587 37.9923 65.4247 37.7829 65.2144C37.5679 64.9918 37.4 64.728 37.2894 64.439C37.1668 64.0849 37.1071 63.7121 37.1132 63.3375C37.0866 62.9559 37.1345 62.5728 37.2541 62.2095C37.3643 61.913 37.5354 61.6428 37.7564 61.4165C37.9626 61.2064 38.2122 61.044 38.4878 60.9406C38.7698 60.8358 39.0682 60.782 39.369 60.782C39.57 60.7809 39.7706 60.7986 39.9682 60.8349C40.1258 60.8688 40.2793 60.919 40.4265 60.9847C40.5374 61.0342 40.6388 61.1028 40.7261 61.1874C40.7877 61.2485 40.8252 61.3299 40.8318 61.4165L40.8406 61.4076ZM46.1807 65.7343C46.1349 65.7382 46.0888 65.7315 46.046 65.7146C46.0032 65.6978 45.9649 65.6714 45.934 65.6374C45.9019 65.605 45.8767 65.5665 45.86 65.524C45.8434 65.4816 45.8355 65.4362 45.837 65.3907V61.2578C45.8355 61.2123 45.8434 61.1669 45.86 61.1245C45.8767 61.082 45.9019 61.0435 45.934 61.0111C45.9649 60.9771 46.0032 60.9507 46.046 60.9339C46.0888 60.9171 46.1349 60.9103 46.1807 60.9142H48.8243C48.8454 60.9476 48.8631 60.983 48.8772 61.0199C48.8863 61.0694 48.8863 61.1202 48.8772 61.1697C48.8825 61.2453 48.8606 61.3204 48.8155 61.3812C48.795 61.4081 48.7682 61.4294 48.7374 61.4432C48.7066 61.4571 48.6729 61.463 48.6392 61.4605H46.4715V62.9938H48.5599V63.0996C48.569 63.1491 48.569 63.1998 48.5599 63.2494C48.5625 63.3219 48.5408 63.3932 48.4983 63.452C48.4755 63.4785 48.447 63.4994 48.4149 63.5131C48.3828 63.5269 48.348 63.5331 48.3132 63.5313H46.4715V65.1968H48.8419C48.8448 65.232 48.8448 65.2674 48.8419 65.3025C48.8519 65.352 48.8519 65.4029 48.8419 65.4524C48.8473 65.528 48.8254 65.603 48.7802 65.6638C48.7616 65.6917 48.7376 65.7157 48.7097 65.7343H46.1807ZM54.5257 63.9719V65.6727L54.4023 65.7167H54.226C53.9969 65.7167 53.8824 65.6198 53.8824 65.4171V61.1962C53.8772 61.126 53.8993 61.0566 53.9441 61.0023C53.9989 60.9515 54.0655 60.9151 54.1379 60.8966C54.3202 60.8479 54.5057 60.8126 54.6931 60.7908H55.3275C55.8508 60.7444 56.3726 60.8953 56.7903 61.2138C56.9457 61.3601 57.0679 61.5381 57.1484 61.7358C57.229 61.9334 57.2662 62.1461 57.2574 62.3593C57.2678 62.5788 57.2307 62.798 57.1486 63.0018C57.0665 63.2056 56.9413 63.3893 56.7815 63.5402C56.369 63.8636 55.8502 64.0208 55.3275 63.9808L54.5257 63.9719ZM55.2835 63.4344C55.6297 63.4563 55.9735 63.3633 56.2616 63.17C56.38 63.0726 56.473 62.948 56.5328 62.8068C56.5927 62.6657 56.6175 62.5122 56.6053 62.3593C56.622 62.2096 56.5999 62.058 56.5413 61.9191C56.4827 61.7803 56.3894 61.6588 56.2704 61.5663C55.9856 61.3901 55.653 61.3069 55.3187 61.3283H54.8781L54.4992 61.3812V63.4256L55.2835 63.4344ZM63.8487 61.4165V65.6727L63.6901 65.7343H63.5227C63.2936 65.7343 63.179 65.6374 63.179 65.4347V61.4165H61.7339C61.731 61.3813 61.731 61.3459 61.7339 61.3107C61.7239 61.2583 61.7239 61.2045 61.7339 61.1521C61.733 61.0771 61.7545 61.0034 61.7955 60.9406C61.8202 60.9171 61.8492 60.8988 61.881 60.8867C61.9127 60.8746 61.9466 60.869 61.9806 60.8701H65.3908C65.412 60.9035 65.4297 60.9389 65.4437 60.9759C65.4485 61.0257 65.4485 61.0759 65.4437 61.1257C65.4491 61.2013 65.4272 61.2763 65.382 61.3372C65.3611 61.3634 65.3341 61.3843 65.3035 61.3981C65.2728 61.4119 65.2394 61.4182 65.2058 61.4165H63.8487ZM104.816 63.1789C104.824 62.8782 104.773 62.5788 104.666 62.2977C104.572 62.075 104.43 61.8757 104.251 61.7142C104.071 61.5527 103.858 61.433 103.626 61.3636C103.383 61.2915 103.131 61.2559 102.877 61.2578H102.436H102.093V65.0382C102.226 65.0723 102.361 65.093 102.498 65.0999H102.948C103.204 65.1188 103.461 65.083 103.703 64.9949C103.945 64.9068 104.165 64.7683 104.349 64.5888C104.689 64.1634 104.856 63.6252 104.816 63.0819V63.1789ZM105.468 63.1789C105.478 63.5653 105.418 63.9504 105.292 64.3156C105.188 64.6155 105.016 64.8871 104.789 65.1087C104.563 65.3236 104.292 65.4861 103.996 65.5845C103.659 65.6861 103.309 65.7366 102.956 65.7343H102.392C102.19 65.7185 101.989 65.6831 101.793 65.6286C101.564 65.5581 101.458 65.4347 101.458 65.2585V61.1874C101.453 61.1144 101.475 61.0421 101.52 60.9847C101.575 60.9339 101.641 60.8975 101.714 60.8789C101.894 60.8224 102.081 60.7898 102.269 60.782C102.472 60.782 102.683 60.782 102.886 60.782C103.241 60.7798 103.594 60.8302 103.935 60.9318C104.237 61.0303 104.515 61.1892 104.754 61.3988C104.986 61.6074 105.167 61.8667 105.283 62.1567C105.412 62.497 105.475 62.8589 105.468 63.2229V63.1789ZM110.799 65.6462C110.753 65.6501 110.707 65.6433 110.664 65.6265C110.622 65.6097 110.583 65.5833 110.552 65.5493C110.52 65.5169 110.495 65.4783 110.478 65.4359C110.462 65.3935 110.454 65.3481 110.455 65.3025V61.1697C110.454 61.1242 110.462 61.0788 110.478 61.0364C110.495 60.9939 110.52 60.9554 110.552 60.923C110.583 60.889 110.622 60.8626 110.664 60.8458C110.707 60.8289 110.753 60.8222 110.799 60.8261H113.443L113.496 60.9318C113.505 60.9813 113.505 61.0321 113.496 61.0816C113.501 61.1572 113.479 61.2322 113.434 61.2931C113.413 61.32 113.387 61.3413 113.356 61.3551C113.325 61.369 113.291 61.3749 113.258 61.3724H111.099V62.9057H113.187L113.231 63.0114C113.24 63.061 113.24 63.1117 113.231 63.1612C113.234 63.2338 113.212 63.3051 113.169 63.3639C113.147 63.3904 113.118 63.4112 113.086 63.425C113.054 63.4387 113.019 63.445 112.984 63.4432H111.072V65.1087H113.443C113.46 65.1426 113.475 65.1779 113.487 65.2144C113.497 65.2639 113.497 65.3148 113.487 65.3642C113.492 65.4398 113.47 65.5149 113.425 65.5757C113.4 65.5992 113.371 65.6175 113.34 65.6296C113.308 65.6417 113.274 65.6474 113.24 65.6462H110.799ZM119.796 65.2144C120.082 65.2379 120.367 65.1495 120.589 64.9677C120.678 64.8921 120.749 64.7974 120.796 64.6905C120.844 64.5837 120.866 64.4676 120.862 64.3509C120.866 64.2509 120.85 64.1512 120.816 64.0574C120.781 63.9637 120.728 63.8777 120.66 63.8045C120.468 63.6442 120.242 63.5297 119.999 63.4697L119.311 63.2582C119.014 63.1808 118.741 63.0292 118.518 62.8176C118.419 62.7119 118.342 62.5871 118.292 62.4508C118.242 62.3145 118.22 62.1695 118.228 62.0245C118.227 61.8363 118.266 61.6502 118.342 61.4781C118.418 61.3172 118.533 61.1779 118.677 61.0728C118.826 60.9538 118.997 60.8641 119.179 60.8084C119.398 60.7506 119.623 60.7209 119.849 60.7203C120.044 60.7188 120.239 60.7365 120.431 60.7732C120.594 60.8006 120.754 60.848 120.906 60.9142C121.021 60.9662 121.128 61.0344 121.224 61.1169C121.287 61.1771 121.324 61.259 121.329 61.346C121.332 61.4145 121.314 61.4822 121.277 61.5398C121.241 61.5921 121.192 61.6345 121.136 61.6632C120.971 61.546 120.79 61.4539 120.598 61.39C120.366 61.3063 120.122 61.2645 119.875 61.2667C119.616 61.2519 119.359 61.3231 119.144 61.4693C119.058 61.533 118.988 61.617 118.942 61.7138C118.896 61.8106 118.875 61.9173 118.88 62.0245C118.876 62.1083 118.891 62.1919 118.923 62.2695C118.955 62.347 119.003 62.4168 119.065 62.4739C119.251 62.6201 119.468 62.7225 119.699 62.7735L120.175 62.9233C120.541 63.0111 120.879 63.1865 121.162 63.4344C121.28 63.5482 121.373 63.6853 121.435 63.837C121.498 63.9887 121.528 64.1517 121.523 64.3156C121.529 64.5073 121.491 64.6979 121.413 64.8732C121.336 65.0485 121.22 65.2043 121.074 65.329C120.708 65.6069 120.255 65.7444 119.796 65.7167C119.574 65.7206 119.353 65.6999 119.135 65.655C118.961 65.6221 118.792 65.5658 118.633 65.4876C118.511 65.4324 118.4 65.3547 118.307 65.2585C118.273 65.2287 118.245 65.1922 118.225 65.1513C118.205 65.1104 118.194 65.0659 118.192 65.0206C118.19 64.9371 118.218 64.8557 118.272 64.7915C118.326 64.7339 118.392 64.6888 118.465 64.6593L118.677 64.8443C118.772 64.906 118.872 64.9591 118.977 65.0029C119.094 65.0611 119.218 65.1027 119.347 65.1263C119.494 65.1632 119.645 65.1809 119.796 65.1792V65.2144ZM127.092 65.6286L126.978 65.6727H126.802C126.573 65.6727 126.458 65.5757 126.458 65.373V60.8261C126.499 60.8175 126.541 60.8175 126.581 60.8261C126.64 60.8168 126.699 60.8168 126.758 60.8261C126.978 60.8261 127.092 60.923 127.092 61.1257V65.6727V65.6286ZM136.16 65.0911C136.164 65.1774 136.135 65.2621 136.081 65.329C136.009 65.4031 135.925 65.4655 135.834 65.514C135.658 65.5875 135.475 65.6436 135.288 65.6815C135.058 65.7267 134.825 65.7504 134.591 65.752C134.248 65.7543 133.906 65.7038 133.578 65.6022C133.287 65.5065 133.02 65.3504 132.794 65.1439C132.562 64.9265 132.384 64.658 132.274 64.3597C132.151 63.9997 132.091 63.621 132.098 63.2405C132.09 62.8622 132.153 62.4857 132.283 62.1302C132.397 61.834 132.574 61.5664 132.803 61.346C133.017 61.1351 133.276 60.9754 133.56 60.8789C133.857 60.7713 134.17 60.7176 134.486 60.7203C134.69 60.7188 134.893 60.7365 135.094 60.7732C135.257 60.8073 135.416 60.8575 135.57 60.923C135.683 60.9727 135.787 61.0413 135.878 61.1257C135.912 61.1521 135.939 61.1854 135.959 61.2234C135.979 61.2614 135.99 61.3032 135.993 61.346C135.993 61.4154 135.971 61.4832 135.931 61.5398C135.889 61.588 135.838 61.627 135.781 61.6544C135.617 61.5539 135.447 61.4655 135.27 61.39C135.031 61.3011 134.776 61.2592 134.521 61.2667C134.282 61.2646 134.046 61.3095 133.825 61.3988C133.61 61.4754 133.417 61.6023 133.261 61.7689C133.096 61.9469 132.97 62.1569 132.891 62.3858C132.796 62.6696 132.751 62.9678 132.759 63.267C132.751 63.5669 132.799 63.8656 132.9 64.1482C132.979 64.3766 133.108 64.5843 133.278 64.7562C133.447 64.9152 133.649 65.0355 133.869 65.1087C134.101 65.188 134.346 65.2268 134.591 65.2232C134.772 65.2245 134.952 65.2067 135.129 65.1704C135.266 65.1501 135.399 65.1116 135.526 65.0558V63.593H134.336C134.329 63.5581 134.329 63.5222 134.336 63.4873C134.327 63.4378 134.327 63.387 134.336 63.3375C134.329 63.2645 134.351 63.1918 134.398 63.1348C134.42 63.1084 134.449 63.0875 134.481 63.0737C134.513 63.06 134.548 63.0538 134.583 63.0555H135.896C135.939 63.053 135.983 63.0596 136.024 63.0747C136.065 63.0899 136.102 63.1133 136.134 63.1436C136.168 63.1745 136.194 63.2129 136.211 63.2557C136.228 63.2985 136.234 63.3445 136.23 63.3903V65.1527L136.16 65.0911ZM141.615 65.6903C141.385 65.6903 141.271 65.5933 141.271 65.3995V60.9759C141.327 60.9224 141.393 60.8814 141.466 60.8555C141.539 60.8297 141.617 60.8197 141.694 60.8261C141.808 60.824 141.92 60.8513 142.02 60.9054C142.123 60.9732 142.205 61.0676 142.258 61.1785L143.765 63.7164L143.967 64.0689C144.029 64.1922 144.1 64.3156 144.161 64.4478L144.338 64.7915L144.478 65.0646C144.434 64.6417 144.417 64.1834 144.408 63.7781C144.399 63.3727 144.408 62.8969 144.408 62.5003V60.9054H144.54C144.596 60.8962 144.652 60.8962 144.708 60.9054C144.946 60.9054 145.06 61.0023 145.06 61.1962V65.6815C145.006 65.7287 144.943 65.7647 144.875 65.7872C144.793 65.7976 144.71 65.7976 144.628 65.7872C144.517 65.7902 144.408 65.7628 144.311 65.7079C144.206 65.641 144.12 65.5465 144.064 65.4347L142.566 62.8969C142.505 62.7911 142.434 62.6766 142.364 62.5444C142.293 62.4122 142.223 62.2977 142.161 62.1743L141.976 61.8218L141.844 61.5486C141.844 61.8042 141.897 62.0862 141.905 62.4298C141.914 62.7735 141.905 63.0643 141.905 63.3551V65.7255L141.782 65.7696H141.615V65.6903ZM73.868 63.9808C73.8745 64.2302 73.8326 64.4786 73.7446 64.7121C73.6733 64.9249 73.5489 65.1159 73.3833 65.2673C73.2149 65.4246 73.0173 65.5473 72.8017 65.6286C72.5429 65.7129 72.2721 65.7546 71.9998 65.752C71.7304 65.7554 71.4624 65.7137 71.2068 65.6286C70.9911 65.5473 70.7936 65.4246 70.6252 65.2673C70.4624 65.1136 70.3385 64.9233 70.2639 64.7121C70.1802 64.4775 70.1384 64.2299 70.1405 63.9808V60.8437C70.1813 60.8362 70.2231 60.8362 70.2639 60.8437C70.3223 60.8344 70.3817 60.8344 70.4401 60.8437C70.6692 60.8437 70.7838 60.9406 70.7838 61.1433V63.9719C70.7787 64.1608 70.8086 64.3491 70.8719 64.5271C70.9317 64.674 71.0184 64.8085 71.1275 64.9236C71.2359 65.0347 71.3686 65.1192 71.5152 65.1704C71.6711 65.2238 71.835 65.2506 71.9998 65.2497C72.1647 65.2513 72.3287 65.2244 72.4845 65.1704C72.6321 65.1214 72.7653 65.0366 72.8722 64.9236C72.9842 64.8108 73.0713 64.6757 73.1278 64.5271C73.1943 64.3497 73.2272 64.1614 73.2247 63.9719V60.8877C73.2655 60.8803 73.3073 60.8803 73.3481 60.8877C73.4065 60.8785 73.4659 60.8785 73.5243 60.8877C73.7534 60.8877 73.868 60.9847 73.868 61.1874V64.0865V63.9808ZM81.7195 64.3597H79.6046C79.6046 64.4654 79.5253 64.58 79.49 64.7121C79.4548 64.8443 79.4019 64.9589 79.3667 65.0734L79.2521 65.4083C79.2521 65.514 79.1816 65.5933 79.164 65.6638C79.0811 65.7016 78.9907 65.7197 78.8996 65.7167C78.8268 65.7456 78.7469 65.7518 78.6705 65.7343C78.6362 65.7096 78.6092 65.6761 78.5921 65.6374C78.5751 65.5986 78.5687 65.5561 78.5736 65.514C78.5698 65.4642 78.5698 65.4141 78.5736 65.3642L78.6353 65.2056L78.9349 64.3244C79.0582 63.9719 79.1904 63.6018 79.3402 63.2053C79.49 62.8088 79.631 62.4122 79.7808 62.0157L80.195 60.9406L80.38 60.8789C80.4677 60.8656 80.5568 60.8656 80.6444 60.8789C80.7466 60.8791 80.848 60.8969 80.944 60.9318C80.986 60.94 81.0251 60.9589 81.0575 60.9867C81.0899 61.0145 81.1146 61.0502 81.1291 61.0904C81.2612 61.3988 81.3934 61.7425 81.5344 62.139C81.6754 62.5356 81.8252 62.9409 81.975 63.3463C82.1248 63.7516 82.2658 64.1658 82.398 64.5712L82.7593 65.6462C82.7157 65.6945 82.6652 65.7361 82.6095 65.7696C82.5427 65.7836 82.4736 65.7836 82.4068 65.7696C82.3344 65.7801 82.2604 65.7678 82.1953 65.7343C82.1319 65.6709 82.0863 65.5919 82.0631 65.5052L81.7107 64.4478L81.7195 64.3597ZM80.662 61.3283C80.6003 61.487 80.5387 61.6632 80.4682 61.8659C80.3977 62.0686 80.3184 62.28 80.2391 62.5091L80.0011 63.1789C79.9218 63.408 79.8425 63.6283 79.7808 63.8309H81.5432C81.4639 63.593 81.3846 63.3551 81.2965 63.1172C81.2084 62.8793 81.1379 62.6413 81.0586 62.421C80.9793 62.2007 80.9088 61.9892 80.8471 61.8042C80.7862 61.6483 80.7333 61.4895 80.6885 61.3283H80.662ZM87.9143 65.6462C87.8687 65.6482 87.8231 65.6407 87.7806 65.624C87.7381 65.6073 87.6996 65.5818 87.6676 65.5493C87.6355 65.5169 87.6103 65.4783 87.5936 65.4359C87.577 65.3935 87.5691 65.3481 87.5706 65.3025V60.8437C87.6114 60.8362 87.6532 60.8362 87.694 60.8437C87.7524 60.8344 87.8119 60.8344 87.8702 60.8437C88.0994 60.8437 88.2139 60.9406 88.2139 61.1433V65.1527H90.4786C90.5105 65.1885 90.5347 65.2304 90.5499 65.2759C90.565 65.3213 90.5708 65.3694 90.5667 65.4171C90.5696 65.4938 90.5445 65.569 90.4962 65.6286C90.4713 65.6548 90.4412 65.6754 90.4078 65.689C90.3744 65.7027 90.3384 65.7091 90.3023 65.7079L87.9143 65.6462Z" fill="#FEFEFE"/>
</svg>
