<svg width="129" height="145" viewBox="0 0 129 145" fill="none" xmlns="http://www.w3.org/2000/svg">
<path fill-rule="evenodd" clip-rule="evenodd" d="M42.8469 16.8099H49.6086C49.3548 14.8005 49.5153 12.7604 50.0802 10.8153C50.6451 8.87034 51.6024 7.06166 52.8931 5.50085C54.1839 3.94004 55.7807 2.66018 57.5851 1.74018C59.3895 0.820194 61.3632 0.279577 63.3845 0.151671C65.4059 0.0237652 67.432 0.311285 69.3379 0.996493C71.2439 1.6817 72.9893 2.75008 74.4665 4.13574C75.9437 5.5214 77.1214 7.19498 77.9269 9.05327C78.7325 10.9116 79.1489 12.9152 79.1503 14.9405C79.1504 15.5654 79.1118 16.1898 79.0348 16.8099H86.1896C90.7369 16.8099 94.1572 20.5415 94.4586 25.0789L97.3479 68.4174C97.6507 72.9548 93.6261 76.6865 89.0774 76.6865H39.5646C35.0159 76.6865 30.9504 72.952 31.2941 68.4174L34.5764 25.0789C34.9201 20.5443 38.2982 16.8099 42.8469 16.8099ZM77.6318 35.6794C79.0555 36.1893 79.7678 36.8692 79.7688 37.7192C79.7688 38.0009 79.6406 38.5165 79.3856 39.2828L73.262 56.9817C73.2041 57.1687 73.1296 57.3502 73.0394 57.524C72.9324 57.7372 72.6506 58.0189 72.1942 58.3692C71.7211 58.7117 71.1519 58.896 70.5679 58.896C69.9838 58.896 69.4146 58.7117 68.9415 58.3692C68.4842 58.0189 68.1813 57.6733 68.0329 57.3324L64.3013 46.3305C61.9422 53.3036 60.741 56.8539 60.6978 56.9817C60.6241 57.1722 60.5297 57.3541 60.4161 57.524C60.2694 57.7543 60.0984 57.9682 59.9062 58.1621C59.6794 58.3977 59.4068 58.5844 59.1052 58.7106C58.8036 58.8368 58.4793 58.8999 58.1523 58.8961C57.4724 58.8961 56.9141 58.7364 56.4774 58.4171C56.0407 58.0978 55.7482 57.779 55.5998 57.4606L55.3772 56.9817L49.2226 39.2828C48.9888 38.5813 48.8718 38.0601 48.8718 37.7192C48.8718 36.8739 49.5837 36.2043 51.0074 35.7104C51.5444 35.5126 52.1103 35.405 52.6824 35.392C53.1825 35.392 53.5642 35.561 53.8305 35.9019C54.0967 36.2428 54.3348 36.7626 54.5475 37.4642L58.0565 48.1167L61.5318 37.6234C61.8304 36.7321 62.3728 36.1156 63.1588 35.7737C63.5802 35.6109 64.0302 35.5352 64.4816 35.5512C65.0312 35.5533 65.5644 35.7381 65.9974 36.0766C66.4669 36.4269 66.7646 36.7725 66.8905 37.1134L70.5531 48.1801L74.0607 37.4642C74.2317 36.9749 74.3725 36.6138 74.4833 36.3809C74.6217 36.1079 74.8243 35.8725 75.0736 35.6949C75.3807 35.4643 75.7576 35.346 76.1414 35.3596C76.6556 35.3783 77.1628 35.486 77.6402 35.678L77.6318 35.6794ZM52.8711 16.8099H75.7624C76.0325 15.1512 75.9388 13.4537 75.4879 11.8348C75.037 10.2159 74.2396 8.71434 73.151 7.43411C72.0624 6.15388 70.7085 5.12556 69.1831 4.42034C67.6577 3.71513 65.9973 3.34988 64.3168 3.34988C62.6363 3.34988 60.9758 3.71513 59.4505 4.42034C57.9251 5.12556 56.5712 6.15388 55.4825 7.43411C54.3939 8.71434 53.5965 10.2159 53.1456 11.8348C52.6947 13.4537 52.6011 15.1512 52.8711 16.8099Z" fill="white"/>
<path d="M9.7566 94.4935H13.7009L16.1957 101.733L18.7229 94.4935H22.6349L18.8765 104.444L21.6488 111.406L27.8471 94.4315H32.4634L23.7139 116.306H20.0513L16.2 107.124L12.381 116.306H8.71839L-3.05176e-05 94.4315H4.55992L10.7694 111.409L13.4812 104.447L9.75378 94.4963L9.7566 94.4935ZM31.4139 111.591C31.396 110.61 31.7047 109.651 32.2915 108.865C32.8775 108.085 33.7002 107.483 34.7412 107.052C35.8909 106.611 37.1147 106.394 38.3461 106.415C39.0368 106.416 39.7266 106.468 40.4098 106.57C41.0349 106.652 41.6461 106.818 42.227 107.063V106.205C42.227 105.194 41.9241 104.417 41.3184 103.874C40.7127 103.331 39.8144 103.059 38.6236 103.057C37.7599 103.054 36.9031 103.21 36.0964 103.519C35.2064 103.875 34.3591 104.33 33.5706 104.876L32.2464 102.164C33.2618 101.49 34.366 100.962 35.5273 100.593C36.6678 100.241 37.8553 100.064 39.049 100.069C41.3489 100.069 43.1408 100.636 44.4246 101.769C45.7084 102.903 46.3503 104.523 46.3503 106.631V111.702C46.3503 112.125 46.4277 112.432 46.5813 112.616C46.7817 112.819 47.0515 112.938 47.3364 112.95V116.309C46.9659 116.369 46.632 116.421 46.3348 116.462C46.0847 116.499 45.8325 116.52 45.5797 116.524C44.758 116.524 44.1367 116.339 43.716 115.969C43.3068 115.62 43.0294 115.142 42.93 114.614L42.8384 113.781C42.1469 114.68 41.2485 115.399 40.2196 115.876C39.2198 116.358 38.1249 116.611 37.0149 116.616C36.0166 116.632 35.029 116.409 34.1355 115.963C33.3173 115.557 32.6249 114.936 32.1323 114.167C31.6468 113.398 31.3952 112.504 31.4082 111.594L31.4139 111.591ZM41.4579 112.392C41.6663 112.172 41.8518 111.932 42.0115 111.674C42.1412 111.476 42.2157 111.248 42.227 111.012V109.42C41.7096 109.213 41.1731 109.056 40.6253 108.952C40.0874 108.847 39.5408 108.792 38.9927 108.787C37.9249 108.787 37.0468 109.013 36.3584 109.465C35.67 109.917 35.3263 110.513 35.3272 111.253C35.3285 111.657 35.4459 112.053 35.6653 112.392C35.9086 112.768 36.2495 113.069 36.6514 113.266C37.1313 113.496 37.6591 113.608 38.1911 113.594C38.8135 113.594 39.4303 113.477 40.0097 113.25C40.5415 113.057 41.0326 112.766 41.4579 112.392ZM59.8188 103.736C58.6585 103.715 57.5092 103.963 56.4605 104.46C55.5319 104.885 54.7803 105.62 54.3348 106.539V116.306H50.2129V100.316H54.0023V103.612C54.5136 102.578 55.2629 101.681 56.1886 100.993C57.0033 100.382 57.9772 100.018 58.9933 99.9465H59.5103C59.6139 99.9445 59.7174 99.9544 59.8188 99.9761V103.736ZM68.0752 116.613C66.7309 116.619 65.396 116.389 64.1308 115.935C62.9184 115.511 61.8128 114.828 60.8908 113.933L62.3686 111.257C63.2264 111.972 64.1871 112.554 65.2183 112.983C66.074 113.336 66.9889 113.524 67.9146 113.536C68.7147 113.536 69.3566 113.395 69.8403 113.114C70.0665 112.995 70.2545 112.815 70.3827 112.594C70.5108 112.373 70.5738 112.121 70.5643 111.865C70.5727 111.695 70.5407 111.524 70.4709 111.368C70.4012 111.212 70.2956 111.074 70.1629 110.967C69.8139 110.712 69.4229 110.522 69.0077 110.403C68.5048 110.238 67.8935 110.06 67.1764 109.854C66.16 109.535 65.1625 109.159 64.1886 108.727C63.3866 108.363 62.7855 107.9 62.3855 107.341C61.9854 106.781 61.7854 106.067 61.7854 105.2C61.7854 104.146 62.0572 103.239 62.601 102.478C63.184 101.687 63.9729 101.07 64.8817 100.696C65.8565 100.273 66.9947 100.059 68.3161 100.059C69.4272 100.053 70.5313 100.235 71.5814 100.599C72.6297 100.971 73.5857 101.564 74.3847 102.338L72.7225 104.957C72.0094 104.383 71.2212 103.909 70.3798 103.549C69.6644 103.255 68.899 103.104 68.1259 103.102C67.7151 103.1 67.3059 103.152 66.9088 103.257C66.562 103.338 66.2431 103.509 65.9847 103.754C65.748 103.985 65.6297 104.314 65.6297 104.74C65.6195 104.903 65.6431 105.067 65.6988 105.221C65.7546 105.374 65.8413 105.515 65.9537 105.633C66.2391 105.889 66.5751 106.081 66.9398 106.197C67.3807 106.362 67.9258 106.542 68.5569 106.746C69.6737 107.051 70.7696 107.427 71.8378 107.873C72.7309 108.259 73.4038 108.729 73.8565 109.282C74.3091 109.835 74.535 110.599 74.534 111.572C74.534 113.149 73.9485 114.382 72.7774 115.27C71.6063 116.159 70.0351 116.603 68.0639 116.604L68.0752 116.613ZM92.3526 116.306H88.2237V107.376C88.2237 106.143 87.9828 105.225 87.4997 104.614C87.0165 104.002 86.3544 103.705 85.5134 103.705C84.9632 103.719 84.4244 103.864 83.9413 104.128C83.3751 104.417 82.8681 104.811 82.4467 105.287C82.005 105.777 81.6744 106.357 81.4775 106.987V116.307H77.3486V93.8145H81.4775V103.299C82.0559 102.299 82.8973 101.477 83.9103 100.921C84.9383 100.355 86.0951 100.064 87.2687 100.076C88.3167 100.076 89.169 100.256 89.8254 100.61C90.4577 100.942 90.9898 101.436 91.3665 102.043C91.743 102.66 92.0041 103.34 92.1371 104.05C92.2821 104.808 92.3542 105.579 92.3526 106.35V116.313V116.306ZM94.8474 111.591C94.8295 110.61 95.1382 109.651 95.725 108.865C96.3111 108.085 97.1337 107.483 98.1748 107.052C99.3244 106.611 100.548 106.394 101.78 106.415C102.47 106.416 103.16 106.468 103.843 106.57C104.468 106.652 105.08 106.818 105.661 107.063V106.205C105.661 105.194 105.358 104.417 104.752 103.874C104.146 103.331 103.248 103.059 102.057 103.057C101.193 103.054 100.337 103.21 99.5299 103.519C98.6399 103.875 97.7927 104.33 97.0041 104.876L95.68 102.164C96.6953 101.49 97.7996 100.962 98.9608 100.593C100.101 100.241 101.289 100.064 102.483 100.069C104.783 100.069 106.575 100.636 107.858 101.769C109.141 102.903 109.783 104.523 109.784 106.631V111.702C109.784 112.125 109.861 112.432 110.015 112.616C110.215 112.819 110.485 112.938 110.77 112.95V116.309C110.399 116.369 110.066 116.421 109.768 116.462C109.518 116.499 109.266 116.52 109.013 116.524C108.192 116.524 107.57 116.339 107.15 115.969C106.74 115.62 106.463 115.142 106.364 114.614L106.272 113.781C105.58 114.68 104.682 115.398 103.653 115.876C102.653 116.358 101.558 116.611 100.448 116.616C99.4502 116.632 98.4626 116.409 97.569 115.963C96.7506 115.558 96.0581 114.937 95.5658 114.167C95.0803 113.398 94.8288 112.504 94.8418 111.594L94.8474 111.591ZM104.891 112.392C105.1 112.172 105.285 111.932 105.445 111.674C105.575 111.476 105.649 111.248 105.661 111.012V109.42C105.143 109.213 104.607 109.056 104.059 108.952C103.521 108.847 102.974 108.792 102.426 108.787C101.358 108.787 100.48 109.013 99.7919 109.465C99.1036 109.917 98.7598 110.513 98.7608 111.253C98.7621 111.657 98.8794 112.053 99.0989 112.392C99.3419 112.768 99.6828 113.07 100.085 113.266C100.565 113.496 101.093 113.608 101.625 113.594C102.247 113.594 102.864 113.477 103.443 113.25C103.975 113.058 104.466 112.768 104.891 112.395V112.392ZM128.643 116.306H124.516V107.376C124.516 106.103 124.29 105.171 123.838 104.583C123.387 103.994 122.76 103.701 121.958 103.705C121.373 103.712 120.798 103.857 120.28 104.128C119.704 104.417 119.187 104.81 118.754 105.287C118.304 105.774 117.967 106.355 117.768 106.987V116.307H113.641V100.316H117.368V103.299C117.77 102.617 118.304 102.022 118.939 101.548C119.604 101.057 120.35 100.685 121.142 100.449C121.997 100.193 122.884 100.065 123.776 100.069C124.782 100.069 125.608 100.249 126.256 100.603C126.875 100.93 127.388 101.427 127.735 102.036C128.083 102.665 128.322 103.349 128.439 104.058C128.573 104.813 128.64 105.577 128.639 106.343V116.306H128.643ZM41.0113 128.515C40.7681 128.296 40.5049 128.1 40.2253 127.93C39.7853 127.654 39.3214 127.419 38.8391 127.226C38.2617 126.988 37.6698 126.787 37.067 126.624C36.4346 126.45 35.7817 126.362 35.1258 126.362C33.9763 126.362 33.1085 126.579 32.5225 127.005C31.9365 127.43 31.6449 128.037 31.6449 128.818C31.6449 129.408 31.8294 129.88 32.1999 130.226C32.5704 130.573 33.124 130.873 33.8636 131.114C34.6032 131.355 35.5273 131.628 36.6359 131.915C37.9235 132.209 39.1777 132.634 40.3788 133.183C41.4363 133.686 42.2477 134.339 42.813 135.144C43.3784 135.949 43.6601 137.017 43.6583 138.349C43.6583 139.513 43.4427 140.509 43.0117 141.337C42.5982 142.148 41.9831 142.84 41.2254 143.346C40.4373 143.871 39.5606 144.25 38.6377 144.464C37.6287 144.706 36.5943 144.825 35.5568 144.819C34.4592 144.818 33.3646 144.704 32.2901 144.48C31.2142 144.258 30.1622 143.933 29.1487 143.509C28.1712 143.104 27.2411 142.593 26.375 141.985L28.2542 138.322C28.5581 138.596 28.8884 138.838 29.2403 139.046C29.793 139.385 30.3698 139.684 30.9659 139.939C31.6836 140.251 32.4257 140.504 33.1846 140.694C33.9793 140.899 34.7967 141.003 35.6174 141.003C36.7683 141.003 37.6403 140.807 38.2362 140.423C38.4944 140.252 38.7094 140.024 38.8639 139.757C39.0184 139.489 39.1082 139.189 39.1261 138.88C39.1441 138.571 39.0896 138.263 38.9672 137.979C38.8447 137.695 38.6576 137.443 38.4207 137.245C37.9488 136.874 37.2938 136.556 36.4486 136.278C35.6033 136.001 34.6172 135.698 33.4593 135.375C32.2692 135.055 31.1137 134.618 30.0094 134.071C29.0853 133.588 28.3965 132.982 27.9457 132.239C27.4949 131.497 27.2681 130.587 27.2681 129.477C27.2681 127.988 27.6221 126.737 28.3302 125.724C29.0526 124.698 30.0516 123.898 31.211 123.418C32.4891 122.886 33.8625 122.62 35.2469 122.638C36.2277 122.632 37.2055 122.746 38.1587 122.977C39.0425 123.193 39.9037 123.492 40.731 123.87C41.4812 124.212 42.2025 124.614 42.8877 125.072L41.0085 128.522L41.0113 128.515ZM55.7674 143.858C55.4181 144.002 54.9954 144.166 54.4996 144.351C53.9832 144.543 53.4523 144.692 52.912 144.798C52.3489 144.911 51.7761 144.967 51.2018 144.967C50.4843 144.974 49.7725 144.84 49.1071 144.571C48.4811 144.315 47.949 143.872 47.5829 143.303C47.2072 142.723 47.0194 141.965 47.0194 141.028V131.842H44.8937V128.67H47.0194V123.432H51.1483V128.67H54.5292V131.842H51.1483V139.627C51.168 140.176 51.323 140.572 51.6103 140.813C51.9135 141.061 52.2964 141.191 52.688 141.178C53.1198 141.178 53.5485 141.105 53.9558 140.962C54.3671 140.818 54.6958 140.695 54.9419 140.592L55.773 143.858H55.7674ZM65.1338 144.967C63.9306 144.983 62.7363 144.76 61.6205 144.309C60.6134 143.902 59.7051 143.285 58.9567 142.498C58.2336 141.738 57.6681 140.843 57.293 139.863C56.9111 138.857 56.72 137.787 56.7295 136.711C56.7208 135.629 56.9118 134.555 57.293 133.542C57.6655 132.557 58.2311 131.656 58.9567 130.893C59.7055 130.106 60.6137 129.488 61.6205 129.08C63.8965 128.204 66.4162 128.204 68.6922 129.08C69.6825 129.488 70.5788 130.094 71.3257 130.861C72.0727 131.629 72.6544 132.541 73.0352 133.542C73.4164 134.555 73.6074 135.629 73.5987 136.711C73.6082 137.787 73.4171 138.857 73.0352 139.863C72.6601 140.843 72.0946 141.738 71.3715 142.498C70.6231 143.285 69.7148 143.902 68.7077 144.309C67.5718 144.763 66.3569 144.987 65.1338 144.967ZM60.9077 136.742C60.9149 137.587 61.1154 138.419 61.4937 139.174C61.8361 139.859 62.3581 140.438 63.0039 140.849C63.6404 141.267 64.3859 141.489 65.1474 141.486C65.9089 141.483 66.6528 141.256 67.2863 140.834C67.9313 140.411 68.4563 139.829 68.8105 139.143C69.2057 138.385 69.412 137.542 69.412 136.686C69.412 135.83 69.2057 134.987 68.8105 134.229C68.4623 133.54 67.9421 132.953 67.3004 132.524C66.6671 132.107 65.9182 131.9 65.1606 131.934C64.3981 131.922 63.6487 132.132 63.0039 132.539C62.3549 132.954 61.8325 133.539 61.4937 134.23C61.1151 135.013 60.9186 135.872 60.919 136.742H60.9077ZM85.9825 132.093C84.8223 132.073 83.6731 132.321 82.6242 132.817C81.6962 133.243 80.9449 133.978 80.4985 134.896V144.654H76.3696V128.666H80.159V131.962C80.6707 130.928 81.4205 130.031 82.3467 129.343C83.1611 128.732 84.1343 128.368 85.15 128.295H85.674C85.7777 128.294 85.8812 128.304 85.9825 128.326V132.084V132.093ZM95.5616 144.971C94.3589 144.988 93.1649 144.764 92.0498 144.313C91.0432 143.906 90.1319 143.294 89.3732 142.517C88.6385 141.764 88.0576 140.874 87.6631 139.899C87.2616 138.907 87.0577 137.847 87.063 136.777C87.0457 135.32 87.4011 133.882 88.0956 132.601C88.7858 131.34 89.8091 130.292 91.0538 129.573C92.3367 128.806 93.8515 128.425 95.5983 128.428C97.3648 128.428 98.8744 128.809 100.127 129.573C101.345 130.298 102.341 131.342 103.008 132.592C103.673 133.836 104.017 135.227 104.008 136.637C104.008 136.878 103.998 137.13 103.977 137.383C103.956 137.635 103.936 137.845 103.917 138.008H91.4384C91.5023 138.761 91.751 139.487 92.1625 140.121C92.5432 140.709 93.0757 141.182 93.7036 141.492C94.3299 141.804 95.021 141.964 95.7208 141.959C96.5348 141.962 97.3358 141.755 98.0466 141.358C98.7763 140.958 99.2745 140.429 99.5412 139.772L103.084 140.758C102.682 141.595 102.11 142.34 101.405 142.946C100.648 143.599 99.7754 144.105 98.8326 144.439C97.7854 144.804 96.682 144.983 95.5729 144.967L95.5616 144.971ZM91.3356 135.392H99.799C99.7364 134.649 99.4989 133.931 99.1059 133.297C98.7359 132.715 98.2208 132.24 97.6113 131.917C96.9765 131.579 96.2665 131.407 95.5475 131.418C94.8435 131.409 94.1488 131.58 93.5303 131.917C92.9275 132.243 92.4183 132.719 92.0512 133.297C91.6552 133.928 91.4139 134.643 91.3468 135.385L91.3356 135.392Z" fill="white"/>
</svg>
