<svg width="92" height="93" viewBox="0 0 92 93" fill="none" xmlns="http://www.w3.org/2000/svg">
<path fill-rule="evenodd" clip-rule="evenodd" d="M0 92.1221H92V0.12207H0V92.1221ZM14.6559 28.0237L14.6107 74.5516C16.6052 74.5516 19.0787 74.9286 20.9036 74.2537C21.0092 68.3981 21.0469 62.535 21.077 56.6794C21.1034 50.9785 21.6275 45.6998 24.8777 42.7286C28.2712 39.6293 33.4066 38.5434 37.8746 41.4316C41.958 44.0709 42.6707 48.0865 42.8667 54.4247C43.4625 73.8239 62.6392 79.129 72.9553 71.5691C75.9716 69.3596 79.9344 63.8132 80.2436 61.0117C71.6167 60.8798 75.342 60.827 71.9825 64.2204C70.5798 65.6419 70.0633 66.1698 68.2723 67.2783C65.2559 69.1636 61.7267 69.5934 57.8959 68.1794C41.6639 62.1844 57.1833 40.5719 38.5457 34.3732C31.3215 31.9526 23.4412 36.3791 20.9112 41.8049L20.9451 18.1413H14.5164L14.6559 28.0237ZM48.7826 37.827C49.5367 39.9799 50.3436 40.8434 50.8564 43.8598C54.0952 41.4919 56.7572 37.827 64.4528 38.9958C72.9515 40.2891 73.5548 47.0685 74.6557 47.4229H80.4057C79.5084 40.3193 74.6633 35.7758 68.4269 33.8755C61.0857 31.6396 52.719 33.4909 48.7826 37.827ZM42.5952 74.6345H49.2426C49.9477 70.1439 47.3084 74.167 42.731 65.4986L42.5952 74.6345Z" fill="#FEFEFE"/>
</svg>
