<svg width="156" height="40" viewBox="0 0 156 40" fill="none" xmlns="http://www.w3.org/2000/svg">
<path d="M14.8214 34.6175C10.7301 34.6175 7.27731 33.2244 4.46294 30.4383C1.64858 27.6521 0.237049 24.1461 0.228363 19.9202C0.228363 15.7769 1.64858 12.2915 4.489 9.46408C7.32943 6.63669 10.8756 5.22516 15.1276 5.2295C20.1591 5.2295 24.1157 7.22193 26.9974 11.2068L21.2644 15.6466C19.5142 13.475 17.4414 12.3892 15.0461 12.3892C14.1267 12.3661 13.2139 12.5503 12.3754 12.9281C11.5369 13.3059 10.7942 13.8677 10.2024 14.5716C8.92184 16.0614 8.24448 17.9761 8.30338 19.9398C8.30338 22.094 8.9364 23.891 10.2024 25.3307C10.798 26.0287 11.5419 26.5849 12.38 26.9585C13.218 27.3322 14.1289 27.5139 15.0461 27.4904C16.2741 27.527 17.4887 27.2262 18.5576 26.6206C19.651 25.9341 20.6202 25.0673 21.4241 24.0571L27.3199 28.2558C25.9519 30.1744 24.1893 31.7782 22.1505 32.9595C20.2069 34.0648 17.7639 34.6175 14.8214 34.6175Z" fill="#FEFEFE"/>
<path d="M37.5545 34.0474L49.584 5.58447H57.1346L69.1673 34.0474H60.7698L58.7111 29.0017H47.8087L45.7892 34.0474H37.5545ZM50.1117 22.8909H56.4505L53.3007 14.8582L50.1117 22.8909Z" fill="#FEFEFE"/>
<path d="M78.9264 39.7018V27.1838H81.4313C82.4632 24.4022 83.2002 21.5199 83.63 18.5843C84.0773 15.5984 84.2999 11.5745 84.2978 6.51253V5.78613H105.816V27.1838H109.008L108.119 39.7018H101.497V34.0471H86.4835L85.959 39.7018H78.9264ZM89.6268 27.1838H97.9852V12.6494H91.8483V12.9328C91.882 17.7719 91.1317 22.5845 89.6268 27.1838Z" fill="#FEFEFE"/>
<path fill-rule="evenodd" clip-rule="evenodd" d="M146.321 30.3342C143.403 33.1898 139.776 34.6176 135.442 34.6176C131.107 34.6176 127.492 33.1963 124.595 30.3537C122.82 28.6557 121.521 26.5216 120.829 24.1647C120.712 20.422 120.582 15.8194 122.044 12.6695C122.747 11.4307 123.625 10.2997 124.65 9.31114C127.582 6.45768 131.165 5.22314 135.517 5.22314C139.868 5.22314 143.465 6.64335 146.357 9.48378C147.259 10.3584 148.047 11.3434 148.702 12.4154C150.39 15.5783 150.24 20.2135 150.119 24.1224C149.412 26.4818 148.101 28.6153 146.315 30.3114L146.321 30.3342ZM135.523 27.5491C136.498 27.5813 137.468 27.399 138.365 27.0152C139.261 26.6313 140.063 26.0552 140.712 25.3276C142.045 23.8456 142.759 21.9095 142.709 19.9171C142.747 17.9212 142.009 15.9884 140.65 14.5262C139.995 13.798 139.19 13.2205 138.29 12.8336C137.391 12.4467 136.418 12.2596 135.438 12.2851C134.47 12.2561 133.507 12.44 132.618 12.8238C131.729 13.2077 130.935 13.7822 130.292 14.5066C128.995 16.0092 128.285 17.9298 128.292 19.9147C128.299 21.8995 129.023 23.8149 130.331 25.3081C130.981 26.0366 131.782 26.6146 132.678 27.0016C133.574 27.3887 134.544 27.5755 135.52 27.5491H135.523Z" fill="#FEFEFE"/>
<path fill-rule="evenodd" clip-rule="evenodd" d="M148.781 10.3013C151.211 14.0473 151.106 19.6891 151.142 23.9334C155.755 24.0963 155.491 21.6793 155.556 18.8389C155.598 16.9171 156.686 14.3437 153.54 13.3405C153.422 13.3014 150.566 0.144872 135.51 0.12207H135.455C120.399 0.144872 117.539 13.575 117.438 13.6141C114.445 14.6174 115.389 16.7086 115.432 18.6272C115.494 21.4709 115.223 24.3699 119.836 24.2103C119.871 19.9757 119.422 14.2721 121.852 10.5294C127.389 1.96573 143.233 1.73446 148.781 10.3079V10.3013Z" fill="#FEFEFE"/>
</svg>
