<svg width="411" height="282" viewBox="0 0 411 282" fill="none" xmlns="http://www.w3.org/2000/svg">
<path d="M-9.2377 169.974C61.8486 160.35 224.75 200.938 149.358 262.102C73.9653 323.266 52.2327 67.2481 389.415 16.5959" stroke="#333333" stroke-width="2"/>
<path fill-rule="evenodd" clip-rule="evenodd" d="M399.74 4.46097C399.313 4.54157 398.868 4.62549 398.397 4.70736C398.298 4.44404 398.175 4.19063 398.029 3.95055C397.886 3.74826 397.748 3.5378 397.61 3.32683C397.236 2.75529 396.86 2.18006 396.36 1.75363C393.008 -1.10279 388.039 -0.0864996 385.764 2.07582C383.781 3.95704 382.925 6.31613 383.005 8.93038C383.082 11.2383 383.672 13.5001 384.733 15.5514C385.649 17.3389 386.729 19.0276 387.81 20.717C388.229 21.3716 388.648 22.0264 389.057 22.6871C390.037 24.272 390.906 25.9003 391.384 27.7144C391.432 27.8997 391.492 28.0824 391.551 28.2649C391.626 28.4937 391.7 28.7223 391.752 28.9556C391.903 29.6908 392.4 29.9395 393.265 30C393.368 29.9009 393.488 29.8003 393.615 29.6947C393.913 29.4453 394.245 29.1681 394.45 28.8172C395.931 26.2743 398.064 24.4407 400.593 23.0309C401.351 22.605 402.119 22.1997 402.886 21.7946C403.981 21.2167 405.075 20.6393 406.135 20.0036C407.854 18.9808 409.39 17.718 410.004 15.679C411.117 11.9771 410.41 8.7336 407.679 5.92259C406.166 4.38302 404.349 3.81865 402.274 4.04786C401.45 4.13853 400.634 4.29252 399.74 4.46097Z" fill="#FFD5A4"/>
</svg>
