<svg width="89" height="82" viewBox="0 0 89 82" fill="none" xmlns="http://www.w3.org/2000/svg">
<path d="M76.9099 22.0477C76.5337 19.0378 74.6525 16.5923 72.207 14.7111L71.2664 13.9586L70.5139 14.8992C69.0089 16.5923 68.4446 19.6022 68.6327 21.8596C68.8208 23.5526 69.3852 25.2457 70.3258 26.5625C69.5733 26.9388 68.6327 27.315 67.8802 27.6913C66.1872 28.2556 64.4941 28.4437 62.801 28.4437H14.0783L13.8902 29.5724C13.514 33.1467 14.0783 36.9091 15.5833 40.2952L16.3358 41.612V41.8001C20.8506 49.3249 28.9397 52.711 37.7813 52.711C54.7119 52.711 68.6327 45.3744 75.2169 29.5724C79.5436 29.7606 83.8703 28.6318 85.9396 24.4932L86.504 23.5526L85.5634 22.9883C83.1178 21.4833 79.7317 21.2952 76.9099 22.0477ZM52.6426 19.0378H45.306V26.3744H52.6426V19.0378ZM52.6426 9.81999H45.306V17.1566H52.6426V9.81999ZM52.6426 0.414062H45.306V7.75069H52.6426V0.414062ZM61.6723 19.0378H54.3357V26.3744H61.6723V19.0378ZM34.3951 19.0378H27.0585V26.3744H34.3951V19.0378ZM43.6129 19.0378H36.2763V26.3744H43.6129V19.0378ZM25.3654 19.0378H18.0288V26.3744H25.3654V19.0378ZM43.6129 9.81999H36.2763V17.1566H43.6129V9.81999ZM34.3951 9.81999H27.0585V17.1566H34.3951V9.81999Z" fill="#B4B4B4"/>
<path d="M66.1136 76.8314C68.0886 75.1391 70.0635 73.5597 72.0385 71.8674C72.7356 71.3033 73.4326 70.7392 74.1297 70.0622C73.5488 69.3853 72.7356 68.934 71.9223 68.5956C70.4121 68.0315 68.9018 68.2571 67.3915 69.0469C65.5327 70.0622 64.7195 71.7545 64.8357 73.7853C64.8357 74.575 65.068 75.3648 65.5327 76.0417C65.8812 76.3802 65.9974 76.6058 66.1136 76.8314ZM68.4371 78.4109C69.3665 78.7494 70.5282 78.7494 71.5738 78.5237C72.0385 78.2981 73.4326 77.734 73.8973 77.8468H74.1297C74.4782 77.9596 74.7105 78.1853 74.8267 78.5237C75.1752 79.2007 75.0591 79.8776 74.362 80.216L74.1297 80.3289C71.5738 81.7955 68.9018 81.5699 66.3459 80.216C65.1842 79.5391 64.2548 78.6366 63.5577 77.5084L63.4416 77.2827C61.8151 74.575 62.0475 71.6417 63.9063 69.0469C64.4871 68.1443 65.4165 67.4674 66.3459 66.9033L66.6945 66.6776C69.1341 65.3238 71.69 65.4366 74.1297 66.5648C75.4076 67.2417 76.5693 68.1443 77.2664 69.3853L77.3826 69.611C77.9634 70.5135 77.2664 71.3033 76.4532 71.8674L74.0135 73.8981C71.9223 75.4776 70.1797 76.9443 68.4371 78.4109ZM87.3736 66.0007H87.606C88.4192 66.0007 89.0001 66.5648 89.0001 67.3546C89.0001 68.4828 87.9545 68.7084 87.0251 68.7084C85.8633 68.7084 84.7016 69.3853 83.8884 70.1751C82.8428 71.1904 82.3781 72.4315 82.3781 73.7853V80.1032C82.3781 80.7801 81.9134 81.4571 81.1002 81.4571H80.8678C80.0546 81.4571 79.5899 80.893 79.5899 80.1032V73.4468C79.5899 70.852 80.8678 68.8212 82.959 67.3546C84.4692 66.452 85.8633 66.0007 87.3736 66.0007ZM54.1476 70.4007L57.2843 67.3546C57.6328 67.1289 58.6784 65.8879 59.1431 65.8879H59.6078C60.1887 66.0007 60.6534 66.3392 60.6534 67.0161V67.2417C60.6534 67.693 60.0725 68.1443 59.8401 68.4828C59.2593 69.1597 58.5622 69.7238 57.9813 70.4007L54.7284 73.5597L58.9107 77.6212L60.0725 78.7494L60.5372 79.2007C60.6534 79.4263 60.7696 79.5391 60.7696 79.7648V80.1032C60.6534 80.6673 60.1887 81.1186 59.6078 81.1186H59.3754C58.9107 81.1186 58.446 80.6673 58.0975 80.3289C57.5166 79.7648 56.8196 79.2007 56.2387 78.5237L54.1476 76.6058V79.7648C54.1476 80.4417 53.6829 81.1186 52.8697 81.1186H52.6373C51.8241 81.1186 51.3594 80.5545 51.3594 79.7648V62.3905C51.3594 61.7136 51.8241 61.1495 52.6373 61.1495H52.8697C53.6829 61.1495 54.1476 61.7136 54.1476 62.3905V70.4007ZM45.5506 68.7084C45.2021 68.4828 44.3889 68.4828 43.9242 68.4828C41.7169 68.3699 40.0904 69.611 39.161 71.5289C38.8125 72.2058 38.6963 72.8827 38.6963 73.6725C38.6963 75.9289 39.8581 77.5084 41.9492 78.4109C42.6463 78.7494 43.6918 78.8622 44.5051 78.8622C45.2021 78.8622 46.2477 78.4109 46.8286 78.1853H47.4094C47.9903 78.2981 48.455 78.6366 48.455 79.3135V79.5391C48.455 81.1186 45.4345 81.4571 44.3889 81.5699C40.4389 81.7955 37.4184 79.6519 36.2566 76.0417C36.0243 75.3648 36.0243 74.8007 36.0243 74.1238V73.5597C36.0243 70.7392 37.4184 68.4828 39.9742 67.1289C41.136 66.452 42.4139 66.1135 43.808 66.1135H44.3889C45.783 66.1135 47.1771 66.452 48.3388 67.2417L48.455 67.3546L48.5712 67.4674C48.6874 67.693 48.8035 67.9187 48.8035 68.1443V68.3699C48.8035 69.0469 48.3388 69.3853 47.6418 69.4981H47.5256C46.7124 69.2725 45.783 68.8212 45.5506 68.7084ZM21.1539 73.5597C21.1539 75.4776 22.1995 76.9443 23.8259 77.9596C24.6391 78.4109 25.5685 78.6366 26.4979 78.6366C28.4729 78.6366 29.9832 77.6212 31.0288 76.0417C31.4935 75.252 31.7258 74.3494 31.7258 73.4468C31.7258 71.6417 30.7964 70.1751 29.2861 69.1597C28.4729 68.5956 27.4273 68.3699 26.4979 68.3699C24.2906 68.3699 22.6642 69.4981 21.7348 71.4161C21.1539 72.2058 21.1539 72.8827 21.1539 73.5597ZM26.0332 65.8879H26.3818C29.5185 65.8879 31.842 67.3546 33.3523 69.9494C33.9331 70.9648 34.2817 72.093 34.2817 73.334V73.8981C34.2817 76.7186 32.8876 78.975 30.3317 80.3289C29.17 81.0058 27.892 81.3442 26.4979 81.3442H25.9171C23.0127 81.3442 20.6892 79.9904 19.2951 77.5084C18.598 76.3802 18.2495 75.1391 18.2495 73.7853V73.2212C18.2495 70.4007 19.6436 68.1443 22.1995 66.7905C23.4774 66.2264 24.6391 65.8879 26.0332 65.8879ZM3.4953 73.5597C3.4953 75.5904 4.54088 77.1699 6.39968 78.0725C7.09673 78.4109 7.90995 78.6366 8.83935 78.6366C10.9305 78.6366 12.4408 77.734 13.4863 76.0417C13.951 75.252 14.1834 74.3494 14.1834 73.4468C14.1834 71.6417 13.3702 70.2879 11.8599 69.2725C10.9305 68.7084 10.0011 68.3699 8.83935 68.3699C6.63202 68.3699 5.00558 69.4981 4.07618 71.4161C3.72765 72.2058 3.4953 72.8827 3.4953 73.5597ZM14.1834 67.8058V62.2777C14.1834 61.6007 14.6481 60.9238 15.4613 60.9238H15.6937C16.5069 60.9238 16.9716 61.4879 16.9716 62.2777V73.8981C16.9716 76.7186 15.5775 78.975 13.0216 80.3289C11.8599 81.0058 10.582 81.3442 9.18788 81.3442H8.607C5.70263 81.3442 3.37913 79.9904 1.98503 77.5084C1.28798 76.3802 0.939453 75.1391 0.939453 73.7853V73.2212C0.939453 70.4007 2.33355 68.1443 4.8894 66.7905C6.05115 66.1135 7.32908 65.7751 8.72317 65.7751H9.30405C11.0467 65.8879 12.7893 66.5648 14.1834 67.8058Z" fill="#B4B4B4"/>
</svg>
