<svg width="84" height="77" viewBox="0 0 84 77" fill="none" xmlns="http://www.w3.org/2000/svg">
<path d="M41.9311 76.9997L57.1786 29.7324H26.6836L41.9311 76.9997Z" fill="#B4B4B4"/>
<path d="M41.9307 76.9997L26.375 29.7324H4.57422L41.9307 76.9997Z" fill="#848484"/>
<path d="M4.85701 29.7324L0.157529 44.0955C-0.273824 45.4054 0.202935 46.8507 1.31537 47.6412L41.9307 76.9997L4.85701 29.7324Z" fill="#B4B4B4"/>
<path d="M4.57422 29.7327H26.6831L17.1714 1.10668C16.6842 -0.368892 14.5499 -0.368892 14.0627 1.10668L4.57422 29.7327Z" fill="#B4B4B4"/>
<path d="M41.9316 76.9997L57.4873 29.7324H79.2881L41.9316 76.9997Z" fill="#848484"/>
<path d="M79.0053 29.7324L83.7048 44.0955C84.1362 45.4054 83.6594 46.8507 82.547 47.6412L41.9316 76.9997L79.0053 29.7324Z" fill="#B4B4B4"/>
<path d="M79.2866 29.7327H57.1777L66.6894 1.10668C67.1766 -0.368892 69.311 -0.368892 69.7981 1.10668L79.2866 29.7327Z" fill="#B4B4B4"/>
</svg>
