<svg width="80" height="80" viewBox="0 0 80 80" fill="none" xmlns="http://www.w3.org/2000/svg">
<path d="M44.39 59.8055C64.1415 44.7949 50.5788 13.7279 33.5287 16.3898C1.45553 21.3971 9.47785 65.9723 20.1636 74.259C3.44406 65.9984 -3.50414 45.5026 1.6908 28.0844C5.80628 14.2854 18.6386 0.619133 38.0794 0.0953768C68.7617 -2.70327 77.9032 56.9961 44.39 59.8055ZM34.2574 20.3436C16.7105 21.2385 12.9258 38.962 14.3681 51.7676C16.4726 70.4515 28.3123 82.5826 46.7985 79.5307C75.201 74.8417 98.6584 29.7299 58.7424 4.52842C73.447 21.6571 73.5834 56.3586 49.4261 62.5174C27.0853 69.2522 16.9143 33.1855 34.2574 20.3436Z" fill="#B4B4B4"/>
</svg>
