<svg width="83" height="80" viewBox="0 0 83 80" fill="none" xmlns="http://www.w3.org/2000/svg">
<path d="M75.5208 17.7924C75.0476 16.2782 73.9119 15.0479 72.4923 14.2907L43.6269 0.473203C42.8698 0.0946406 42.018 0 41.2609 0C40.5038 0 39.652 0 38.8949 0.189281L10.0295 14.1015C8.60987 14.7639 7.56882 15.9943 7.19026 17.6032L0.0922139 48.7399C-0.191708 50.3488 0.186855 51.9577 1.13326 53.2827L21.1024 77.9839C22.2381 79.1196 23.847 79.8767 25.4559 79.9713H57.2551C58.9587 80.1606 60.5676 79.4035 61.6086 77.9839L81.5778 53.2827C82.5242 51.9577 82.9028 50.3488 82.7135 48.7399L75.5208 17.7924Z" fill="#B4B4B4"/>
<path d="M71.0724 47.5086C70.9778 47.5086 70.8831 47.5086 70.8831 47.414C70.8831 47.3193 70.6939 47.3193 70.5046 47.3193C70.126 47.2247 69.7474 47.2247 69.3689 47.2247C69.1796 47.2247 68.9903 47.2247 68.801 47.13H68.7064C67.6653 47.0354 66.5297 46.8461 65.4886 46.5622C65.2047 46.4676 64.9208 46.1836 64.8261 45.8997C64.9208 45.8997 64.8261 45.8997 64.8261 45.8997L64.069 45.7104C64.4476 42.9659 64.2583 40.1266 63.6904 37.3821C63.028 34.6375 61.8923 31.9875 60.378 29.6215L60.9459 29.0537V28.959C60.9459 28.6751 61.0405 28.2966 61.2298 28.1073C62.0816 27.3501 62.9333 26.7823 63.8797 26.2145C64.069 26.1198 64.2583 26.0252 64.4476 25.9305C64.8261 25.7413 65.1101 25.552 65.4886 25.3627C65.5833 25.2681 65.6779 25.2681 65.7725 25.1734C65.8672 25.0788 65.7725 25.0788 65.7725 24.9841C66.6243 24.3216 66.8136 23.186 66.1511 22.3342C65.8672 21.9556 65.2993 21.6717 64.8261 21.6717C64.3529 21.6717 63.8797 21.861 63.5012 22.1449L63.4065 22.2396C63.3119 22.3342 63.2172 22.4288 63.1226 22.4288C62.8387 22.7128 62.5548 22.9967 62.3655 23.2806C62.2708 23.4699 62.0816 23.5645 61.9869 23.6592C61.3244 24.4163 60.4727 25.1734 59.6209 25.7413C59.4316 25.8359 59.2423 25.9305 59.0531 25.9305C58.9584 25.9305 58.7691 25.9305 58.6745 25.8359H58.5798L57.8227 26.3091C57.0656 25.552 56.2138 24.7949 55.4567 24.0377C51.955 21.2931 47.6015 19.5896 43.1534 19.1164L43.0588 18.3593V18.4539C42.7749 18.2646 42.6802 17.9807 42.5856 17.6968C42.5856 16.6558 42.5856 15.6147 42.7749 14.479V14.3844C42.7749 14.1951 42.8695 14.0058 42.8695 13.8165C42.9641 13.438 42.9641 13.0594 43.0588 12.6809V12.113C43.1534 11.1666 42.3963 10.2202 41.4499 10.1256C40.8821 10.0309 40.3142 10.3148 39.841 10.788C39.4624 11.1666 39.2732 11.6398 39.2732 12.113V12.5862C39.2732 12.9648 39.3678 13.3433 39.4624 13.7219C39.5571 13.9112 39.5571 14.1005 39.5571 14.2897V14.3844C39.7464 15.4254 39.7464 16.4665 39.7464 17.6022C39.6517 17.8861 39.5571 18.17 39.2732 18.3593V18.5486L39.1785 19.3057C38.1375 19.4003 37.0964 19.5896 35.9607 19.7789C31.5126 20.7253 27.4431 23.0913 24.3199 26.4037L23.7521 26.0252H23.6575C23.5628 26.0252 23.4682 26.1198 23.2789 26.1198C23.0896 26.1198 22.9003 26.0252 22.7111 25.9305C21.8593 25.2681 21.0075 24.5109 20.345 23.7538C20.2504 23.5645 20.0611 23.4699 19.9665 23.3752C19.6826 23.0913 19.4933 22.8074 19.2094 22.5235C19.1147 22.4288 19.0201 22.4288 18.9254 22.3342C18.8308 22.2396 18.8308 22.2396 18.8308 22.2396C18.4522 21.9556 17.979 21.7664 17.5058 21.7664C16.938 21.7664 16.4648 21.9556 16.1809 22.4288C15.613 23.2806 15.8023 24.4163 16.5594 25.0788C16.6541 25.0788 16.6541 25.1734 16.6541 25.1734C16.6541 25.1734 16.8433 25.3627 16.938 25.3627C17.2219 25.552 17.6005 25.7413 17.979 25.9305C18.1683 26.0252 18.3576 26.1198 18.5469 26.2145C19.4933 26.7823 20.4397 27.3501 21.1968 28.1073C21.3861 28.2966 21.5754 28.6751 21.4807 28.959V28.8644L22.0486 29.4322C21.9539 29.6215 21.8593 29.7162 21.7646 29.9054C18.8308 34.5428 17.6005 40.032 18.4522 45.4265L17.6951 45.6158C17.6951 45.7104 17.6005 45.7104 17.6005 45.7104C17.5058 45.9944 17.2219 46.1836 16.938 46.3729C15.8969 46.6568 14.8559 46.8461 13.7202 46.9408C13.5309 46.9408 13.3416 46.9408 13.1524 47.0354C12.7738 47.0354 12.3952 47.13 12.0167 47.13C11.922 47.13 11.8274 47.2247 11.6381 47.2247C11.5435 47.2247 11.5435 47.2247 11.4488 47.3193C10.4078 47.5086 9.74529 48.455 9.93457 49.4961C10.1239 50.3478 10.9756 50.9157 11.8274 50.821C12.0167 50.821 12.1113 50.821 12.3006 50.7264C12.3952 50.7264 12.3952 50.7264 12.3952 50.6317C12.3952 50.5371 12.6791 50.6317 12.7738 50.6317C13.1524 50.5371 13.5309 50.3478 13.8148 50.2532C14.0041 50.1585 14.1934 50.0639 14.3827 50.0639H14.4773C15.5184 49.6853 16.4648 49.4014 17.6005 49.2121H17.6951C17.979 49.2121 18.2629 49.3068 18.4522 49.4961C18.5469 49.4961 18.5469 49.5907 18.5469 49.5907L19.3986 49.4961C20.8182 53.8495 23.4682 57.7298 27.1592 60.569C28.0109 61.2315 28.7681 61.7993 29.7145 62.2725L29.2413 62.935C29.2413 63.0297 29.3359 63.0297 29.3359 63.0297C29.5252 63.3136 29.5252 63.6921 29.4305 63.9761C29.052 64.9225 28.4841 65.8689 27.9163 66.7206V66.8153C27.8216 67.0046 27.727 67.0992 27.5377 67.2885C27.3484 67.4778 27.1592 67.8563 26.8752 68.2349C26.7806 68.3295 26.7806 68.4242 26.686 68.5188C26.686 68.5188 26.686 68.6135 26.5913 68.6135C26.1181 69.5599 26.4967 70.6956 27.3484 71.1688C27.5377 71.2634 27.8216 71.358 28.0109 71.358C28.7681 71.358 29.4305 70.8848 29.8091 70.2223C29.8091 70.2223 29.8091 70.1277 29.9037 70.1277C29.9037 70.0331 29.9984 69.9384 30.093 69.8438C30.1877 69.4652 30.3769 69.1813 30.4716 68.8027L30.6609 68.2349C30.9448 67.1939 31.418 66.2474 31.8912 65.301C32.0805 65.0171 32.3644 64.8278 32.6483 64.7332C32.743 64.7332 32.743 64.7332 32.743 64.6386L33.1215 63.8814C35.7715 64.9225 38.516 65.3957 41.3553 65.3957C43.0588 65.3957 44.7623 65.2064 46.4659 64.7332C47.5069 64.5439 48.5479 64.1654 49.4944 63.8814L49.8729 64.5439C49.9676 64.5439 49.9676 64.5439 49.9676 64.6386C50.2515 64.7332 50.5354 64.9225 50.7247 65.2064C51.1979 66.1528 51.6711 67.0992 51.955 68.1403V68.2349L52.1443 68.8027C52.2389 69.1813 52.3336 69.5599 52.5229 69.8438C52.6175 69.9384 52.6175 70.0331 52.7121 70.1277C52.7121 70.1277 52.7121 70.2223 52.8068 70.2223C53.1853 70.8848 53.8478 71.358 54.6049 71.358C54.8889 71.358 55.0781 71.2634 55.3621 71.1688C55.7406 70.9795 56.1192 70.6009 56.2138 70.1277C56.3085 69.6545 56.3085 69.1813 56.1192 68.7081C56.1192 68.6135 56.0246 68.6135 56.0246 68.6135C56.0246 68.5188 55.9299 68.4242 55.8353 68.3295C55.646 67.951 55.4567 67.6671 55.1728 67.3831C55.0781 67.1938 54.9835 67.0992 54.7942 66.9099V66.7206C54.1317 65.8689 53.6585 64.9225 53.28 63.9761C53.1853 63.6921 53.1853 63.3136 53.3746 63.0297C53.3746 62.935 53.4693 62.935 53.4693 62.935L53.1853 62.1779C58.012 59.244 61.703 54.7013 63.4065 49.3068L64.1637 49.4014C64.2583 49.4014 64.2583 49.3068 64.2583 49.3068C64.4476 49.1175 64.7315 49.0229 65.0154 49.0229H65.1101C66.1511 49.2121 67.1921 49.4961 68.1386 49.8746H68.2332C68.4225 49.9693 68.6118 50.0639 68.801 50.0639C69.1796 50.2532 69.4635 50.4425 69.8421 50.5371C69.9367 50.5371 70.0314 50.6317 70.2206 50.6317C70.3153 50.6317 70.3153 50.6317 70.4099 50.7264C70.5992 50.821 70.6939 50.821 70.8831 50.821C71.7349 50.821 72.492 50.2532 72.7759 49.4961C72.6813 48.455 71.9242 47.6979 71.0724 47.5086ZM43.7213 44.5747L41.166 45.8051L38.6107 44.5747L37.9482 41.8302L39.7464 39.5588H42.5856L44.3838 41.8302L43.7213 44.5747ZM59.1477 38.4231C59.6209 40.4106 59.7155 42.398 59.5263 44.3855L50.5354 41.8302C49.6836 41.6409 49.2104 40.7891 49.3997 39.9374C49.4944 39.6534 49.589 39.4641 49.7783 39.2749L56.8763 32.8393C57.9174 34.5428 58.6745 36.4356 59.1477 38.4231ZM54.0371 29.3376L46.2766 34.8268C45.6141 35.2053 44.6677 35.1107 44.1945 34.4482C44.0052 34.2589 43.9106 34.0696 43.9106 33.7857L43.3427 24.227C47.5069 24.7002 51.1979 26.4984 54.0371 29.3376ZM36.9071 24.5109L38.8 24.1324L38.3268 33.5964C38.3268 34.4482 37.5696 35.1107 36.7179 35.1107C36.4339 35.1107 36.2447 35.016 35.9607 34.9214L28.1056 29.3376C30.5662 26.9716 33.5947 25.2681 36.9071 24.5109ZM25.361 32.8393L32.3644 39.0856C33.0269 39.6534 33.1215 40.5998 32.5537 41.2623C32.3644 41.5462 32.1751 41.6409 31.7966 41.7355L22.6164 44.3855C22.3325 40.4106 23.2789 36.341 25.361 32.8393ZM23.7521 48.8336L33.1215 47.2247C33.8786 47.2247 34.6358 47.6979 34.7304 48.455C34.8251 48.7389 34.8251 49.1175 34.6358 49.4014L31.0394 58.1084C27.727 55.9316 25.0771 52.6192 23.7521 48.8336ZM45.2355 60.569C43.9106 60.8529 42.5856 61.0422 41.166 61.0422C39.1785 61.0422 37.0964 60.6637 35.2036 60.0958L39.841 51.6728C40.3142 51.1049 41.0713 50.9157 41.7338 51.2942C42.0177 51.4835 42.207 51.6728 42.4909 51.9567L47.0337 60.1904C46.4659 60.2851 45.898 60.3797 45.2355 60.569ZM56.7817 52.3353C55.3621 54.6066 53.3746 56.5941 51.1032 58.0137L47.4123 49.1175C47.223 48.3604 47.6015 47.6032 48.264 47.3193C48.5479 47.2247 48.8319 47.13 49.1158 47.13L58.5798 48.7389C58.1066 50.0639 57.5388 51.2942 56.7817 52.3353Z" fill="#F2F2F7"/>
</svg>
