<svg width="123" height="30" viewBox="0 0 123 30" fill="none" xmlns="http://www.w3.org/2000/svg">
<path d="M4.83207 0V25.1638H13.9085V29.4978H0V0H4.83207ZM30.9513 12.5109V9.85808H35.544V29.5087H30.9731V26.845C30.3419 27.8275 29.4712 28.5917 28.3394 29.1376C27.2076 29.7162 26.054 29.9891 24.9113 29.9891C23.4203 29.9891 22.0599 29.7162 20.8301 29.1703C19.628 28.6477 18.5463 27.8821 17.6523 26.9214C16.766 25.9682 16.0647 24.8575 15.5845 23.6463C15.09 22.3808 14.8424 21.0317 14.8553 19.6725C14.8553 18.2969 15.1056 16.976 15.5954 15.7424C16.0699 14.5152 16.7714 13.3891 17.6632 12.4236C18.5489 11.4577 19.6232 10.6848 20.8192 10.1528C22.0599 9.60699 23.4312 9.33406 24.9004 9.33406C26.0431 9.33406 27.1858 9.6179 28.3176 10.1747C29.4495 10.7424 30.3201 11.5065 30.9296 12.4891L30.9513 12.5109ZM30.5378 22.0852C30.8245 21.317 30.9719 20.5036 30.9731 19.6834C30.9731 18.8319 30.8207 18.0459 30.5378 17.2817C30.2772 16.5463 29.8782 15.8681 29.3624 15.2838C28.8478 14.7218 28.2261 14.2689 27.5341 13.952C26.79 13.6095 25.9802 13.4344 25.1616 13.4389C24.2909 13.4389 23.5073 13.6245 22.8108 13.9629C22.1285 14.2808 21.5148 14.7296 21.0042 15.2838C20.4898 15.8653 20.0975 16.5447 19.8506 17.2817C19.5807 18.0533 19.4445 18.8656 19.448 19.6834C19.448 20.524 19.5786 21.321 19.8506 22.0852C20.1118 22.8493 20.5036 23.5044 21.0042 24.0502C21.5104 24.6206 22.1245 25.0845 22.8108 25.4148C23.5073 25.7424 24.2909 25.917 25.1616 25.917C26.0322 25.917 26.8267 25.7533 27.5341 25.4148C28.2282 25.0917 28.8501 24.6313 29.3624 24.0611C29.8746 23.4866 30.2734 22.8198 30.5378 22.0961V22.0852ZM39.1571 29.5087V9.85808H51.5856V14.3777H43.728V29.4978H39.1571V29.5087ZM68.1822 12.5109V9.85808H72.7531V29.5087H68.1822V26.845C67.5727 27.8275 66.6912 28.5917 65.5703 29.1376C64.4275 29.7162 63.2848 29.9891 62.1312 29.9891C60.6402 29.9891 59.2799 29.7162 58.0501 29.1703C56.848 28.6477 55.7662 27.8821 54.8722 26.9214C53.9859 25.9682 53.2847 24.8575 52.8045 23.6463C52.3136 22.38 52.0698 21.031 52.0862 19.6725C52.0862 18.2969 52.3256 16.976 52.8153 15.7424C53.2898 14.5152 53.9914 13.3891 54.8831 12.4236C55.7689 11.4577 56.8431 10.6848 58.0392 10.1528C59.2799 9.60699 60.6511 9.33406 62.1203 9.33406C63.2631 9.33406 64.4058 9.6179 65.5376 10.1747C66.6694 10.7424 67.551 11.5065 68.1495 12.4891L68.1822 12.5109ZM67.7686 22.0852C68.0479 21.3157 68.188 20.5023 68.1822 19.6834C68.1822 18.8319 68.0407 18.0459 67.7686 17.2817C67.5113 16.5472 67.116 15.869 66.6041 15.2838C66.0832 14.7194 65.4539 14.2664 64.754 13.952C64.0466 13.6245 63.2522 13.4389 62.3924 13.4389C61.5218 13.4389 60.7382 13.6245 60.0308 13.9629C59.3485 14.2808 58.7348 14.7296 58.2242 15.2838C57.7098 15.8653 57.3174 16.5447 57.0706 17.2817C56.8044 18.054 56.6719 18.8663 56.6788 19.6834C56.6788 20.524 56.8094 21.321 57.0706 22.0852C57.3427 22.8493 57.7236 23.5044 58.2242 24.0502C58.7303 24.6206 59.3444 25.0845 60.0308 25.4148C60.7382 25.7424 61.5218 25.917 62.3924 25.917C63.2631 25.917 64.0466 25.7533 64.7649 25.4148C65.4668 25.0943 66.0963 24.6337 66.615 24.0611C67.1233 23.4857 67.5184 22.8189 67.7795 22.0961L67.7686 22.0852ZM91.1236 9.85808H95.7707L88.2614 29.5087H82.4934L74.9841 9.85808H79.6094L85.3774 24.9017L91.1236 9.869V9.85808ZM105.75 9.3559C111.986 9.3559 116.242 14.9017 115.436 21.3865H100.233C100.233 23.0677 101.952 26.3428 106.001 26.3428C109.483 26.3428 111.823 23.286 111.823 23.286L114.914 25.6878C112.139 28.6354 109.875 30 106.316 30C99.9824 30 95.6945 25.9607 95.6945 19.6616C95.6945 13.952 100.135 9.33406 105.74 9.33406L105.75 9.3559ZM100.254 17.9803H111.246C111.203 17.5983 110.593 13.0022 105.718 13.0022C100.82 13.0022 100.298 17.6092 100.254 17.9803ZM118.429 29.476V0H123V29.4978H118.429V29.476Z" fill="#B4B4B4"/>
</svg>
