<svg width="178" height="47" viewBox="0 0 178 47" fill="none" xmlns="http://www.w3.org/2000/svg">
<path d="M20.7308 18.704C18.2535 7.78078 13.0902 4.87289 11.7731 2.81732C11.23 1.91179 10.7488 0.970527 10.333 0C10.2634 0.970374 10.1356 1.58171 9.31038 2.31758C7.65346 3.79416 0.616398 9.52584 0.0241787 21.9369C-0.527589 33.5086 8.53531 40.6441 9.7327 41.3816C10.6534 41.8344 11.7747 41.3913 12.3216 40.9757C16.6905 37.9788 22.6596 29.9894 20.7357 18.704" fill="#B4B4B4"/>
<path d="M10.7091 35.2188C10.481 38.083 10.3176 39.7472 9.73828 41.3839C9.73828 41.3839 10.1185 44.1106 10.3855 46.9991H11.3305C11.5559 44.9651 11.9 42.9459 12.3612 40.952C11.1379 40.3504 10.7561 37.732 10.7091 35.2188Z" fill="#B4B4B4"/>
<path d="M12.3576 40.9549C11.1213 40.384 10.7637 37.7106 10.7087 35.22C11.0144 31.1115 11.1036 26.9898 10.9757 22.872C10.911 20.7113 11.0065 2.85963 10.4434 0.246094C10.8285 1.13127 11.2723 1.9898 11.7718 2.81597C13.0889 4.87316 18.2539 7.78105 20.7295 18.7042C22.6583 29.9703 16.7215 37.9387 12.3576 40.9549Z" fill="#B4B4B4"/>
<path d="M175.299 37.0049C174.77 37.0048 174.253 36.8483 173.812 36.5551C173.371 36.2619 173.027 35.8451 172.823 35.3569C172.619 34.8688 172.564 34.3313 172.664 33.8118C172.765 33.2924 173.017 32.8143 173.388 32.4376C173.76 32.061 174.235 31.8025 174.753 31.6948C175.271 31.5872 175.81 31.635 176.301 31.8324C176.792 32.0298 177.214 32.3679 177.513 32.8042C177.813 33.2405 177.976 33.7555 177.984 34.2846C177.993 34.6413 177.931 34.9962 177.8 35.3282C177.669 35.6601 177.472 35.9622 177.221 36.2162C176.971 36.4703 176.671 36.6711 176.341 36.8066C176.011 36.9421 175.656 37.0096 175.299 37.0049ZM175.299 31.8813C174.816 31.8781 174.342 32.0184 173.938 32.2845C173.534 32.5506 173.219 32.9305 173.031 33.3761C172.844 33.8216 172.793 34.3128 172.884 34.7874C172.976 35.262 173.207 35.6987 173.548 36.0421C173.888 36.3855 174.323 36.6202 174.797 36.7165C175.271 36.8128 175.762 36.7663 176.21 36.5829C176.657 36.3996 177.04 36.0876 177.31 35.6865C177.58 35.2854 177.725 34.8133 177.726 34.3298C177.733 34.0085 177.674 33.6891 177.555 33.3907C177.436 33.0922 177.257 32.8208 177.031 32.5925C176.805 32.3641 176.535 32.1835 176.237 32.0614C175.94 31.9392 175.621 31.878 175.299 31.8813ZM175.947 36.0183L175.254 34.5255H174.696V36.0183H174.29V32.622H175.291C176.037 32.622 176.348 32.9454 176.348 33.5713C176.348 34.0695 176.113 34.38 175.676 34.4754L176.392 36.0135L175.947 36.0183ZM174.712 34.1746H175.299C175.775 34.1746 175.956 34.0129 175.956 33.5794C175.956 33.146 175.783 32.9988 175.248 32.9988H174.712V34.1746Z" fill="#B4B4B4"/>
<path d="M135.349 34.5595C136.075 35.1401 137.527 35.3795 138.807 35.3795C140.465 35.3795 142.091 35.0722 143.68 33.6377C145.299 32.1675 146.412 29.9179 146.412 26.3259C146.412 22.8746 145.098 20.0735 142.402 18.4335C140.881 17.4777 138.91 17.1009 136.663 17.1009C136.016 17.1009 135.349 17.1348 134.97 17.3063C134.815 17.4287 134.705 17.5995 134.658 17.7915C134.59 18.406 134.59 23.0865 134.59 25.8536C134.59 28.6904 134.59 32.6463 134.658 33.1314C134.694 33.5422 134.901 34.2635 135.349 34.566V34.5595ZM128.449 15.5645C129.037 15.5645 131.27 15.6663 132.309 15.6663C134.25 15.6663 135.592 15.5645 139.221 15.5645C142.263 15.5645 144.823 16.3844 146.653 17.9548C148.866 19.8697 150.051 22.5334 150.051 25.7792C150.051 30.3918 147.947 33.0571 145.833 34.5595C143.729 36.1315 140.993 37.0194 137.095 37.0194C135.02 37.0194 131.459 36.9515 128.487 36.9175H128.425C128.286 36.6442 128.679 35.5784 128.922 35.5509C129.731 35.4603 129.945 35.428 130.317 35.2744C130.944 35.0172 131.092 34.697 131.161 33.5697C131.265 31.4511 131.231 28.9233 131.231 26.0526C131.231 24.0035 131.265 20.0055 131.197 18.7408C131.092 17.6831 130.645 17.4098 129.741 17.2044C129.099 17.0682 128.451 16.9656 127.799 16.8971C127.731 16.6917 128.262 15.765 128.435 15.5645" fill="#B4B4B4"/>
<path d="M158.618 17.2989C158.48 17.3329 158.307 17.6757 158.307 17.8455C158.271 19.0763 158.237 22.2866 158.237 24.5072C158.246 24.5496 158.267 24.5885 158.298 24.619C158.329 24.6495 158.368 24.6703 158.41 24.6786C158.859 24.7126 159.965 24.7481 160.899 24.7481C162.213 24.7481 162.973 24.5767 163.388 24.3713C164.495 23.8247 165.006 22.6279 165.006 21.3308C165.006 18.3582 162.931 17.231 159.855 17.231C159.44 17.2257 159.024 17.2484 158.611 17.2989H158.618ZM166.459 30.965C166.459 27.9585 164.245 26.2506 160.2 26.2506C160.029 26.2506 158.744 26.2166 158.438 26.2846C158.334 26.3185 158.231 26.3865 158.231 26.456C158.231 28.6086 158.195 32.0583 158.3 33.4249C158.37 34.0055 158.786 34.8255 159.302 35.0648C159.855 35.3721 161.1 35.4401 161.964 35.4401C164.349 35.4401 166.459 34.109 166.459 30.965ZM152.372 15.625C152.684 15.625 153.603 15.7269 155.954 15.7269C158.166 15.7269 159.964 15.659 162.103 15.659C164.765 15.659 168.428 16.6164 168.428 20.5788C168.428 22.5195 167.046 24.098 165.249 24.85C165.145 24.884 165.145 24.9519 165.249 24.9859C167.807 25.6328 170.053 27.2064 170.053 30.213C170.053 33.1516 168.221 34.9969 165.559 36.1581C163.941 36.8762 161.93 37.114 159.896 37.114C158.341 37.114 154.173 36.9522 151.856 36.9781C151.613 36.8762 152.077 35.7813 152.284 35.6115C152.815 35.5952 153.342 35.5126 153.852 35.3657C154.681 35.1619 154.779 34.895 154.883 33.6643C154.953 32.6049 154.953 28.8124 154.953 26.1131C154.953 22.4225 154.988 19.9302 154.953 18.6995C154.919 17.7437 154.572 17.4347 153.915 17.2649C153.398 17.1614 152.534 17.0595 151.843 16.9576C151.67 16.7862 152.202 15.7609 152.373 15.625" fill="#B4B4B4"/>
<path d="M28.3864 37.0052C28.2974 36.7865 28.2613 36.5499 28.2812 36.3146C28.2735 36.1543 28.3099 35.9948 28.3864 35.8537C28.8335 35.7893 29.2765 35.6991 29.7132 35.5836C30.3249 35.4316 30.5546 35.0984 30.5902 34.3189C30.6906 32.4768 30.697 29.0206 30.6614 26.5915V26.5203C30.6614 26.2583 30.6614 25.9025 30.3378 25.6518C29.769 25.2951 29.1515 25.0228 28.5045 24.8432C28.2149 24.7575 28.0547 24.6054 28.0628 24.4275C28.0709 24.2496 28.2537 24.0394 28.6307 23.965C29.6323 23.8631 32.2569 23.2372 33.2876 22.7617C33.3937 22.9 33.4429 23.0736 33.4251 23.2469C33.4251 23.3536 33.4089 23.4669 33.3976 23.5833C33.3685 23.9262 33.3361 24.3159 33.3361 24.7041C33.3425 24.7512 33.3619 24.7957 33.3921 24.8324C33.4223 24.8692 33.4622 24.8967 33.5073 24.912C33.5524 24.9273 33.6008 24.9297 33.6472 24.919C33.6936 24.9083 33.736 24.8848 33.7698 24.8513C35.7325 23.3132 37.4914 22.765 38.3926 22.765C39.8764 22.765 41.0317 23.4733 41.9265 24.9321C41.9471 24.9673 41.9763 24.9967 42.0114 25.0174C42.0466 25.038 42.0864 25.0493 42.1272 25.0502C42.1643 25.0498 42.2007 25.0405 42.2334 25.0231C42.266 25.0056 42.294 24.9805 42.3149 24.9499C44.1191 23.5817 45.907 22.765 47.1044 22.765C49.9328 22.765 51.6237 24.882 51.6237 28.4255C51.6237 29.4444 51.614 30.7366 51.6043 31.9415C51.5962 32.9992 51.5881 33.9906 51.5881 34.6763C51.5881 34.838 51.8114 35.3038 52.1464 35.396C52.5606 35.5982 53.1577 35.7017 53.9133 35.8311H53.9425C53.9991 36.0348 53.8793 36.8257 53.7645 36.9874C53.5768 36.9874 53.3179 36.9713 52.9943 36.9551C52.4069 36.926 51.6011 36.8855 50.6642 36.8855C48.784 36.8855 47.8018 36.9211 46.8633 36.9826C46.7921 36.7481 46.7679 35.9912 46.8536 35.8327C47.2423 35.7719 47.627 35.6882 48.0057 35.582C48.6044 35.3847 48.7775 35.113 48.8147 34.3189C48.8293 33.7545 48.9377 28.7813 48.7452 27.6007C48.5672 26.3764 47.6449 24.9434 45.6271 24.9434C44.8779 24.9434 43.6692 25.2556 42.5171 26.1289C42.4457 26.2099 42.4055 26.3137 42.4039 26.4217V26.4459C42.5398 27.0831 42.5398 27.8271 42.5398 28.9511C42.5398 29.598 42.5398 30.2724 42.5317 30.9468C42.5236 32.3183 42.5172 33.6121 42.5398 34.5906C42.5398 35.2569 42.9427 35.417 43.2679 35.5448C43.4443 35.5836 43.5835 35.6176 43.7242 35.6499C43.9945 35.7162 44.276 35.7842 44.6951 35.8505C44.7571 36.1346 44.7516 36.4293 44.6789 36.7109C44.6618 36.8165 44.6202 36.9168 44.5576 37.0036C43.5123 36.968 42.4395 36.9373 40.891 36.9373C40.4217 36.9373 39.6564 36.9567 38.98 36.9745C38.4315 36.989 37.9137 37.0036 37.6192 37.0052C37.5396 36.8174 37.5041 36.6137 37.5156 36.4101C37.4991 36.2181 37.5367 36.0254 37.6241 35.8537L38.0399 35.7777C38.4024 35.713 38.7163 35.658 39.0108 35.5836C39.5221 35.4219 39.7146 35.1437 39.7518 34.4919C39.8522 32.9717 39.9298 28.5904 39.7146 27.4939C39.3489 25.7343 38.3473 24.8416 36.7357 24.8416C35.7924 24.8416 34.5999 25.296 33.6258 26.0254C33.5321 26.1166 33.4583 26.2262 33.409 26.3472C33.3597 26.4683 33.336 26.5983 33.3394 26.7289C33.3394 27.2513 33.3394 27.8724 33.3394 28.5387C33.3394 30.7382 33.3248 33.4763 33.3782 34.6601C33.4106 35.0256 33.54 35.4591 34.2245 35.6176C34.3749 35.6612 34.6338 35.7033 34.9348 35.7534C35.1079 35.7825 35.2973 35.8133 35.493 35.8489C35.5553 36.2361 35.5237 36.6327 35.4008 37.0052C35.0998 37.0052 34.7293 36.9858 34.3054 36.968C33.6581 36.9389 32.8491 36.9033 31.9349 36.9033C30.854 36.9033 30.1016 36.9389 29.498 36.968C29.0919 36.9874 28.7408 37.0036 28.3896 37.0052" fill="#B4B4B4"/>
<path d="M63.0871 24.2258C62.5031 24.2136 61.9287 24.3752 61.4367 24.6899C60.2361 25.4193 59.6244 26.8765 59.6244 29.0178C59.6244 33.0254 61.6325 35.825 64.5078 35.825C65.2788 35.8494 66.0308 35.5833 66.6146 35.0794C67.4981 34.3597 67.9673 32.888 67.9673 30.8275C67.9673 26.8797 66.0046 24.2258 63.0839 24.2258H63.0871ZM63.6373 37.3113C58.4432 37.3113 56.5938 33.5025 56.5938 29.9397C56.5938 27.4506 57.6115 25.505 59.6196 24.1546C61.026 23.2843 62.6404 22.8073 64.2942 22.7734C68.2569 22.7734 71.0255 25.6215 71.0255 29.7019C71.0255 32.4739 69.9203 34.6638 67.8281 36.032C66.8233 36.6466 65.0774 37.3113 63.6373 37.3113Z" fill="#B4B4B4"/>
<path d="M115.967 24.2258C115.382 24.2125 114.806 24.3741 114.313 24.6899C113.112 25.4193 112.501 26.8765 112.501 29.0178C112.501 33.0254 114.509 35.825 117.384 35.825C118.157 35.851 118.912 35.5848 119.497 35.0794C120.381 34.3597 120.848 32.888 120.848 30.8275C120.848 26.8797 118.887 24.2258 115.967 24.2258ZM116.52 37.3113C111.326 37.3113 109.477 33.5025 109.477 29.9413C109.477 27.449 110.494 25.505 112.504 24.1546C113.91 23.2838 115.524 22.8068 117.177 22.7734C121.14 22.7734 123.908 25.6231 123.908 29.7003C123.908 32.4756 122.803 34.6638 120.711 36.0304C119.706 36.6466 117.96 37.3113 116.52 37.3113Z" fill="#B4B4B4"/>
<path d="M98.479 24.0911C96.8787 24.0911 95.8431 25.3542 95.8431 27.3095C95.8431 29.2648 96.7347 31.5889 99.2411 31.5889C99.6715 31.5889 100.451 31.398 100.838 30.9727C101.421 30.4374 101.809 29.3312 101.809 28.1635C101.809 25.613 100.566 24.0911 98.487 24.0911H98.479ZM98.2799 37.5858C97.8278 37.5809 97.3821 37.6923 96.9855 37.9093C95.7185 38.7179 95.1311 39.5266 95.1311 40.4662C95.1311 41.346 95.4725 42.0463 96.2072 42.6673C97.0971 43.421 98.2977 43.7881 99.8754 43.7881C102.98 43.7881 104.372 42.1191 104.372 40.4662C104.372 39.3147 103.794 38.5432 102.605 38.1066C101.689 37.7718 100.159 37.5874 98.2848 37.5874L98.2799 37.5858ZM98.4919 45.5121C96.6279 45.5121 95.2848 45.1191 94.1376 44.2361C93.0211 43.3757 92.5195 42.098 92.5195 41.215C92.5316 40.6459 92.7488 40.1004 93.1312 39.6786C93.4548 39.3098 94.2072 38.6193 95.9466 37.4241C95.9736 37.4126 95.9966 37.3935 96.0127 37.369C96.0288 37.3446 96.0374 37.3159 96.0373 37.2866C96.0378 37.2539 96.0272 37.222 96.0072 37.1961C95.9872 37.1703 95.959 37.152 95.9272 37.1443C94.4952 36.596 94.0632 35.6887 93.9321 35.2035C93.9321 35.1857 93.9321 35.1582 93.9176 35.1275C93.8771 34.9367 93.8383 34.7555 94.0988 34.5696C94.2994 34.4272 94.6198 34.2364 94.9628 34.0342C95.4471 33.7663 95.9116 33.4642 96.3528 33.1302C96.3765 33.1047 96.3941 33.0741 96.4042 33.0408C96.4142 33.0075 96.4165 32.9723 96.4109 32.938C96.4053 32.9036 96.3919 32.8711 96.3717 32.8427C96.3515 32.8143 96.3251 32.791 96.2945 32.7744C94.1748 32.0628 93.1069 30.4891 93.1069 28.0842C93.1004 27.3343 93.275 26.5939 93.6158 25.9258C93.9566 25.2576 94.4537 24.6816 95.0648 24.2464C95.9175 23.572 98.0583 22.7617 99.445 22.7617H99.5259C100.951 22.7957 101.756 23.0949 102.869 23.5057C103.502 23.7345 104.173 23.841 104.846 23.8194C106.026 23.8194 106.542 23.4458 106.985 23.0108C107.057 23.2067 107.095 23.4134 107.099 23.6221C107.126 24.1194 106.99 24.612 106.713 25.0259C106.472 25.3607 105.904 25.6033 105.385 25.6033C105.332 25.6033 105.28 25.6033 105.223 25.5952C104.95 25.576 104.679 25.531 104.414 25.461L104.281 25.5079C104.239 25.5693 104.267 25.6373 104.301 25.7246C104.309 25.7417 104.316 25.7596 104.32 25.778C104.415 26.2096 104.479 26.6473 104.513 27.088C104.513 29.6029 103.521 30.6978 102.448 31.5096C101.411 32.2875 100.179 32.7643 98.8883 32.8876C98.8608 32.8876 98.7265 32.8989 98.4741 32.9215C98.3123 32.9361 98.1019 32.9555 98.0712 32.9555H98.0405C97.8075 33.0202 97.199 33.3097 97.199 33.8482C97.199 34.2946 97.4741 34.8493 98.7896 34.9496L99.6407 35.0095C101.375 35.1308 103.542 35.2812 104.561 35.6256C105.238 35.8633 105.822 36.3081 106.23 36.8966C106.639 37.4852 106.852 38.1876 106.838 38.9039C106.838 41.16 105.233 43.2819 102.545 44.579C101.278 45.184 99.89 45.4953 98.4854 45.4895" fill="#B4B4B4"/>
<path d="M90.5382 35.8016C89.7777 35.6997 89.2227 35.5962 88.5673 35.2889C88.4387 35.1558 88.354 34.9865 88.3246 34.8037C88.255 33.7444 88.255 30.6699 88.255 28.658C88.255 27.0165 87.98 25.5852 87.2842 24.5582C86.4541 23.3954 85.2794 22.7129 83.7584 22.7129C82.4105 22.7129 80.6128 23.6347 79.1274 24.8995C79.0918 24.9334 78.8637 25.1501 78.8685 24.8137C78.8734 24.4774 78.9252 23.7949 78.9575 23.3582C78.9719 23.2422 78.9589 23.1244 78.9196 23.0143C78.8802 22.9042 78.8156 22.8049 78.731 22.7242C77.7601 23.2094 75.0369 23.8563 74.0288 23.955C73.2942 24.0973 73.1081 24.804 73.8929 25.0483H73.9042C74.5324 25.2214 75.132 25.4851 75.6841 25.831C75.9948 26.0704 75.9608 26.4116 75.9608 26.685C75.9948 28.9734 75.9948 32.4926 75.8912 34.4059C75.8573 35.1579 75.6485 35.4312 75.0952 35.5687L75.1469 35.5509C74.7255 35.6565 74.2981 35.7364 73.867 35.7903C73.6939 35.9601 73.6939 36.9515 73.867 37.1569C74.2133 37.1569 75.9705 37.055 77.4268 37.055C79.43 37.055 80.4672 37.1569 80.9866 37.1569C81.1953 36.9175 81.2633 35.9957 81.1258 35.7903C80.6471 35.7687 80.1718 35.6999 79.7067 35.5849C79.1549 35.449 79.0158 35.1741 78.9818 34.5611C78.9138 32.9536 78.9138 29.5378 78.9138 27.2138C78.9138 26.5669 79.0853 26.258 79.2925 26.0817C79.9834 25.4671 81.1258 25.058 82.1274 25.058C83.0982 25.058 83.7454 25.3652 84.2309 25.7744C84.7963 26.2675 85.1507 26.9587 85.2211 27.7055C85.3587 28.9993 85.3231 31.6015 85.3231 33.8512C85.3231 35.0819 85.2211 35.3908 84.7713 35.5267C84.5642 35.6286 84.0108 35.7321 83.3539 35.8C83.1468 36.0054 83.2147 36.9612 83.3539 37.1666C84.2519 37.1666 85.2956 37.0647 86.8101 37.0647C88.7113 37.0647 89.9217 37.1666 90.4055 37.1666C90.6126 36.9272 90.6822 36.0345 90.5446 35.8" fill="#B4B4B4"/>
</svg>
