<svg width="118" height="80" viewBox="0 0 118 80" fill="none" xmlns="http://www.w3.org/2000/svg">
<path d="M28.2539 72.8795H23.7193C23.559 65.2073 23.1173 57.9946 22.3953 51.2359H22.355L15.451 72.8795H11.9985L5.13573 51.2359H5.09629C4.58719 57.7249 4.26648 64.9394 4.13329 72.8795H0C0.266381 63.2241 0.935839 54.1721 2.00575 45.7227H7.62604L14.1673 65.6772H14.2076L20.7891 45.7227H26.1667C27.3444 55.6196 28.0401 64.6724 28.2539 72.8795ZM47.9197 52.8432C46.0734 62.8859 43.6375 70.183 40.6144 74.738C38.259 78.2443 35.6784 79.9991 32.8683 79.9991C32.1191 79.9991 31.1946 79.7725 30.0993 79.3228V76.9013C30.6347 76.9786 31.263 77.0225 31.985 77.0225C33.2977 77.0225 34.3527 76.6606 35.1571 75.9351C36.1192 75.0516 36.6003 74.0582 36.6003 72.9594C36.6003 72.2058 36.2252 70.6652 35.4769 68.3324L30.5007 52.8423H34.9555L38.5271 64.4274C39.3298 67.058 39.6645 68.8945 39.5305 69.9406C41.4836 64.712 42.8479 59.0108 43.6252 52.8414H47.9197V52.8432Z" fill="#B4B4B4"/>
<path d="M108.28 72.8812H95.3989V45.7243H99.732V69.5383H108.28V72.8812ZM92.0271 73.5373L87.0465 71.0736C87.4881 70.71 87.9104 70.3165 88.2907 69.8607C90.4078 67.368 91.4637 63.6817 91.4637 58.7991C91.4637 49.8147 87.9464 45.3203 80.9092 45.3203C77.4585 45.3203 74.7666 46.4604 72.8415 48.7414C70.7262 51.2358 69.6703 54.909 69.6703 59.7652C69.6703 64.5389 70.6062 68.0408 72.4787 70.2621C74.1918 72.2743 76.7741 73.2817 80.2274 73.2817C81.5155 73.2817 82.6976 73.1237 83.7745 72.8048L90.2588 76.5886L92.0271 73.5373ZM75.8926 67.447C74.7955 65.6781 74.247 62.8376 74.247 58.9212C74.247 52.0834 76.3193 48.6606 80.4684 48.6606C82.6371 48.6606 84.2267 49.4792 85.2431 51.1129C86.3384 52.8844 86.8896 55.6995 86.8896 59.5615C86.8896 66.4554 84.8155 69.9028 80.6691 69.9028C78.4995 69.9037 76.9099 69.0878 75.8926 67.447ZM67.782 65.354C67.782 67.657 66.939 69.5462 65.2549 71.0262C63.569 72.5 61.3082 73.2387 58.4753 73.2387C55.8255 73.2387 53.2563 72.3902 50.7695 70.7021L51.9341 68.3702C54.0739 69.4444 56.0113 69.9784 57.7507 69.9784C59.3831 69.9784 60.6589 69.6156 61.5843 68.8963C62.5087 68.1743 63.0599 67.1616 63.0599 65.881C63.0599 64.2675 61.9374 62.8885 59.8782 61.7335C57.9793 60.6883 54.1817 58.5031 54.1817 58.5031C52.1233 56.9994 51.0929 55.385 51.0929 52.7255C51.0929 50.5244 51.8613 48.7475 53.3992 47.3958C54.9387 46.0388 56.9252 45.3625 59.3603 45.3625C61.8752 45.3625 64.1613 46.0379 66.2205 47.3747L65.176 49.7075C63.4148 48.9574 61.6763 48.5824 59.9614 48.5824C58.5726 48.5824 57.5 48.917 56.7543 49.589C56.0025 50.2582 55.539 51.1146 55.539 52.1651C55.539 53.7707 56.6851 55.1672 58.8004 56.345C60.7247 57.392 64.617 59.615 64.617 59.615C66.7279 61.1161 67.782 62.7155 67.782 65.354Z" fill="#B4B4B4"/>
<path d="M113.719 36.6278C111.099 36.561 109.071 36.8254 107.368 37.5474C106.877 37.7441 106.095 37.7441 106.027 38.3669C106.292 38.6304 106.323 39.0555 106.553 39.4191C106.946 40.0752 107.63 40.9579 108.255 41.4182C108.941 41.9452 109.63 42.4669 110.352 42.9262C111.625 43.7159 113.068 44.1752 114.309 44.9622C115.032 45.4198 115.751 46.0118 116.474 46.5045C116.83 46.7671 117.058 47.1931 117.52 47.3574V47.2572C117.288 46.9621 117.223 46.5353 116.996 46.2068L116.013 45.2564C115.063 43.9776 113.882 42.8612 112.609 41.9443C111.561 41.2205 109.269 40.2368 108.844 39.0265L108.777 38.9597C109.498 38.8921 110.352 38.6304 111.036 38.4292C112.15 38.135 113.166 38.2017 114.308 37.9075C114.834 37.7758 115.355 37.6106 115.883 37.4481V37.1522C115.291 36.561 114.868 35.7758 114.245 35.2172C112.579 33.7741 110.742 32.3627 108.844 31.1813C107.827 30.5235 106.52 30.1001 105.438 29.5406C105.048 29.343 104.391 29.2455 104.161 28.917C103.574 28.195 103.244 27.2447 102.818 26.3901C101.872 24.5869 100.952 22.5861 100.136 20.6792C99.5451 19.4004 99.1858 18.1233 98.4655 16.9402C95.092 11.3629 91.4283 7.98485 85.7975 4.66918C84.5874 3.97882 83.1477 3.68458 81.6099 3.32271L79.1538 3.19272C78.6298 2.9626 78.1049 2.33811 77.6475 2.043C75.7793 0.862535 70.9696 -1.69602 69.5956 1.68201C68.7106 3.81721 70.9047 5.9164 71.6583 6.99937C72.2147 7.75121 72.9359 8.6067 73.3249 9.46043C73.5554 10.0182 73.6202 10.6101 73.8507 11.1995C74.3747 12.6435 74.8645 14.2499 75.5532 15.5973C75.9125 16.2841 76.3042 17.0061 76.7634 17.6279C77.0262 17.9916 77.4836 18.1523 77.5835 18.7452C77.127 19.3986 77.0911 20.385 76.8291 21.2053C75.6514 24.9127 76.1114 29.5055 77.7807 32.23C78.3029 33.0504 79.549 34.8562 81.2156 34.1641C82.6912 33.5739 82.3644 31.7039 82.7885 30.0641C82.8857 29.668 82.8218 29.408 83.0181 29.148V29.2121C83.4746 30.13 83.9355 31.0144 84.3587 31.9349C85.3743 33.5414 87.1426 35.2155 88.6156 36.3283C89.3998 36.922 90.0211 37.9374 91.0034 38.3001V38.2017H90.9385C90.7396 37.9075 90.4487 37.7758 90.1876 37.5474C89.597 36.9563 88.9433 36.2343 88.485 35.5791C87.1128 33.7408 85.8983 31.7057 84.8205 29.6056C84.293 28.5868 83.8382 27.473 83.4132 26.456C83.2152 26.0633 83.2152 25.4714 82.8866 25.2737C82.3942 25.9948 81.6765 26.6193 81.3172 27.5029C80.6942 28.9161 80.6294 30.6543 80.3981 32.4619L80.2692 32.5252C79.2265 32.2625 78.8637 31.1813 78.4677 30.2635C77.4871 27.9324 77.3224 24.1908 78.1732 21.5013C78.4011 20.8136 79.3869 18.6477 78.9934 17.9924C78.7963 17.3644 78.1408 17.007 77.7816 16.5125C77.3592 15.8906 76.8965 15.1036 76.6021 14.4133C75.817 12.5767 75.4218 10.5416 74.5762 8.70595C74.181 7.85046 73.4949 6.96511 72.9394 6.17726C72.3155 5.29191 71.6294 4.6683 71.136 3.61871C70.9731 3.25772 70.7444 2.66749 71.0064 2.27488C71.0703 2.01138 71.2035 1.91301 71.4646 1.84713C71.8887 1.4879 73.1006 1.94463 73.5256 2.14225C74.7392 2.63411 75.7539 3.09347 76.7669 3.78208C77.2251 4.11145 77.7167 4.73505 78.3047 4.8993H78.9934C80.0388 5.12766 81.2174 4.96254 82.2014 5.25942C83.9355 5.81803 85.5066 6.6375 86.9156 7.52197C91.2031 10.2474 94.7388 14.1199 97.1258 18.7452C97.5174 19.4988 97.6839 20.1891 98.0414 20.9752C98.7311 22.5843 99.5836 24.225 100.268 25.7998C100.956 27.3413 101.611 28.9153 102.594 30.1958C103.083 30.8845 105.051 31.2454 105.934 31.6064C106.587 31.9007 107.603 32.1624 108.192 32.5234C109.306 33.2111 110.415 34.0007 111.462 34.757C111.984 35.1505 113.622 35.9708 113.719 36.6278ZM80.3288 8.11396C79.8769 8.10925 79.4264 8.16478 78.989 8.27909V8.34496H79.0521C79.3159 8.86932 79.7742 9.23294 80.101 9.69055C80.3648 10.2167 80.5935 10.7384 80.852 11.2636L80.915 11.1986C81.3768 10.871 81.6064 10.3458 81.6064 9.55792C81.4075 9.32604 81.3768 9.09943 81.2112 8.86932C81.0184 8.54082 80.5935 8.37746 80.3288 8.11396Z" fill="#B4B4B4"/>
<path d="M116.837 72.8768H117.515V69.5497H116.498L115.668 71.8202L114.766 69.5497H113.786V72.8768H114.427V70.3455H114.463L115.408 72.8768H115.896L116.837 70.3455V72.8768ZM111.373 72.8768H112.091V70.1136H113.03V69.5488H110.395V70.1136H111.372L111.373 72.8768Z" fill="#B4B4B4"/>
</svg>
