<svg width="147" height="88" viewBox="0 0 147 88" fill="none" xmlns="http://www.w3.org/2000/svg">
<path d="M34.6858 22.9516H62.4114V25.1383H37.2273V41.596H60.9096V43.7827H37.2273V61.8515H62.7002V64.0382H34.6858V22.9516ZM64.8951 22.9516H67.8409L80.8951 41.0205L94.238 22.9516L112.387 0L82.5701 42.9195L97.9347 64.0382H94.8734L80.8951 44.8185L66.859 64.0382H63.8554L79.3355 42.9195L64.8951 22.9516ZM99.0322 25.1383V22.9516H130.628V25.1383H116.072V64.0382H113.53V25.1383H99.0322ZM0 22.9516H3.17689L46.9843 88L28.8808 64.0382L2.65703 26.059L2.54151 64.0382H0V22.9516ZM130.372 61.1916C129.852 61.1916 129.463 60.7924 129.463 60.2765C129.463 59.7606 129.852 59.3614 130.372 59.3614C130.897 59.3614 131.28 59.7606 131.28 60.2765C131.28 60.7924 130.897 61.1916 130.372 61.1916ZM132.869 58.784H134.229C134.247 59.5149 134.785 60.0063 135.577 60.0063C136.46 60.0063 136.961 59.4781 136.961 58.4892V52.2245H138.346V58.4954C138.346 60.2765 137.307 61.3022 135.589 61.3022C133.976 61.3022 132.869 60.3072 132.869 58.784ZM140.157 58.7042H141.529C141.647 59.5456 142.475 60.08 143.668 60.08C144.781 60.08 145.597 59.5088 145.597 58.7226C145.597 58.047 145.078 57.6416 143.897 57.3653L142.747 57.0889C141.134 56.7142 140.398 55.9403 140.398 54.6383C140.398 53.0598 141.696 52.0095 143.643 52.0095C145.455 52.0095 146.777 53.0598 146.858 54.5523H145.51C145.38 53.7354 144.663 53.2256 143.625 53.2256C142.531 53.2256 141.801 53.7477 141.801 54.5461C141.801 55.1787 142.271 55.5411 143.433 55.8114L144.416 56.0509C146.246 56.4747 147 57.2117 147 58.5445C147 60.2397 145.677 61.3022 143.563 61.3022C141.585 61.3022 140.256 60.2888 140.157 58.7042Z" fill="#B4B4B4"/>
</svg>
