<svg width="76" height="86" viewBox="0 0 76 86" fill="none" xmlns="http://www.w3.org/2000/svg">
<path d="M23.3961 78.0558C25.217 77.1856 26.8233 76.3575 28.4909 75.6752C28.8742 75.5218 29.5068 75.7902 29.9246 76.0355C32.1634 77.3313 34.3817 78.6589 36.5796 80.0186C36.9474 80.2833 37.3875 80.4289 37.8406 80.4358C38.2937 80.4426 38.738 80.3104 39.1136 80.0569C49.2073 74.1724 59.324 68.3301 69.3986 62.4226C69.6917 62.2152 69.9363 61.9467 70.1156 61.6357C70.295 61.3246 70.4048 60.9784 70.4375 60.6208C70.4988 48.7854 70.4988 36.95 70.4375 25.1146C70.4043 24.7577 70.2942 24.4122 70.1149 24.1019C69.9356 23.7915 69.6912 23.5237 69.3986 23.3167C59.3087 17.4245 49.1766 11.609 39.0753 5.74373C38.7034 5.49406 38.2642 5.36362 37.8163 5.36978C37.3684 5.37594 36.933 5.51842 36.5681 5.77823C26.5473 11.5975 16.5136 17.3951 6.46718 23.171C6.0644 23.3689 5.73134 23.6847 5.51223 24.0763C5.29313 24.468 5.19834 24.917 5.24044 25.3638C5.26856 37.0561 5.26856 48.7484 5.24044 60.4407C5.24044 61.3301 5.43212 61.9741 6.27167 62.461C8.98581 63.9944 11.6386 65.593 14.3719 67.0995C15.959 67.9736 17.6649 68.4758 19.4629 67.7436C21.0461 67.0995 22.0467 65.961 22.1809 64.1937C22.2422 63.335 22.292 62.4725 22.292 61.6099C22.292 50.876 22.292 40.1421 22.292 29.4082C22.292 26.993 22.3304 26.9585 24.6612 26.9585C27.728 26.9585 27.728 26.9585 27.728 29.9717C27.728 41.5682 27.7778 53.1646 27.6782 64.7611C27.6245 70.7989 23.5226 73.9616 17.6381 73.421C15.74 73.2199 13.8942 72.6757 12.1907 71.8148C8.97815 70.22 5.88448 68.3646 2.81382 66.5168C0.931549 65.3668 0.0230003 63.5573 0.0230003 61.3224C0.0230003 49.2467 0.0460025 37.1711 0 25.0954C0 22.1973 1.21139 20.2038 3.68019 18.7816C12.9727 13.4146 22.2511 8.03491 31.5155 2.6424C32.3052 2.18621 33.1103 1.76451 33.8732 1.26999C36.6256 -0.512608 39.2938 -0.340096 42.0884 1.29683C51.9994 7.11103 61.9398 12.8767 71.9095 18.5938C74.754 20.223 76.0114 22.5231 75.9999 25.751C75.959 37.2976 75.959 48.8455 75.9999 60.3947C75.9999 63.4615 74.7349 65.6543 72.0475 67.1954C62.1672 72.869 52.3099 78.5938 42.4756 84.3696C39.5545 86.0832 36.756 86.2404 33.831 84.4348C30.7373 82.518 27.5823 80.7048 24.458 78.8378C24.1321 78.6193 23.8446 78.3816 23.3961 78.0558Z" fill="#B4B4B4"/>
<path d="M47.0101 26.0009C49.8737 25.9434 52.9482 26.2348 55.8694 27.496C59.4576 29.0486 61.2977 31.9046 61.8842 35.6538C62.1449 37.3291 61.8535 37.6089 60.1975 37.6204H60.0556C57.9318 37.8926 56.3486 37.6204 55.762 35.0059C55.325 33.047 53.5003 32.1001 51.5988 31.6554C48.423 30.8887 45.1103 30.8887 41.9345 31.6554C41.103 31.8751 40.3157 32.2369 39.6075 32.725C38.4306 33.5147 38.0741 34.7606 38.1431 36.1215C38.2121 37.4824 39.1513 38.3334 40.3896 38.6056C43.073 39.2036 45.8217 39.6445 48.5358 40.1697C51.4838 40.7447 54.4778 41.1588 57.353 41.9753C60.2281 42.7918 62.5666 44.5054 63.0381 47.7831C63.5901 51.6166 62.8848 55.0438 59.6148 57.5548C56.9313 59.6287 53.7264 60.3303 50.4756 60.5756C46.7992 60.8555 43.0961 60.7673 39.5155 59.6978C35.636 58.5477 32.5883 56.4316 31.5494 52.23C31.2925 51.41 31.1632 50.5554 31.1661 49.696C31.2284 49.4341 31.3549 49.1918 31.5343 48.9911C31.7137 48.7903 31.9402 48.6373 32.1934 48.546C33.3385 48.4007 34.497 48.3942 35.6436 48.5268C36.027 48.569 36.671 49.0405 36.7247 49.3894C37.3457 53.3686 40.0024 54.879 43.6251 55.2278C46.9181 55.546 50.2226 55.7377 53.4504 54.8177C54.4168 54.5579 55.3128 54.085 56.0726 53.4337C58.3497 51.356 57.8168 48.0285 54.8995 47.1467C52.0473 46.288 49.0227 45.9967 46.0824 45.4255C43.2762 44.8773 40.4202 44.4863 37.6946 43.6736C34.3402 42.673 32.4503 40.2042 32.2624 36.6735C32.0861 33.4227 33.148 30.6395 35.9043 28.6883C39.182 26.3575 42.9044 25.9358 47.0101 26.0009Z" fill="#B4B4B4"/>
</svg>
