<svg width="98" height="55" viewBox="0 0 98 55" fill="none" xmlns="http://www.w3.org/2000/svg">
<path d="M22.2295 27.2207C21.6437 27.1339 11.737 13.1641 10.7129 11.8149C11.1217 11.1343 18.5237 1.323 19.323 0.251672C19.5313 -0.0270128 19.8047 0.0276823 20.0676 0.0276823C25.1985 0.0276823 40.0286 0.0276823 42.3084 0.0276823C42.4551 0.0276823 42.6669 -0.0747625 42.732 0.1145C42.7632 0.205658 42.6382 0.368876 42.5584 0.478266C40.8904 2.68517 23.4896 25.5686 22.5653 26.784L22.5706 26.7762C22.5141 26.8274 22.2842 27.1686 22.2295 27.2207Z" fill="#B4B4B4"/>
<path d="M55.3172 0.335763C55.2591 0.259364 55.1272 0.202064 55.2192 0.0918056C55.26 0.0431877 55.3693 0.0388468 55.4561 0.0388468C63.0071 0.0359529 70.5602 0.0327696 78.1152 0.0292969C78.6455 0.0292969 78.7705 0.463385 78.9926 0.752488C81.4027 3.89529 95.4752 22.5107 96.7744 24.1828C98.4068 26.2847 98.4007 27.995 96.7987 30.0943C93.7325 34.1113 87.4344 42.3746 87.332 42.4753C87.0664 42.1428 56.4272 1.80645 55.3172 0.335763Z" fill="#848484"/>
<path d="M42.4673 53.9067C42.5213 53.9681 42.565 54.0379 42.5967 54.1133C42.492 54.1487 42.3837 54.1723 42.2738 54.1836C40.322 54.1906 25.4294 54.1949 19.9349 54.2027C19.6424 54.2027 19.4654 54.0985 19.2884 53.8667C15.8612 49.3626 4.18747 34.0272 1.78348 30.8601C1.28099 30.1959 0.707328 29.5743 0.363653 28.8068C-0.398334 27.1043 0.114575 25.6336 1.18465 24.2333C3.77958 20.8378 10.1133 12.4973 10.7138 11.8184C11.7379 13.164 41.5387 53.1687 42.4673 53.9067Z" fill="#848484"/>
<path d="M75.5917 27.166C77.1539 29.0361 78.565 31.0259 80.0447 32.9611C82.2132 35.7971 84.3771 38.6358 86.5364 41.477C86.7967 41.8148 87.0666 42.1429 87.3322 42.4754C86.8922 43.3037 81.0445 50.8499 78.7264 53.9163C78.6459 54.0344 78.5362 54.1297 78.4081 54.193C78.2799 54.2563 78.1375 54.2854 77.9948 54.2774C70.6787 54.2774 55.4824 54.201 55.2012 54.1646C55.2437 53.8572 74.5242 28.5785 75.5917 27.166Z" fill="#B4B4B4"/>
</svg>
