<svg width="77" height="80" viewBox="0 0 77 80" fill="none" xmlns="http://www.w3.org/2000/svg">
<path d="M57.2588 57.5724C57.7545 53.4426 57.6059 52.8369 60.682 53.5059L61.463 53.5745C63.8282 53.6821 66.9223 53.1941 68.7401 52.3496C72.6531 50.534 74.9734 47.5025 71.1149 48.2991C62.3137 50.1147 61.7086 47.1345 61.7086 47.1345C71.0023 33.3452 74.8873 15.841 71.5339 11.5563C62.3874 -0.130783 46.5551 5.39576 46.2902 5.53925L46.2059 5.55482C44.4669 5.194 42.5207 4.97842 40.3344 4.94308C36.3516 4.87763 33.3294 5.98721 31.037 7.72603C31.037 7.72603 2.793 -3.9101 4.10696 22.3597C4.38641 27.948 12.1172 64.6456 21.3377 53.5612C24.7078 49.508 27.9646 46.0809 27.9646 46.0809C29.5818 47.1554 31.518 47.7034 33.5487 47.5065L33.7056 47.3727C33.6565 47.8759 33.6782 48.3682 33.7685 48.9509C31.3936 51.6049 32.0914 52.0709 27.3425 53.0483C22.5379 54.0386 25.3606 55.8015 27.203 56.2623C29.4372 56.821 34.6058 57.6124 38.099 52.7234L37.9599 53.2812C38.8917 54.0267 38.8287 58.6391 38.9608 61.9346C39.0931 65.2302 39.3137 68.3056 39.9855 70.1188C40.6573 71.9316 41.4499 76.602 47.6911 75.2644C52.9073 74.1466 56.8953 72.5378 57.2588 57.5722" fill="#B4B4B4"/>
<path d="M57.2588 57.5724C57.7545 53.4426 57.6059 52.8369 60.682 53.5059L61.463 53.5745C63.8282 53.6821 66.9223 53.1941 68.74 52.3496C72.6531 50.534 74.9734 47.5025 71.1149 48.2991C62.3137 50.1147 61.7086 47.1345 61.7086 47.1345C71.0023 33.3452 74.8873 15.841 71.5339 11.5563C62.3874 -0.130783 46.5551 5.39576 46.2902 5.53925L46.2059 5.55482C44.4669 5.194 42.5207 4.97842 40.3344 4.94308C36.3516 4.87763 33.3294 5.98721 31.037 7.72603C31.037 7.72603 2.793 -3.9101 4.10696 22.3597C4.38641 27.948 12.1172 64.6456 21.3377 53.5612C24.7078 49.508 27.9646 46.0809 27.9646 46.0809C29.5818 47.1554 31.518 47.7034 33.5487 47.5065L33.7056 47.3727C33.6565 47.8759 33.6782 48.3682 33.7685 48.9509C31.3936 51.6049 32.0914 52.0709 27.3425 53.0483C22.5379 54.0386 25.3606 55.8015 27.203 56.2623C29.4372 56.821 34.6058 57.6124 38.099 52.7234L37.9599 53.2812C38.8917 54.0267 38.8287 58.6391 38.9608 61.9346C39.0931 65.2302 39.3137 68.3056 39.9855 70.1188C40.6573 71.9316 41.4499 76.602 47.6911 75.2644C52.9073 74.1466 56.8953 72.5378 57.2588 57.5722" stroke="#B4B4B4" stroke-width="7.09702"/>
<path d="M71.1167 48.299C62.3146 50.1146 61.7095 47.1344 61.7095 47.1344C71.0031 33.3442 74.8881 15.8396 71.5354 11.5555C62.3889 -0.130882 46.556 5.39601 46.2917 5.5395L46.2067 5.55472C44.4677 5.19373 42.5215 4.97867 40.3342 4.94298C36.3514 4.87771 33.3303 5.98711 31.0378 7.72559C31.0378 7.72559 2.79333 -3.91003 4.10694 22.3596C4.38639 27.9482 12.117 64.6459 21.3379 53.5614C24.7081 49.5083 27.9644 46.0812 27.9644 46.0812C29.5817 47.1556 31.518 47.7037 33.5478 47.5068L33.7054 47.3729C33.6564 47.8762 33.6788 48.3684 33.7686 48.9511C31.3932 51.6051 32.0912 52.0711 27.3426 53.0486C22.5377 54.0388 25.3604 55.8018 27.2034 56.2625C29.4376 56.8212 34.6064 57.6127 38.099 52.7236L37.9597 53.2815C38.8904 54.0269 39.544 58.1305 39.4344 61.8503C39.3249 65.5703 39.2518 68.1242 39.9851 70.119C40.7185 72.1139 41.4494 76.6022 47.6918 75.2646C52.9079 74.1468 55.6109 71.2501 55.987 66.4183C56.2538 62.9832 56.8577 63.491 56.8958 60.4198L57.3802 58.9659C57.9387 54.3093 57.4689 52.8071 60.6825 53.5058L61.4635 53.5744C63.8287 53.682 66.9244 53.194 68.7412 52.3495C72.6536 50.5339 74.9739 47.5024 71.1163 48.299H71.1167Z" fill="#B4B4B4"/>
<path d="M38.4772 50.9668C38.2349 59.6313 38.5381 68.3563 39.3859 70.4767C40.2343 72.5972 42.0497 76.7216 48.2927 75.3842C53.5083 74.266 55.406 72.1022 56.2294 67.3259C56.8359 63.8119 58.0052 54.0526 58.1552 52.0531" stroke="#F2F2F7" stroke-width="2.36567" stroke-linecap="round" stroke-linejoin="round"/>
<path d="M30.9942 7.5314C30.9942 7.5314 2.73047 -4.02039 4.04443 22.2492C4.32388 27.8379 12.0551 64.5367 21.2757 53.4518C24.6452 49.3981 27.6926 46.2188 27.6926 46.2188" stroke="#F2F2F7" stroke-width="2.36567" stroke-linecap="round" stroke-linejoin="round"/>
<path d="M46.2619 5.42274C45.2835 5.72949 61.9839 -0.682301 71.4749 11.4452C74.8274 15.7295 70.9424 33.2341 61.649 47.0247" stroke="#F2F2F7" stroke-width="2.36567" stroke-linecap="round" stroke-linejoin="round"/>
<path d="M61.647 47.0251C61.647 47.0251 62.2526 50.0062 71.0549 48.1893C74.9116 47.3928 72.5906 50.4246 68.6791 52.2411C65.469 53.7309 58.2721 54.1127 58.1545 52.054C57.8519 46.7424 61.9424 48.3561 61.6472 47.0251C61.3803 45.8265 59.551 44.6501 58.341 41.7165C57.2846 39.1559 43.853 19.5198 62.0659 22.4361C62.7331 22.298 57.3158 5.11226 40.271 4.83281C23.2302 4.55336 23.7892 25.7893 23.7892 25.7893" stroke="#F2F2F7" stroke-width="2.36567" stroke-linecap="round" stroke-linejoin="bevel"/>
<path d="M33.7056 48.842C31.3298 51.4958 32.0285 51.9618 27.2796 52.9396C22.4747 53.93 25.2977 55.6926 27.1402 56.1532C29.3744 56.7122 34.5432 57.5037 38.0358 52.6134C39.0993 51.1245 38.0295 48.7487 36.5685 48.1431C35.8626 47.8507 34.9188 47.4842 33.7056 48.842V48.842Z" stroke="#F2F2F7" stroke-width="2.36567" stroke-linecap="round" stroke-linejoin="round"/>
<path d="M33.5518 48.7949C33.3124 47.2346 34.0645 45.3778 34.8705 43.2056C36.0817 39.9463 38.8764 36.6865 36.6408 26.3477C34.9744 18.6433 23.7976 24.7443 23.7906 25.789C23.7838 26.8333 24.2961 31.084 23.6039 36.034C22.7006 42.4932 27.7139 47.9561 33.4869 47.3972" stroke="#F2F2F7" stroke-width="2.36567" stroke-linecap="round" stroke-linejoin="round"/>
<path d="M30.8912 25.6323C30.8408 25.9891 31.5444 26.9412 32.4619 27.0684C33.3778 27.1961 34.1617 26.4521 34.2114 26.0957C34.2611 25.7389 33.5583 25.3459 32.6405 25.2181C31.7241 25.0902 30.9399 25.2764 30.8914 25.6323H30.8912Z" fill="#F2F2F7" stroke="#F2F2F7" stroke-width="0.788551"/>
<path d="M58.7886 24.9037C58.8383 25.2605 58.1356 26.2126 57.2179 26.3398C56.3014 26.4676 55.5174 25.7235 55.4672 25.3671C55.4187 25.0103 56.1217 24.6173 57.0384 24.4895C57.9551 24.3618 58.7389 24.5478 58.7886 24.9039V24.9037Z" fill="#F2F2F7" stroke="#F2F2F7" stroke-width="0.394275"/>
<path d="M62.0655 22.4355C62.2165 25.2343 61.4627 27.1405 61.3677 30.1198C61.227 34.4504 63.4323 39.407 60.1094 44.3697" stroke="#F2F2F7" stroke-width="2.36567" stroke-linecap="round" stroke-linejoin="round"/>
</svg>
