<svg width="76" height="76" viewBox="0 0 76 76" fill="none" xmlns="http://www.w3.org/2000/svg">
<path d="M57 9.50001C57 4.2533 48.4934 0 38 0C27.5066 0 19 4.2533 19 9.50001V66.5001C19 71.7468 27.5066 76.0001 38 76.0001C48.4934 76.0001 57 71.7468 57 66.5001V9.50001Z" fill="#B4B4B4"/>
<path d="M66.5001 19H9.50001C4.2533 19 0 27.5066 0 38C0 48.4934 4.2533 57 9.50001 57H66.5001C71.7468 57 76.0001 48.4934 76.0001 38C76.0001 27.5066 71.7468 19 66.5001 19Z" fill="#B4B4B4"/>
<path d="M27.5521 13.0144C29.4934 13.0144 31.0671 11.4407 31.0671 9.49938C31.0671 7.5581 29.4934 5.98438 27.5521 5.98438C25.6108 5.98438 24.0371 7.5581 24.0371 9.49938C24.0371 11.4407 25.6108 13.0144 27.5521 13.0144Z" fill="#F2F2F7"/>
<path d="M48.4506 70.0144C50.3918 70.0144 51.9656 68.4407 51.9656 66.4994C51.9656 64.5581 50.3918 62.9844 48.4506 62.9844C46.5093 62.9844 44.9355 64.5581 44.9355 66.4994C44.9355 68.4407 46.5093 70.0144 48.4506 70.0144Z" fill="#F2F2F7"/>
<path d="M19 18.0488H38" stroke="#F2F2F7"/>
<path d="M38 57.9512H57" stroke="#F2F2F7"/>
<path d="M18.0508 57C18.0508 38 22.8008 38 37.0508 38C53.2008 38 57.9508 38 57.9508 19" stroke="#F2F2F7"/>
</svg>
