<svg width="84" height="74" viewBox="0 0 84 74" fill="none" xmlns="http://www.w3.org/2000/svg">
<path d="M83.0684 36.904C83.0684 31.4149 76.1772 26.2129 65.6115 22.987C68.0498 12.2451 66.9662 3.69888 62.1911 0.962724C61.0905 0.320908 59.8039 0.0168816 58.3985 0.0168816V3.78333C59.1773 3.78333 59.8039 3.93534 60.3287 4.22245C62.6314 5.53984 63.6306 10.5561 62.8514 17.008C62.6655 18.5957 62.3607 20.2677 61.9882 21.9736C58.6692 21.1629 55.0458 20.538 51.2362 20.1326C48.9505 17.008 46.58 14.1705 44.1924 11.6877C49.7123 6.57013 54.8937 3.76641 58.4155 3.76641V0C53.7589 0 47.6636 3.31041 41.5005 9.05291C35.337 3.34417 29.2417 0.0675656 24.5854 0.0675656V3.83398C28.0903 3.83398 33.2883 6.62082 38.8081 11.7046C36.4376 14.1874 34.0671 17.008 31.8151 20.1326C27.9884 20.538 24.3651 21.1629 21.0465 21.9905C20.6569 20.3015 20.3692 18.6632 20.1658 17.0925C19.3704 10.6406 20.3521 5.62429 22.6382 4.29001C23.1459 3.98599 23.8062 3.85089 24.5854 3.85089V0.0844472C23.163 0.0844472 21.8761 0.388473 20.7588 1.03029C16.0007 3.76641 14.9341 12.2958 17.3891 23.0039C6.85746 26.2467 0 31.4319 0 36.904C0 42.3935 6.8913 47.5956 17.4568 50.8213C15.0186 61.5634 16.1022 70.1093 20.8773 72.8456C21.9779 73.4872 23.2644 73.7913 24.6869 73.7913C29.3431 73.7913 35.4388 70.481 41.602 64.7385C47.7651 70.4474 53.8608 73.724 58.517 73.724C59.9391 73.724 61.226 73.42 62.3437 72.778C67.1014 70.0417 68.1683 61.5124 65.713 50.8046C76.2109 47.5786 83.0684 42.3765 83.0684 36.904ZM61.0231 25.6387C60.3965 27.8176 59.6176 30.0636 58.737 32.31C58.043 30.9591 57.3149 29.6078 56.519 28.2565C55.7402 26.9054 54.9103 25.588 54.0808 24.3044C56.485 24.6591 58.8047 25.0982 61.0231 25.6387ZM53.2679 43.6262C51.9473 45.9066 50.5929 48.0684 49.1875 50.0784C46.6644 50.2978 44.108 50.416 41.5342 50.416C38.9774 50.416 36.4206 50.2978 33.9149 50.095C32.5095 48.085 31.1378 45.9402 29.8172 43.6768C28.5302 41.4644 27.3622 39.218 26.2953 36.955C27.3452 34.6916 28.5302 32.4282 29.8005 30.2158C31.1211 27.9358 32.4754 25.7738 33.8808 23.7639C36.4039 23.5443 38.9603 23.4261 41.5342 23.4261C44.091 23.4261 46.6478 23.5443 49.1535 23.747C50.5589 25.7569 51.9306 27.9018 53.2512 30.1652C54.5381 32.3776 55.7062 34.624 56.7731 36.8874C55.7062 39.1504 54.5381 41.4138 53.2679 43.6262ZM58.737 41.4308C59.6258 43.6319 60.4057 45.8752 61.0738 48.1526C58.8555 48.6931 56.519 49.1493 54.0978 49.5039C54.9273 48.2036 55.7569 46.8693 56.5361 45.501C57.3149 44.15 58.043 42.7817 58.737 41.4308ZM41.5679 59.4522C39.9932 57.8305 38.4185 56.0233 36.8609 54.0473C38.3848 54.1149 39.9425 54.1655 41.5171 54.1655C43.1088 54.1655 44.6835 54.1319 46.2245 54.0473C44.7711 55.9313 43.2166 57.7356 41.5679 59.4522ZM28.9706 49.5039C26.5664 49.1493 24.2466 48.7101 22.0286 48.1696C22.6549 45.9908 23.4341 43.7444 24.3143 41.498C25.0087 42.8493 25.7368 44.2007 26.5323 45.5516C27.3281 46.9029 28.141 48.2202 28.9706 49.5039ZM41.4834 14.3563C43.0581 15.9777 44.6328 17.785 46.1904 19.761C44.6665 19.6935 43.1088 19.6428 41.5342 19.6428C39.9425 19.6428 38.3678 19.6766 36.8272 19.761C38.2805 17.8771 39.8349 16.0729 41.4834 14.3563ZM28.9535 24.3044C28.124 25.6049 27.2944 26.9392 26.5156 28.3071C25.7368 29.6584 25.0087 31.0097 24.3143 32.3606C23.4254 30.1596 22.6457 27.9162 21.9779 25.6387C24.1958 25.1151 26.5323 24.6591 28.9535 24.3044ZM13.6302 45.4504C7.63634 42.9 3.7589 39.556 3.7589 36.904C3.7589 34.2524 7.63634 30.8915 13.6302 28.3581C15.0863 27.733 16.678 27.1757 18.3205 26.6521C19.2856 29.9624 20.5554 33.4079 22.1301 36.938C20.5725 40.4511 19.3193 43.8796 18.3712 47.1733C16.6951 46.6495 15.1034 46.0754 13.6302 45.4504ZM22.7397 69.5859C20.4369 68.2686 19.4378 63.2523 20.217 56.8002C20.4032 55.2128 20.7076 53.5405 21.0802 51.8345C24.3992 52.6454 28.0225 53.2705 31.8321 53.6757C34.1178 56.8002 36.4884 59.6376 38.8759 62.1204C33.3561 67.2383 28.1747 70.0417 24.6528 70.0417C23.8911 70.0251 23.2478 69.8729 22.7397 69.5859ZM62.9025 56.716C63.698 63.1677 62.7162 68.184 60.4302 69.5183C59.9224 69.8223 59.2621 69.9575 58.4829 69.9575C54.9781 69.9575 49.7801 67.1707 44.2602 62.0868C46.6307 59.604 49.0012 56.7836 51.2533 53.6587C55.0799 53.2535 58.7033 52.6284 62.0219 51.8009C62.4115 53.5069 62.7162 55.1452 62.9025 56.716ZM69.4211 45.4504C67.965 46.0754 66.3733 46.6329 64.7308 47.1563C63.7658 43.846 62.4959 40.4005 60.9212 36.8704C62.4792 33.3573 63.7321 29.9288 64.6801 26.6352C66.3566 27.1588 67.948 27.733 69.4382 28.3581C75.4321 30.9081 79.3095 34.2524 79.3095 36.904C79.2924 39.556 75.415 42.917 69.4211 45.4504Z" fill="#B4B4B4"/>
<path d="M41.5171 44.6229C45.7909 44.6229 49.2552 41.1672 49.2552 36.904C49.2552 32.6412 45.7909 29.1855 41.5171 29.1855C37.2436 29.1855 33.7793 32.6412 33.7793 36.904C33.7793 41.1672 37.2436 44.6229 41.5171 44.6229Z" fill="#B4B4B4"/>
</svg>
