<svg width="229" height="40" viewBox="0 0 229 40" fill="none" xmlns="http://www.w3.org/2000/svg">
<path d="M42.9134 19.1072C49.0244 21.8416 47.3702 27.808 49.7474 32.4349H41.9566C41.4803 30.4064 40.936 28.1823 40.4342 25.9241C39.4433 21.5099 37.8826 20.5403 32.9496 21.6715V32.4561H25.8945V3.53846C30.3555 3.46616 34.825 3.38536 39.3285 3.33008C39.8206 3.37019 40.3102 3.43549 40.7956 3.5257C46.3835 4.05302 48.5949 6.50252 48.5098 12.0777C48.4503 15.7009 47.4297 17.1553 44.0786 18.4311C43.6747 18.6285 43.2853 18.8545 42.9134 19.1072ZM33.0346 16.0411C35.8031 16.2154 38.5885 17.0234 40.549 14.7993C41.1265 14.0976 41.4401 13.2158 41.4354 12.307C41.4307 11.3981 41.1081 10.5196 40.5235 9.82379C38.5162 7.43809 35.7265 8.69686 33.0346 8.54802V16.0411Z" fill="#B4B4B4"/>
<path d="M165 32.5105H157.843C157.214 30.1758 156.614 27.956 155.997 25.6596H146.523C145.914 27.9773 145.328 30.2056 144.719 32.5275H137.324C138.634 27.9475 139.855 23.5375 141.13 19.1361C142.33 14.9856 143.648 10.8691 144.771 6.70151C145.357 4.51993 146.472 3.42276 148.819 3.56735C150.656 3.68217 152.502 3.60137 154.347 3.59286C155.861 3.59286 157.009 4.20523 157.443 5.68089C160.026 14.4412 162.578 23.2087 165.098 31.9832C165.14 32.098 165.055 32.2469 165 32.5105ZM154.522 20.0292C153.556 16.172 153.046 12.451 151.711 8.9724H150.656C149.806 12.5999 148.925 16.2273 148.011 20.0632L154.522 20.0292Z" fill="#B4B4B4"/>
<path d="M98.6858 4.27462C98.4902 5.93739 98.3328 7.25144 98.1542 8.75261C97.2059 8.8164 96.3809 8.91421 95.5559 8.92271C92.864 8.94823 90.1593 8.80789 87.4759 9.02052C86.6254 9.08431 85.2944 10.0156 85.2306 10.6535C85.1455 11.5338 85.8344 12.8138 86.5957 13.3667C87.7056 14.1704 89.1855 14.4553 90.491 15.0039C92.2769 15.676 94.0258 16.4425 95.7302 17.3003C100.493 19.9072 100.71 26.6816 98.0989 30.3728C96.636 32.4396 94.2716 32.5969 92.0262 32.8904C87.3484 33.4942 82.7726 32.9159 78.0607 31.9335C78.2223 30.2325 78.3584 28.7696 78.5157 27.1153C82.9682 26.4392 87.5185 27.5406 91.6477 26.5838C92.5663 24.0322 91.7711 22.7947 89.8659 22.0803C87.8757 21.3318 85.877 20.6089 83.9123 19.7838C78.5795 17.5342 76.6276 13.5708 78.0564 7.94887C78.5242 6.116 79.5916 4.6446 81.4075 4.12153C87.0719 2.45876 92.7066 2.9308 98.6858 4.27462Z" fill="#B4B4B4"/>
<path d="M168.734 3.64092C174.348 3.64092 179.791 3.39427 185.166 3.72597C188.773 3.94711 190.72 6.54119 190.941 10.2069C191.018 11.5465 191.039 12.8946 191.005 14.2384C190.865 19.8093 188.679 21.9866 183.032 22.1482C180.718 22.212 178.405 22.1482 175.751 22.1482V32.4778H168.734V3.64092ZM175.866 17.0706C178.626 17.0323 181.59 18.1593 183.095 15.5142C183.908 14.0768 183.882 11.3806 183.036 9.9858C181.475 7.3747 178.532 8.66324 175.883 8.61221L175.866 17.0706Z" fill="#B4B4B4"/>
<path d="M72.222 15.2634V19.9412H60.9058C61.093 22.1611 60.9526 24.028 61.5182 25.6525C61.7861 26.4222 63.3766 27.0473 64.4312 27.1579C66.6724 27.3918 68.956 27.2344 71.2354 27.2642C72.0859 27.2642 72.8939 27.3662 73.9698 27.4385C74.1144 29.0078 74.2463 30.4154 74.3951 32.1504C72.2688 32.3375 70.3849 32.5757 68.5052 32.6437C65.673 32.7288 62.8408 32.7245 60 32.6735C56.211 32.6054 53.8465 30.3516 53.787 26.588C53.6977 20.9236 53.6892 15.2549 53.787 9.57763C53.855 5.83535 56.2918 3.56021 60.0553 3.56446C64.6992 3.56446 69.3473 3.68353 74.3441 3.75583C74.2207 5.67375 74.1314 7.10687 74.0081 8.98652H68.6243C67.4889 8.98652 66.3577 8.98652 65.2222 8.98652C61.3609 9.02054 60.0681 11.0278 61.5905 15.2421L72.222 15.2634Z" fill="#B4B4B4"/>
<path d="M126.558 9.31769H118.342V32.4433H110.777V9.35596H102.723V3.73828H126.558V9.31769Z" fill="#B4B4B4"/>
<path d="M216.305 39.9744V35.5687L218.699 34.8713C218.88 34.1043 219.008 33.3256 219.082 32.5409C219.137 30.5634 219.082 28.5775 219.082 26.5872C219.082 21.9094 219.082 21.9094 223.334 18.6349C219.048 17.8396 219.375 14.663 219.341 11.6351C219.316 9.47904 219.201 7.32723 219.124 5.21794L216.509 4.45247V0C218.503 0.11482 220.489 -0.0255156 222.348 0.391239C224.861 0.956834 226.239 2.97682 226.362 5.74526C226.46 8.22027 226.383 10.6995 226.426 13.1788C226.477 13.9372 226.568 14.6924 226.698 15.4412L228.365 16.6829V21.0121C226.366 21.8626 226.183 23.6019 226.239 25.5539C226.328 28.1692 226.29 30.7931 226.239 33.4084C226.171 37.661 223.87 39.9064 219.622 39.9787C218.584 39.9957 217.555 39.9744 216.305 39.9744Z" fill="#B4B4B4"/>
<path d="M11.6904 0.396316V4.45329L9.47054 5.10394C9.25877 5.84594 9.10801 6.60401 9.01976 7.37058C8.94321 8.92703 8.9985 10.4877 8.99424 12.0484C8.99424 16.3436 8.79862 16.6625 4.86497 19.0992C9.28342 20.2177 9.18561 23.5645 9.15159 26.907C9.12182 29.4968 9.15159 32.0867 9.15159 34.6425L12.0731 35.5781V40.0008C10.1382 39.9115 8.30107 40.0518 6.54475 39.6988C3.74654 39.1247 2.2156 37.143 2.1263 34.2385C2.03699 31.334 2.06676 28.4294 2.09653 25.5164C2.1263 23.6793 1.97746 21.9442 0 21.0597V16.7135L1.82436 15.3102C1.82436 12.9117 1.97746 10.2964 1.7946 7.70653C1.36508 1.65934 5.28598 -1.04106 11.6904 0.396316Z" fill="#B4B4B4"/>
<path d="M202.597 32.5501H195.865V3.78125H202.597V32.5501Z" fill="#B4B4B4"/>
<path d="M130.924 20.3533C128.207 20.3533 127.722 19.8175 127.735 16.9002C127.735 14.187 128.317 13.6512 131.175 13.6725C133.88 13.6937 134.381 14.2423 134.36 17.1468C134.335 19.8813 133.816 20.3661 130.924 20.3533Z" fill="#B4B4B4"/>
<path d="M128.145 32.2857V26.1875H133.46C134.889 28.0119 134.46 29.9553 133.805 32.2857H128.145Z" fill="#B4B4B4"/>
</svg>
