<svg width="65" height="65" viewBox="0 0 65 65" fill="none" xmlns="http://www.w3.org/2000/svg">
<path d="M0 32.5V0H65V65H0" fill="#B4B4B4"/>
<path d="M14.25 32.6135V35.2623H22.7V59.3123H28.6963V35.2623H37.1463V32.6623C37.1463 31.1998 37.1463 30.0135 37.0813 29.981C37.0813 29.9323 31.93 29.916 25.6738 29.916L14.2988 29.9648V32.6298L14.25 32.6135ZM52.2263 29.8998C53.8838 30.2898 55.1513 31.0373 56.2888 32.2235C56.89 32.8735 57.7838 34.011 57.8488 34.3036C57.8488 34.4011 55.0375 36.3023 53.3313 37.3586C53.2663 37.4073 53.0063 37.1311 52.7463 36.7085C51.9013 35.506 51.04 34.986 49.6913 34.8885C47.7413 34.7585 46.4413 35.7823 46.4413 37.4886C46.4413 38.0086 46.5388 38.3011 46.7338 38.7236C47.1725 39.6173 47.985 40.1536 50.5038 41.2586C55.1513 43.2573 57.1663 44.5736 58.385 46.4586C59.7663 48.5711 60.075 51.8861 59.1488 54.3723C58.1088 57.0861 55.5738 58.9223 51.95 59.5236C50.8125 59.7186 48.2125 59.6861 46.9938 59.4748C44.3938 58.9873 41.9075 57.6873 40.38 56.0136C39.7788 55.3636 38.625 53.6248 38.69 53.5111L39.3075 53.1211L41.745 51.7073L43.5813 50.6348L44.0038 51.2036C44.54 52.0486 45.7425 53.1861 46.4413 53.5761C48.5538 54.6648 51.3813 54.5186 52.7788 53.2511C53.38 52.6986 53.64 52.1136 53.64 51.3011C53.64 50.5536 53.5263 50.2123 53.1525 49.6436C52.6325 48.9286 51.5925 48.3436 48.6675 47.0436C45.3038 45.6136 43.8738 44.7036 42.5413 43.3061C41.7775 42.4611 41.0788 41.1448 40.7538 40.0561C40.51 39.1136 40.4288 36.8061 40.6563 35.8798C41.355 32.6298 43.8088 30.3548 47.3188 29.7048C48.4563 29.4773 51.1375 29.5748 52.2588 29.8673L52.2263 29.8998Z" fill="white"/>
</svg>
